<?xml version="1.0" encoding="iso-8859-1"?>
<!-- Generator: Adobe Illustrator 19.0.0, SVG Export Plug-In . SVG Version: 6.00 Build 0)  -->
<svg version="1.1" id="Capa_1" xmlns="http://www.w3.org/2000/svg" xmlns:xlink="http://www.w3.org/1999/xlink" x="0px" y="0px"
	 viewBox="0 0 512 512" style="enable-background:new 0 0 512 512;" xml:space="preserve">
<path style="fill:#3E9BE3;" d="M316,258.5H196c-8.284,0-15,6.716-15,15v60c0,8.284,6.716,15,15,15h120c8.284,0,15-6.716,15-15v-60
	C331,265.216,324.284,258.5,316,258.5z"/>
<path style="fill:#3B72C7;" d="M316,258.5h-60v90h60c8.284,0,15-6.716,15-15v-60C331,265.216,324.284,258.5,316,258.5z"/>
<g>
	<path style="fill:#15BDFF;" d="M376,318.5H136c-8.284,0-15,6.716-15,15v55c0,8.284,6.716,15,15,15h240c8.284,0,15-6.716,15-15v-55
		C391,325.216,384.284,318.5,376,318.5z"/>
	<path style="fill:#15BDFF;" d="M422,108.5H90c-49.626,0-90,40.374-90,90s40.374,90,90,90h332c49.626,0,90-40.374,90-90
		S471.626,108.5,422,108.5z"/>
</g>
<g>
	<path style="fill:#FFEE58;" d="M166,153.5c-24.813,0-45,20.187-45,45s20.187,45,45,45s45-20.187,45-45S190.813,153.5,166,153.5z"/>
	<path style="fill:#FFEE58;" d="M76,213.5H56c-8.284,0-15-6.716-15-15s6.716-15,15-15h20c8.284,0,15,6.716,15,15
		S84.284,213.5,76,213.5z"/>
</g>
<g>
	<path style="fill:#3E9BE3;" d="M376,318.5H256v85h120c8.284,0,15-6.716,15-15v-55C391,325.216,384.284,318.5,376,318.5z"/>
	<path style="fill:#3E9BE3;" d="M422,108.5H256v180h166c49.626,0,90-40.374,90-90S471.626,108.5,422,108.5z"/>
</g>
<g>
	<path style="fill:#FDD835;" d="M316,153.5c-24.813,0-45,20.187-45,45s20.187,45,45,45s45-20.187,45-45S340.813,153.5,316,153.5z"/>
	<path style="fill:#FDD835;" d="M426,153.5c-24.813,0-45,20.187-45,45s20.187,45,45,45s45-20.187,45-45S450.813,153.5,426,153.5z"/>
</g>
<g>
</g>
<g>
</g>
<g>
</g>
<g>
</g>
<g>
</g>
<g>
</g>
<g>
</g>
<g>
</g>
<g>
</g>
<g>
</g>
<g>
</g>
<g>
</g>
<g>
</g>
<g>
</g>
<g>
</g>
</svg>
