<svg xmlns="http://www.w3.org/2000/svg" xmlns:xlink="http://www.w3.org/1999/xlink" xmlns:fi="http://pattern.flaticon.com/" x="0" y="0" width="1024" height="512" viewBox="0 0 1024 512"><rect x="0px" y="0px" width="100%" height="100%" opacity="0.9" fill="#34b9f5"/><defs><g transform="matrix(0.1171875 0 0 0.1171875 239 96)" id="L1_2"><path d="M476.69,105.176H35.31c-19.501,0-35.31,15.809-35.31,35.31v176.552  c0,19.501,15.809,35.31,35.31,35.31h158.912l-0.003,0.003l49.301,49.301c6.894,6.895,18.073,6.895,24.968,0l49.301-49.301  l-0.003-0.003H476.69c19.501,0,35.31-15.809,35.31-35.31V140.486C512,120.985,496.191,105.176,476.69,105.176z" fill="#c3e678"/><g><path d="M150.069,166.97c-4.875,0-8.828,3.953-8.828,8.828v44.138H88.276v-44.138   c0-4.875-3.953-8.828-8.828-8.828c-4.875,0-8.828,3.953-8.828,8.828v105.931c0,4.875,3.953,8.828,8.828,8.828   c4.875,0,8.828-3.953,8.828-8.828v-44.138h52.966v44.138c0,4.875,3.953,8.828,8.828,8.828c4.875,0,8.828-3.953,8.828-8.828V175.798   C158.897,170.922,154.944,166.97,150.069,166.97z" fill="#ffffff"/><path d="M344.276,272.9H291.31v-97.103c0-4.875-3.953-8.828-8.828-8.828s-8.828,3.953-8.828,8.828V272.9   c0,9.735,7.921,17.655,17.655,17.655h52.966c4.875,0,8.828-3.953,8.828-8.828C353.103,276.853,349.151,272.9,344.276,272.9z" fill="#ffffff"/><path d="M247.172,184.624c4.875,0,8.828-3.953,8.828-8.828s-3.953-8.828-8.828-8.828h-52.966   c-9.735,0-17.655,7.921-17.655,17.655V272.9c0,9.735,7.921,17.655,17.655,17.655h52.966c4.875,0,8.828-3.953,8.828-8.828   c0-4.875-3.953-8.828-8.828-8.828h-52.966v-35.31h35.31c4.875,0,8.828-3.953,8.828-8.828s-3.953-8.828-8.828-8.828h-35.31v-35.31   H247.172z" fill="#ffffff"/><path d="M406.069,166.969h-26.483c-9.735,0-17.655,7.921-17.655,17.655v97.103   c0,4.875,3.953,8.828,8.828,8.828c4.875,0,8.828-3.953,8.828-8.828v-26.483h26.483c24.338,0,44.138-19.8,44.138-44.138   S430.407,166.969,406.069,166.969z M406.069,237.59h-26.483v-52.966h26.483c14.603,0,26.483,11.88,26.483,26.483   S420.672,237.59,406.069,237.59z" fill="#ffffff"/></g></g><g transform="matrix(0.1171875 0 0 0.1171875 109 204)" id="L1_3"><path d="M256,0C129.763,0,27.429,102.335,27.429,228.571v118.857c0,10.098,8.187,18.286,18.286,18.286H64  v-91.429H45.714v-45.714c0-115.952,94.334-210.286,210.286-210.286s210.286,94.334,210.286,210.286v45.714H448v91.429h9.143  c0,65.536-53.321,118.857-118.857,118.857H320v18.286h18.286c75.625,0,137.143-61.518,137.143-137.143v-2.466  c5.461-3.163,9.143-9.055,9.143-15.819V228.571C484.571,102.335,382.237,0,256,0z" fill="#5b5d6e"/><path d="M100.571,393.143H82.286c-10.099,0-18.286-8.186-18.286-18.286V265.143  c0-10.099,8.186-18.286,18.286-18.286h18.286c10.099,0,18.286,8.186,18.286,18.286v109.714  C118.857,384.957,110.671,393.143,100.571,393.143z" fill="#959cb3"/><path d="M118.857,374.857V265.143c0-10.099-8.187-18.286-18.286-18.286h-9.143v146.286h9.143  C110.67,393.143,118.857,384.955,118.857,374.857z" fill="#707487"/><path d="M411.429,246.857h18.286c10.099,0,18.286,8.186,18.286,18.286v109.714  c0,10.099-8.186,18.286-18.286,18.286h-18.286c-10.099,0-18.286-8.186-18.286-18.286V265.143  C393.143,255.043,401.329,246.857,411.429,246.857z" fill="#959cb3"/><g><path d="M393.143,265.143v109.714c0,10.099,8.187,18.286,18.286,18.286h9.143V246.857h-9.143   C401.33,246.857,393.143,255.045,393.143,265.143z" fill="#707487"/><path d="M320,512h-27.429c-5.049,0-9.143-4.094-9.143-9.143v-18.286c0-5.049,4.094-9.143,9.143-9.143H320   c10.099,0,18.286,8.186,18.286,18.286l0,0C338.286,503.814,330.099,512,320,512z" fill="#707487"/></g><path d="M329.143,237.714H182.857c-15.149,0-27.429,12.28-27.429,27.429v109.714  c0,15.149,12.28,27.429,27.429,27.429h91.429V432.4c0,5.742,6.942,8.617,11.001,4.557l34.671-34.671h9.185  c15.149,0,27.429-12.28,27.429-27.429V265.143C356.571,249.994,344.291,237.714,329.143,237.714z M201.143,338.286  c-10.098,0-18.286-8.187-18.286-18.286c0-10.099,8.187-18.286,18.286-18.286s18.286,8.186,18.286,18.286  C219.429,330.098,211.241,338.286,201.143,338.286z M256,338.286c-10.098,0-18.286-8.187-18.286-18.286  c0-10.099,8.187-18.286,18.286-18.286c10.098,0,18.286,8.186,18.286,18.286C274.286,330.098,266.098,338.286,256,338.286z   M310.857,338.286c-10.098,0-18.286-8.187-18.286-18.286c0-10.099,8.187-18.286,18.286-18.286c10.098,0,18.286,8.186,18.286,18.286  C329.143,330.098,320.955,338.286,310.857,338.286z" fill="#00d2f6"/></g><g transform="matrix(0.1171875 0 0 0.1171875 325 174)" id="L1_4"><path d="M459.034,397.241h-52.966c-4.879,0-8.828,3.953-8.828,8.828s3.948,8.828,8.828,8.828h27.556  c-4.299,4.813-8.785,9.404-13.422,13.796c-5.13,4.858-12.54,6.377-19.065,3.668c-24.963-10.361-65.689-26.292-65.689-26.292H176.552  c0,0-40.595,15.879-65.571,26.243c-6.567,2.724-13.997,1.137-19.147-3.764C46.185,385.107,17.655,323.84,17.655,256  c0-38.521,9.397-76.785,27.19-110.655c2.268-4.314,0.604-9.651-3.715-11.918c-4.319-2.263-9.646-0.604-11.923,3.711  C10.103,173.526,0,214.63,0,256c0,141.16,114.845,256,256,256c75.297,0,145.439-32.458,194.207-89.321v36.355  c0,4.875,3.948,8.828,8.828,8.828s8.828-3.953,8.828-8.828v-52.966C467.862,401.194,463.91,397.241,459.034,397.241z" fill="#e4eaf6"/><path d="M256,0C180.514,0,110.534,32.335,61.793,89.207V52.966  c0-4.875-3.948-8.828-8.828-8.828s-8.828,3.953-8.828,8.828v52.966c0,4.875,3.948,8.828,8.828,8.828h52.966  c4.879,0,8.828-3.953,8.828-8.828c0-4.875-3.948-8.828-8.828-8.828H78.436C123.659,46.433,187.361,17.655,256,17.655  c131.423,0,238.345,106.922,238.345,238.345c0,38.521-9.397,76.785-27.19,110.655c-2.268,4.314-0.604,9.651,3.715,11.918  c1.311,0.69,2.716,1.013,4.095,1.013c3.172,0,6.241-1.716,7.828-4.724C501.897,338.474,512,297.37,512,256  C512,114.84,397.155,0,256,0z" id="SVGCleanerId_0" fill="#e4eaf6"/><path d="M317.793,344.277 317.793,393.565 256,432.552 194.207,393.565 194.207,344.277z" fill="#e6af78"/><path d="M194.207,344.277v49.288l19.052,12.021c76.623,8.262,104.166-55.425,104.166-55.425l0.067-5.884  H194.207z" fill="#d29b6e"/><path d="M331.797,387.35c-2.81-4.216-8.587-5.206-12.642-2.165L256,432.552l-63.155-47.367  c-4.054-3.04-9.831-2.051-12.642,2.165l-12.479,18.719l38.719,54.207c2.944,4.12,8.744,4.926,12.698,1.762l28.031-22.424v37.076  c0,4.875,3.953,8.828,8.828,8.828s8.828-3.953,8.828-8.828v-37.076l28.031,22.424c3.955,3.164,9.754,2.359,12.698-1.762  l38.719-54.207L331.797,387.35z" fill="#d7deed"/><path d="M289.848,373.448l35.43-29.525c6.558-5.464,10.913-13.119,12.262-21.547l20.135-125.839  c6.866-42.908-26.28-81.778-69.733-81.778H224.06c-43.454,0-76.599,38.87-69.734,81.778l20.135,125.839  c1.348,8.428,5.705,16.083,12.262,21.547l35.43,29.525c4.759,3.966,10.759,6.138,16.953,6.138h33.79  C279.09,379.586,285.089,377.415,289.848,373.448z" fill="#f0c087"/><path d="M237.186,234.781c40.69-5.722,75.887-16.968,100.209-26.297c0.026,0.003-4.981-16.759-4.904-16.748  l-5.87,2.472c0,0-61.793,25.012-132.414,26.483H158.19l16.27,101.686c1.348,8.428,5.705,16.083,12.262,21.547l35.431,29.525  c4.759,3.966,10.758,6.137,16.952,6.137h8.067l-13.126-39.375c-3-9.001-4.53-18.428-4.53-27.915v-68.815  C229.517,239.07,232.819,235.394,237.186,234.781z" fill="#e6af78"/><path d="M345.362,298.724c-0.44,1.5-11.5,36.724-78.793,36.724v17.655c81.655,0,95.285-47.707,95.828-49.741  L345.362,298.724z" fill="#464655"/><circle cx="266" cy="344" r="8" fill="#5b5d6e"/><g><path d="M163.84,256h-11.363c-4.875,0-8.828,3.953-8.828,8.828v35.31c0,4.875,3.953,8.828,8.828,8.828   h19.839L163.84,256z" fill="#707487"/><path d="M361.931,256H348.16l-8.474,52.966h22.246c4.875,0,8.828-3.953,8.828-8.828v-35.31   C370.759,259.953,366.806,256,361.931,256z" fill="#707487"/></g><path d="M194.207,220.69c70.621-1.471,132.414-26.483,132.414-26.483l7.745,54.214  c0.621,4.349,4.345,7.58,8.739,7.58h5.056l9.514-59.464c6.865-42.908-26.281-81.778-69.735-81.778H224.06  c-43.454,0-76.599,38.87-69.734,81.778L163.84,256h7.256c3.343,0,6.4-1.889,7.895-4.879L194.207,220.69z" fill="#5a4146"/><path d="M256,0C180.514,0,110.534,32.335,61.793,89.207V52.966   c0-4.875-3.948-8.828-8.828-8.828s-8.828,3.953-8.828,8.828v52.966c0,4.875,3.948,8.828,8.828,8.828h52.966   c4.879,0,8.828-3.953,8.828-8.828c0-4.875-3.948-8.828-8.828-8.828H78.436C123.659,46.433,187.361,17.655,256,17.655   c131.423,0,238.345,106.922,238.345,238.345c0,38.521-9.397,76.785-27.19,110.655c-2.268,4.314-0.604,9.651,3.715,11.918   c1.311,0.69,2.716,1.013,4.095,1.013c3.172,0,6.241-1.716,7.828-4.724C501.897,338.474,512,297.37,512,256   C512,114.84,397.155,0,256,0z" id="SVGCleanerId_0_1_" fill="#e4eaf6"/></g><g transform="matrix(0.1171875 0 0 0.1171875 34 331)" id="L1_5"><g><path d="M256,0c-53.629,0-97.103,43.475-97.103,97.103v79.448h194.207V97.103   C353.103,43.475,309.629,0,256,0z" fill="#c7cfe2"/><path d="M379.586,185.379v88.276c0,68.147-55.439,123.586-123.586,123.586s-123.586-55.439-123.586-123.586   v-88.276h-17.655v88.276c0,77.879,63.362,141.241,141.241,141.241s141.241-63.362,141.241-141.241v-88.276H379.586z" fill="#c7cfe2"/></g><path d="M397.241,194.207H114.759c-4.879,0-8.828-3.948-8.828-8.828c0-4.879,3.948-8.828,8.828-8.828h282.483  c4.879,0,8.828,3.948,8.828,8.828C406.069,190.259,402.121,194.207,397.241,194.207z" fill="#afb9d2"/><path d="M158.897,194.207v79.448c0,53.629,43.475,97.103,97.103,97.103s97.103-43.475,97.103-97.103v-79.448  H158.897z" fill="#5b5d6e"/><path d="M229.517,273.655v-79.448h-70.621v79.448c0,53.629,43.475,97.103,97.103,97.103  c12.473,0,24.355-2.436,35.31-6.721C255.162,349.901,229.517,314.81,229.517,273.655z" fill="#464655"/><path d="M229.517,97.103v79.448h-70.621V97.103C158.897,43.475,202.371,0,256,0  c12.473,0,24.355,2.436,35.31,6.721C255.162,20.857,229.517,55.948,229.517,97.103z" fill="#afb9d2"/><path d="M353.103,203.034H158.897c-4.875,0-8.828-3.953-8.828-8.828v-17.655c0-4.875,3.953-8.828,8.828-8.828  h194.207c4.875,0,8.828,3.953,8.828,8.828v17.655C361.931,199.082,357.978,203.034,353.103,203.034z" fill="#707487"/><g><path d="M264.828,388.414h-17.655c-4.875,0-8.828,3.953-8.828,8.828v88.276h35.31v-88.276   C273.655,392.365,269.703,388.414,264.828,388.414z" fill="#5b5d6e"/><path d="M273.741,150.069c-4.879,0-8.871-3.953-8.871-8.828s3.905-8.828,8.785-8.828h0.086   c4.879,0,8.828,3.953,8.828,8.828S278.621,150.069,273.741,150.069z" fill="#5b5d6e"/><path d="M203.121,150.069c-4.879,0-8.871-3.953-8.871-8.828s3.905-8.828,8.785-8.828h0.086   c4.879,0,8.828,3.953,8.828,8.828S208,150.069,203.121,150.069z" fill="#5b5d6e"/><path d="M167.81,150.069c-4.879,0-8.871-3.953-8.871-8.828s3.905-8.828,8.785-8.828h0.086   c4.879,0,8.828,3.953,8.828,8.828S172.69,150.069,167.81,150.069z" fill="#5b5d6e"/><path d="M309.052,150.069c-4.879,0-8.871-3.953-8.871-8.828s3.905-8.828,8.785-8.828h0.086   c4.879,0,8.828,3.953,8.828,8.828S313.931,150.069,309.052,150.069z" fill="#5b5d6e"/><path d="M344.276,150.069c-4.879,0-8.871-3.953-8.871-8.828s3.905-8.828,8.785-8.828h0.086   c4.879,0,8.828,3.953,8.828,8.828S349.155,150.069,344.276,150.069z" fill="#5b5d6e"/><path d="M238.431,150.069c-4.879,0-8.871-3.953-8.871-8.828s3.905-8.828,8.785-8.828h0.086   c4.879,0,8.828,3.953,8.828,8.828S243.31,150.069,238.431,150.069z" fill="#5b5d6e"/><path d="M273.741,97.103c-4.879,0-8.871-3.953-8.871-8.828c0-4.875,3.905-8.828,8.785-8.828h0.086   c4.879,0,8.828,3.953,8.828,8.828C282.569,93.151,278.621,97.103,273.741,97.103z" fill="#5b5d6e"/><path d="M203.121,97.103c-4.879,0-8.871-3.953-8.871-8.828c0-4.875,3.905-8.828,8.785-8.828h0.086   c4.879,0,8.828,3.953,8.828,8.828C211.948,93.151,208,97.103,203.121,97.103z" fill="#5b5d6e"/><path d="M309.052,97.103c-4.879,0-8.871-3.953-8.871-8.828c0-4.875,3.905-8.828,8.785-8.828h0.086   c4.879,0,8.828,3.953,8.828,8.828C317.879,93.151,313.931,97.103,309.052,97.103z" fill="#5b5d6e"/><path d="M238.431,97.103c-4.879,0-8.871-3.953-8.871-8.828c0-4.875,3.905-8.828,8.785-8.828h0.086   c4.879,0,8.828,3.953,8.828,8.828C247.258,93.151,243.31,97.103,238.431,97.103z" fill="#5b5d6e"/><path d="M273.741,44.138c-4.879,0-8.871-3.953-8.871-8.828s3.905-8.828,8.785-8.828h0.086   c4.879,0,8.828,3.953,8.828,8.828S278.621,44.138,273.741,44.138z" fill="#5b5d6e"/><path d="M309.052,44.138c-4.879,0-8.871-3.953-8.871-8.828s3.905-8.828,8.785-8.828h0.086   c4.879,0,8.828,3.953,8.828,8.828S313.931,44.138,309.052,44.138z" fill="#5b5d6e"/><path d="M203.121,44.138c-4.879,0-8.871-3.953-8.871-8.828s3.905-8.828,8.785-8.828h0.086   c4.879,0,8.828,3.953,8.828,8.828S208,44.138,203.121,44.138z" fill="#5b5d6e"/><path d="M238.431,44.138c-4.879,0-8.871-3.953-8.871-8.828s3.905-8.828,8.785-8.828h0.086   c4.879,0,8.828,3.953,8.828,8.828S243.31,44.138,238.431,44.138z" fill="#5b5d6e"/><path d="M291.396,123.586c-4.879,0-8.871-3.953-8.871-8.828c0-4.875,3.905-8.828,8.785-8.828h0.086   c4.879,0,8.828,3.953,8.828,8.828C300.224,119.634,296.276,123.586,291.396,123.586z" fill="#5b5d6e"/><path d="M220.776,123.586c-4.879,0-8.871-3.953-8.871-8.828c0-4.875,3.905-8.828,8.785-8.828h0.086   c4.879,0,8.828,3.953,8.828,8.828C229.603,119.634,225.655,123.586,220.776,123.586z" fill="#5b5d6e"/><path d="M326.707,123.586c-4.879,0-8.871-3.953-8.871-8.828c0-4.875,3.905-8.828,8.785-8.828h0.086   c4.879,0,8.828,3.953,8.828,8.828C335.534,119.634,331.586,123.586,326.707,123.586z" fill="#5b5d6e"/><path d="M185.465,123.586c-4.879,0-8.871-3.953-8.871-8.828c0-4.875,3.905-8.828,8.785-8.828h0.086   c4.879,0,8.828,3.953,8.828,8.828C194.293,119.634,190.345,123.586,185.465,123.586z" fill="#5b5d6e"/><path d="M256.086,123.586c-4.879,0-8.871-3.953-8.871-8.828c0-4.875,3.905-8.828,8.785-8.828h0.086   c4.879,0,8.828,3.953,8.828,8.828C264.914,119.634,260.966,123.586,256.086,123.586z" fill="#5b5d6e"/><path d="M291.396,70.621c-4.879,0-8.871-3.953-8.871-8.828s3.905-8.828,8.785-8.828h0.086   c4.879,0,8.828,3.953,8.828,8.828S296.276,70.621,291.396,70.621z" fill="#5b5d6e"/><path d="M220.776,70.621c-4.879,0-8.871-3.953-8.871-8.828s3.905-8.828,8.785-8.828h0.086   c4.879,0,8.828,3.953,8.828,8.828S225.655,70.621,220.776,70.621z" fill="#5b5d6e"/><path d="M185.465,70.621c-4.879,0-8.871-3.953-8.871-8.828s3.905-8.828,8.785-8.828h0.086   c4.879,0,8.828,3.953,8.828,8.828S190.345,70.621,185.465,70.621z" fill="#5b5d6e"/><path d="M326.707,70.621c-4.879,0-8.871-3.953-8.871-8.828s3.905-8.828,8.785-8.828h0.086   c4.879,0,8.828,3.953,8.828,8.828S331.586,70.621,326.707,70.621z" fill="#5b5d6e"/><path d="M256.086,70.621c-4.879,0-8.871-3.953-8.871-8.828s3.905-8.828,8.785-8.828h0.086   c4.879,0,8.828,3.953,8.828,8.828S260.966,70.621,256.086,70.621z" fill="#5b5d6e"/><path d="M256.086,17.655c-4.879,0-8.871-3.953-8.871-8.828S251.121,0,256,0h0.086   c4.879,0,8.828,3.953,8.828,8.828S260.966,17.655,256.086,17.655z" fill="#5b5d6e"/></g><path d="M326.621,512H185.379c-9.751,0-17.655-7.904-17.655-17.655l0,0c0-9.751,7.904-17.655,17.655-17.655  h141.241c9.751,0,17.655,7.904,17.655,17.655l0,0C344.276,504.095,336.371,512,326.621,512z" fill="#707487"/><g><path d="M167.724,97.103c4.879,0,8.828-3.953,8.828-8.828c0-4.875-3.948-8.828-8.828-8.828h-0.086   c-3.479,0-6.394,2.057-7.82,4.977c-0.249,1.908-0.436,3.831-0.573,5.773C160.153,94.119,163.528,97.103,167.724,97.103z" fill="#5b5d6e"/><path d="M352.198,84.524c-1.417-2.979-4.399-5.076-7.922-5.076h-0.086c-4.879,0-8.785,3.953-8.785,8.828   c0,4.875,3.991,8.828,8.871,8.828c4.253,0,7.63-3.062,8.471-7.06C352.614,88.188,352.434,86.349,352.198,84.524z" fill="#5b5d6e"/><path d="M291.396,17.655c4.265,0,7.65-3.081,8.479-7.096c-5.05-2.566-10.323-4.747-15.833-6.408   c-0.877,1.376-1.516,2.919-1.516,4.676C282.526,13.703,286.517,17.655,291.396,17.655z" fill="#5b5d6e"/><path d="M220.776,17.655c4.879,0,8.828-3.953,8.828-8.828c0-1.769-0.651-3.32-1.546-4.702   c-5.503,1.652-10.767,3.82-15.811,6.375C213.059,14.546,216.49,17.655,220.776,17.655z" fill="#5b5d6e"/><path d="M220.69,194.207v-17.655c0-4.875,3.953-8.828,8.828-8.828h-70.621c-4.875,0-8.828,3.953-8.828,8.828   v17.655c0,4.875,3.953,8.828,8.828,8.828h70.621C224.641,203.034,220.69,199.082,220.69,194.207z" fill="#5b5d6e"/><path d="M229.517,494.345c0-9.751,7.905-17.655,17.655-17.655h-61.793c-9.75,0-17.655,7.904-17.655,17.655   c0,9.75,7.905,17.655,17.655,17.655h61.793C237.422,512,229.517,504.095,229.517,494.345z" fill="#5b5d6e"/></g></g><g transform="matrix(0.1171875 0 0 0.1171875 131 9)" id="L1_7"><path d="M379.586,370.759H132.414c-14.626,0-26.483-11.857-26.483-26.483V176.552  c0-14.626,11.857-26.483,26.483-26.483h247.172c14.626,0,26.483,11.857,26.483,26.483v167.724  C406.069,358.902,394.212,370.759,379.586,370.759z" fill="#ffc36e"/><g><path d="M459.034,397.241h-52.966c-4.879,0-8.828,3.953-8.828,8.828s3.948,8.828,8.828,8.828h27.556   C388.377,465.556,324.462,494.345,256,494.345C124.577,494.345,17.655,387.423,17.655,256c0-38.521,9.397-76.785,27.19-110.655   c2.268-4.314,0.604-9.651-3.715-11.918c-4.319-2.263-9.646-0.604-11.923,3.711C10.103,173.526,0,214.63,0,256   c0,141.16,114.845,256,256,256c75.297,0,145.439-32.458,194.207-89.321v36.355c0,4.875,3.948,8.828,8.828,8.828   s8.828-3.953,8.828-8.828v-52.966C467.862,401.194,463.914,397.241,459.034,397.241z" fill="#e4eaf6"/><path d="M256,0C180.514,0,110.534,32.335,61.793,89.207V52.966c0-4.875-3.948-8.828-8.828-8.828   s-8.828,3.953-8.828,8.828v52.966c0,4.875,3.948,8.828,8.828,8.828h52.966c4.879,0,8.828-3.953,8.828-8.828   c0-4.875-3.948-8.828-8.828-8.828H78.436C123.659,46.433,187.361,17.655,256,17.655c131.423,0,238.345,106.922,238.345,238.345   c0,38.521-9.397,76.785-27.19,110.655c-2.268,4.314-0.604,9.651,3.715,11.918c1.311,0.69,2.716,1.013,4.095,1.013   c3.172,0,6.241-1.716,7.828-4.724C501.897,338.474,512,297.37,512,256C512,114.84,397.155,0,256,0z" fill="#e4eaf6"/></g><path d="M405.863,174.507c-0.513-6.602-3.34-12.538-7.808-16.896L288.828,260.414h-65.655L113.945,157.612  c-4.468,4.356-7.295,10.294-7.808,16.896l104.154,98.029l-96.346,90.679c4.772,4.652,11.276,7.542,18.468,7.542h247.172  c7.192,0,13.696-2.89,18.468-7.543l-96.346-90.679L405.863,174.507z" fill="#ffb464"/><path d="M231.799,268.533c13.597,12.797,34.805,12.797,48.402,0l117.854-110.921  c-4.772-4.653-11.276-7.543-18.468-7.543H132.414c-7.192,0-13.696,2.89-18.468,7.543L231.799,268.533z" fill="#ffd782"/></g><g transform="matrix(0.1171875 0 0 0.1171875 288 289)" id="L1_8"><path d="M379.586,370.759H132.414c-14.626,0-26.483-11.857-26.483-26.483V176.552  c0-14.626,11.857-26.483,26.483-26.483h247.172c14.626,0,26.483,11.857,26.483,26.483v167.724  C406.069,358.902,394.212,370.759,379.586,370.759z" fill="#ffc36e"/><g><path d="M459.034,397.241h-52.966c-4.879,0-8.828,3.953-8.828,8.828s3.948,8.828,8.828,8.828h27.556   C388.377,465.556,324.462,494.345,256,494.345C124.577,494.345,17.655,387.423,17.655,256c0-38.521,9.397-76.785,27.19-110.655   c2.268-4.314,0.604-9.651-3.715-11.918c-4.319-2.263-9.646-0.604-11.923,3.711C10.103,173.526,0,214.63,0,256   c0,141.16,114.845,256,256,256c75.297,0,145.439-32.458,194.207-89.321v36.355c0,4.875,3.948,8.828,8.828,8.828   s8.828-3.953,8.828-8.828v-52.966C467.862,401.194,463.914,397.241,459.034,397.241z" fill="#e4eaf6"/><path d="M256,0C180.514,0,110.534,32.335,61.793,89.207V52.966c0-4.875-3.948-8.828-8.828-8.828   s-8.828,3.953-8.828,8.828v52.966c0,4.875,3.948,8.828,8.828,8.828h52.966c4.879,0,8.828-3.953,8.828-8.828   c0-4.875-3.948-8.828-8.828-8.828H78.436C123.659,46.433,187.361,17.655,256,17.655c131.423,0,238.345,106.922,238.345,238.345   c0,38.521-9.397,76.785-27.19,110.655c-2.268,4.314-0.604,9.651,3.715,11.918c1.311,0.69,2.716,1.013,4.095,1.013   c3.172,0,6.241-1.716,7.828-4.724C501.897,338.474,512,297.37,512,256C512,114.84,397.155,0,256,0z" fill="#e4eaf6"/></g><path d="M405.863,174.507c-0.513-6.602-3.34-12.538-7.808-16.896L288.828,260.414h-65.655L113.945,157.612  c-4.468,4.356-7.295,10.294-7.808,16.896l104.154,98.029l-96.346,90.679c4.772,4.652,11.276,7.542,18.468,7.542h247.172  c7.192,0,13.696-2.89,18.468-7.543l-96.346-90.679L405.863,174.507z" fill="#ffb464"/><path d="M231.799,268.533c13.597,12.797,34.805,12.797,48.402,0l117.854-110.921  c-4.772-4.653-11.276-7.543-18.468-7.543H132.414c-7.192,0-13.696,2.89-18.468,7.543L231.799,268.533z" fill="#ffd782"/></g><g transform="matrix(0.1171875 0 0 0.1171875 233.00000041484827 15)" id="L1_9"><path d="M345.562,169.71c10.577-12.691,16.369-28.69,16.369-45.21V26.483H150.069v98.018  c0,16.521,5.792,32.519,16.369,45.21l62.488,74.987c5.455,6.548,5.455,16.057,0,22.605l-62.488,74.987  c-10.577,12.692-16.369,28.69-16.369,45.21v98.016h211.862v-98.018c0-16.521-5.792-32.519-16.369-45.211l-62.488-74.987  c-5.455-6.548-5.455-16.057,0-22.605L345.562,169.71z" fill="#e4eaf6"/><path d="M233.609,342.289l15.623-74.987c1.364-6.548,1.364-16.057,0-22.605l-15.623-74.986  c-2.644-12.691-4.092-28.69-4.092-45.21V26.483h-79.448v98.018c0,16.521,5.792,32.519,16.369,45.21l62.488,74.987  c5.455,6.548,5.455,16.057,0,22.605l-62.488,74.987c-10.577,12.692-16.369,28.69-16.369,45.21v98.016h79.448v-98.018  C229.517,370.978,230.966,354.98,233.609,342.289z" fill="#d7deed"/><g><path d="M370.759,512H141.241c-4.875,0-8.828-3.953-8.828-8.828v-17.655c0-4.875,3.953-8.828,8.828-8.828   h229.517c4.875,0,8.828,3.953,8.828,8.828v17.655C379.586,508.047,375.634,512,370.759,512z" fill="#959cb3"/><path d="M141.241,0h229.517c4.875,0,8.828,3.953,8.828,8.828v17.655c0,4.875-3.953,8.828-8.828,8.828   H141.241c-4.875,0-8.828-3.953-8.828-8.828V8.828C132.414,3.953,136.366,0,141.241,0z" fill="#959cb3"/></g><g><path d="M220.69,26.483V8.828c0-4.875,3.953-8.828,8.828-8.828h-88.276c-4.875,0-8.828,3.953-8.828,8.828   v17.655c0,4.875,3.953,8.828,8.828,8.828h88.276C224.642,35.31,220.69,31.358,220.69,26.483z" fill="#707487"/><path d="M220.69,503.172v-17.655c0-4.875,3.953-8.828,8.828-8.828h-88.276c-4.875,0-8.828,3.953-8.828,8.828   v17.655c0,4.875,3.953,8.828,8.828,8.828h88.276C224.642,512,220.69,508.047,220.69,503.172z" fill="#707487"/></g><path d="M335.448,388.414H291.31c-14.626,0-26.483-11.857-26.483-26.483V252.365  c0-8.2,2.854-16.145,8.073-22.471l46.626-56.52c4.791-5.75,0.703-14.479-6.782-14.479h-113.49c-7.485,0-11.573,8.729-6.782,14.479  l46.626,56.52c5.218,6.326,8.073,14.27,8.073,22.471v109.566c0,14.626-11.857,26.483-26.483,26.483h-44.138  c-4.875,0-8.828,3.953-8.828,8.828v61.793c0,4.875,3.953,8.828,8.828,8.828h158.897c4.875,0,8.828-3.953,8.828-8.828v-61.793  C344.276,392.366,340.323,388.414,335.448,388.414z" fill="#ffd782"/><g><path d="M229.517,387.499c0-0.239,0.015-0.472,0.015-0.712c-2.777,0.989-5.726,1.626-8.843,1.626h-44.138   c-4.875,0-8.828,3.953-8.828,8.828v61.793c0,4.875,3.953,8.828,8.828,8.828h52.966V387.499z" fill="#ffc36e"/><path d="M192.473,173.376l46.626,56.52c5.218,6.325,8.072,14.27,8.072,22.47v24.821l2.059-9.885   c1.364-6.548,1.364-16.057,0-22.605l-15.622-74.986c-0.704-3.379-1.309-7.019-1.838-10.814h-32.516   C191.77,158.897,187.682,167.626,192.473,173.376z" fill="#ffc36e"/></g></g><g transform="matrix(0.1171875 0 0 0.1171875 80 101)" id="L1_10"><path d="M256,0 286.073,27.571 322.258,8.723 344.17,43.138 384,34.297 396.258,73.212 437.02,74.98   438.788,115.742 477.703,128 468.862,167.83 503.277,189.742 484.429,225.927 512,256 484.429,286.073 503.277,322.258   468.862,344.17 477.703,384 438.788,396.258 437.02,437.02 396.258,438.788 384,477.703 344.17,468.862 322.258,503.277   286.073,484.429 256,512 225.927,484.429 189.742,503.277 167.83,468.862 128,477.703 115.742,438.788 74.98,437.02 73.212,396.258   34.297,384 43.138,344.17 8.723,322.258 27.571,286.073 0,256 27.571,225.927 8.723,189.742 43.138,167.83 34.297,128   73.212,115.742 74.98,74.98 115.742,73.212 128,34.297 167.83,43.138 189.742,8.723 225.927,27.571z" fill="#ffd782"/><path d="M397.067,222.298c-1.39-11.24-11.719-19.264-23.043-19.264h-70.936  c20.551-16.637,34.504-38.956,36.522-57.311c1.496-13.61-7.915-26.536-21.605-26.663c-12.277-0.114-22.271,9.705-22.271,21.955  c0,7.948-17.25,31.534-49.579,42.029c-5.183,1.683-9.7,4.883-13.431,8.855c-9.583,10.205-30.554,28.789-56.171,28.789v132.414  h171.336c10.136,0,19.567-6.485,22.119-16.295c2.059-7.915-0.278-15.233-4.929-20.431c8.448-3.095,14.509-11.134,14.509-20.653  c0-5.652-2.187-10.752-5.681-14.656c8.447-3.096,14.508-11.135,14.508-20.654c0-5.652-2.187-10.752-5.681-14.656  C391.999,242.361,398.393,233.02,397.067,222.298z" fill="#ffffff"/><path d="M185.379,370.759h-52.966c-4.875,0-8.828-3.953-8.828-8.828V211.862c0-4.875,3.953-8.828,8.828-8.828  h52.966c4.875,0,8.828,3.953,8.828,8.828v150.069C194.207,366.806,190.254,370.759,185.379,370.759z" fill="#ffc36e"/><circle cx="158" cy="335" r="17" fill="#eff2fa"/></g><g transform="matrix(0.1171875 0 0 0.1171875 167 146)" id="L1_11"><path d="M414.897,35.31H273.655c0,9.75-7.905,17.655-17.655,17.655s-17.655-7.905-17.655-17.655H97.103  c-19.501,0-35.31,15.809-35.31,35.31V476.69c0,19.501,15.809,35.31,35.31,35.31h317.793c19.501,0,35.31-15.809,35.31-35.31V70.621  C450.207,51.119,434.398,35.31,414.897,35.31z" fill="#e1c3a0"/><path d="M406.069,476.69H105.931c-4.875,0-8.828-3.953-8.828-8.828V79.448c0-4.875,3.953-8.828,8.828-8.828  h300.138c4.875,0,8.828,3.953,8.828,8.828v388.414C414.897,472.737,410.944,476.69,406.069,476.69z" fill="#eff2fa"/><circle cx="317" cy="379" r="79" fill="#e4eaf6"/><path d="M317.793,17.655h-31.38c-5.34-9.174-14.614-15.651-25.577-17.167C259.265,0.194,257.66,0,256,0  c-1.66,0-3.265,0.194-4.836,0.488c-10.963,1.516-20.237,7.993-25.577,17.167h-31.38c-14.626,0-26.483,11.857-26.483,26.483v35.31  c0,4.875,3.953,8.828,8.828,8.828h158.897c4.875,0,8.828-3.953,8.828-8.828v-35.31C344.276,29.512,332.419,17.655,317.793,17.655z   M256,48.552c-7.313,0-13.241-5.929-13.241-13.241S248.687,22.069,256,22.069c7.313,0,13.241,5.929,13.241,13.241  S263.313,48.552,256,48.552z" fill="#c7cfe2"/><g><path d="M317.793,88.276H194.207c-4.875,0-8.828-3.953-8.828-8.828l0,0c0-4.875,3.953-8.828,8.828-8.828   h123.586c4.875,0,8.828,3.953,8.828,8.828l0,0C326.621,84.323,322.668,88.276,317.793,88.276z" fill="#afb9d2"/><path d="M317.793,141.241H194.207c-4.875,0-8.828-3.953-8.828-8.828l0,0c0-4.875,3.953-8.828,8.828-8.828   h123.586c4.875,0,8.828,3.953,8.828,8.828l0,0C326.621,137.289,322.668,141.241,317.793,141.241z" fill="#afb9d2"/><path d="M335.448,176.552H176.552c-4.875,0-8.828-3.953-8.828-8.828l0,0c0-4.875,3.953-8.828,8.828-8.828   h158.897c4.875,0,8.828,3.953,8.828,8.828l0,0C344.276,172.599,340.323,176.552,335.448,176.552z" fill="#afb9d2"/></g><g><path d="M167.724,220.69h-26.483c-4.875,0-8.828-3.953-8.828-8.828l0,0c0-4.875,3.953-8.828,8.828-8.828   h26.483c4.875,0,8.828,3.953,8.828,8.828l0,0C176.552,216.737,172.599,220.69,167.724,220.69z" fill="#c7cfe2"/><path d="M167.724,291.31h-26.483c-4.875,0-8.828-3.953-8.828-8.828l0,0c0-4.875,3.953-8.828,8.828-8.828   h26.483c4.875,0,8.828,3.953,8.828,8.828l0,0C176.552,287.358,172.599,291.31,167.724,291.31z" fill="#c7cfe2"/><path d="M167.724,256h-26.483c-4.875,0-8.828-3.953-8.828-8.828l0,0c0-4.875,3.953-8.828,8.828-8.828h26.483   c4.875,0,8.828,3.953,8.828,8.828l0,0C176.552,252.047,172.599,256,167.724,256z" fill="#c7cfe2"/></g><g><path d="M370.759,220.69H203.034c-4.875,0-8.828-3.953-8.828-8.828l0,0c0-4.875,3.953-8.828,8.828-8.828   h167.724c4.875,0,8.828,3.953,8.828,8.828l0,0C379.586,216.737,375.634,220.69,370.759,220.69z" fill="#d7deed"/><path d="M370.759,291.31H203.034c-4.875,0-8.828-3.953-8.828-8.828l0,0c0-4.875,3.953-8.828,8.828-8.828   h167.724c4.875,0,8.828,3.953,8.828,8.828l0,0C379.586,287.358,375.634,291.31,370.759,291.31z" fill="#d7deed"/></g><path d="M167.724,326.621h-26.483c-4.875,0-8.828-3.953-8.828-8.828l0,0c0-4.875,3.953-8.828,8.828-8.828  h26.483c4.875,0,8.828,3.953,8.828,8.828l0,0C176.552,322.668,172.599,326.621,167.724,326.621z" fill="#c7cfe2"/><path d="M317.793,326.621H203.034c-4.875,0-8.828-3.953-8.828-8.828l0,0c0-4.875,3.953-8.828,8.828-8.828  h114.759c4.875,0,8.828,3.953,8.828,8.828l0,0C326.621,322.668,322.668,326.621,317.793,326.621z" fill="#d7deed"/><path d="M167.724,361.931h-26.483c-4.875,0-8.828-3.953-8.828-8.828l0,0c0-4.875,3.953-8.828,8.828-8.828  h26.483c4.875,0,8.828,3.953,8.828,8.828l0,0C176.552,357.978,172.599,361.931,167.724,361.931z" fill="#c7cfe2"/><g><path d="M317.793,361.931H203.034c-4.875,0-8.828-3.953-8.828-8.828l0,0c0-4.875,3.953-8.828,8.828-8.828   h114.759c4.875,0,8.828,3.953,8.828,8.828l0,0C326.621,357.978,322.668,361.931,317.793,361.931z" fill="#d7deed"/><path d="M370.759,256H203.034c-4.875,0-8.828-3.953-8.828-8.828l0,0c0-4.875,3.953-8.828,8.828-8.828   h167.724c4.875,0,8.828,3.953,8.828,8.828l0,0C379.586,252.047,375.634,256,370.759,256z" fill="#d7deed"/></g><circle cx="317" cy="379" r="61" fill="#c3e678"/><path d="M344.276,423.724c-34.127,0-61.793-27.666-61.793-61.793c0-15.674,5.884-29.941,15.5-40.834  C273.585,329.359,256,352.396,256,379.586c0,34.127,27.666,61.793,61.793,61.793c18.454,0,34.97-8.132,46.293-20.959  C357.86,422.529,351.214,423.724,344.276,423.724z" fill="#a5d76e"/><path d="M308.966,414.897c-2.259,0-4.519-0.862-6.242-2.585l-26.483-26.483  c-3.448-3.447-3.448-9.036,0-12.483c3.447-3.447,9.036-3.447,12.483,0l20.242,20.239l37.896-37.896  c3.447-3.447,9.036-3.447,12.483,0c3.448,3.447,3.448,9.036,0,12.483l-44.138,44.138  C313.484,414.035,311.224,414.897,308.966,414.897z" fill="#ffffff"/></g><g transform="matrix(0.1171875 0 0 0.1171875 -25 59)" id="L1_12"><path d="M132.414,273.655c-64.249,0-78.854,69.988-79.448,147.096c-0.024,3.209,1.942,6.098,4.956,7.448  c10.321,4.623,23.936,8.292,37.899,10.676l72.969,0.038c14.05-2.383,27.743-6.067,38.116-10.713c3.014-1.351,4.98-4.239,4.956-7.448  C211.267,343.644,196.663,273.655,132.414,273.655z" fill="#7d5a50"/><path d="M220.69,494.345v-11.114c0-9.504-5.092-18.279-13.344-22.994l-39.554-22.602  c-5.501-3.144-8.896-8.993-8.896-15.329v-16.237h-52.964v16.237c0,6.336-3.395,12.185-8.896,15.329l-39.553,22.602  c-8.252,4.715-13.344,13.49-13.344,22.994v11.114c0,9.751,7.904,17.655,17.655,17.655h141.241  C212.786,512,220.69,504.096,220.69,494.345z" fill="#d29b6e"/><path d="M176.552,344.276v46.798c0,9.302-4.881,17.922-12.857,22.709l-22.197,13.319  c-5.591,3.354-12.576,3.354-18.167,0l-22.197-13.319c-7.977-4.786-12.857-13.406-12.857-22.709v-46.798c0,0,52.966,0,70.621-17.655  L176.552,344.276z" fill="#f0c087"/><g><path d="M207.347,460.237l-25.77-14.726c-4.868,6.908-23.315,31.06-49.163,40.006   c-25.848-8.946-44.295-33.098-49.163-40.006l-25.769,14.726c-8.252,4.715-13.344,13.49-13.344,22.994v11.114   c0,9.751,7.904,17.655,17.655,17.655h141.241c9.751,0,17.655-7.904,17.655-17.655v-11.114   C220.69,473.727,215.597,464.952,207.347,460.237z" fill="#e4eaf6"/><path d="M264.828,44.138H52.966c-19.421,0-35.31,15.89-35.31,35.31v123.586   c0,19.421,15.89,35.31,35.31,35.31h114.759v33.482c0,3.933,4.755,5.901,7.534,3.121l36.604-36.602h52.966   c19.421,0,35.31-15.89,35.31-35.31V79.448C300.138,60.028,284.248,44.138,264.828,44.138z" fill="#e4eaf6"/></g><path d="M211.862,44.138v114.759c0,19.421,15.89,35.31,35.31,35.31h52.966v8.828  c0,3.066-0.532,5.99-1.283,8.828h-51.682c-29.205,0-52.966-23.761-52.966-52.966V44.138H211.862z" fill="#d7deed"/><path d="M176.552,123.586c0-29.207-23.758-52.966-52.966-52.966s-52.966,23.758-52.966,52.966v26.483  c0,29.207,23.758,52.966,52.966,52.966c11.422,0,21.981-3.67,30.642-9.842l7.255,7.255c1.725,1.725,3.982,2.586,6.241,2.586  s4.518-0.862,6.241-2.586c3.448-3.448,3.448-9.035,0-12.483l-7.255-7.255c6.172-8.66,9.842-19.219,9.842-30.641V123.586z   M151.896,165.897c-3.448-3.448-9.035-3.448-12.483,0s-3.448,9.035,0,12.483l1.997,1.997c-5.25,3.101-11.295,5.002-17.824,5.002  c-19.474,0-35.31-15.84-35.31-35.31v-26.483c0-19.47,15.837-35.31,35.31-35.31s35.31,15.84,35.31,35.31v26.483  c0,6.529-1.902,12.573-5.003,17.824L151.896,165.897z" fill="#707487"/><path d="M247.172,0h211.862c19.421,0,35.31,15.89,35.31,35.31v123.586c0,19.421-15.89,35.31-35.31,35.31  H344.276v33.482c0,3.933-4.755,5.901-7.534,3.121l-36.604-36.602h-52.966c-19.421,0-35.31-15.89-35.31-35.31V35.31  C211.862,15.89,227.752,0,247.172,0z" fill="#c3e678"/><path d="M468.333,443.763l-41.981-15.743c-6.891-2.584-11.456-10.73-11.456-18.089h-70.621  c0,7.359-4.565,15.505-11.456,18.089l-41.981,15.743c-10.336,3.876-17.184,13.758-17.184,24.797v25.785  c0,9.751,7.904,17.655,17.655,17.655h176.552c9.751,0,17.655-7.904,17.655-17.655v-25.785  C485.517,457.521,478.669,447.639,468.333,443.763z" fill="#d29b6e"/><path d="M468.333,443.763l-33.955-12.733l-43.489,36.241c-6.548,5.457-16.058,5.457-22.605,0l-43.489-36.241  l-33.955,12.733c-10.336,3.876-17.184,13.758-17.184,24.797v25.785c0,9.751,7.904,17.655,17.655,17.655h176.552  c9.751,0,17.655-7.904,17.655-17.655v-25.785C485.517,457.521,478.669,447.639,468.333,443.763z" fill="#c3e678"/><path d="M438.869,302.487l-5.508,82.624c-0.513,7.701-4.361,14.794-10.535,19.425l-18.522,13.891  c-4.584,3.438-10.159,5.297-15.89,5.297h-17.655c-5.73,0-11.306-1.858-15.89-5.297l-18.522-13.892  c-6.174-4.63-10.022-11.724-10.535-19.425l-5.508-82.624c-1.358-20.38,14.807-37.659,35.232-37.659h48.1  C424.062,264.828,440.227,282.106,438.869,302.487z" fill="#f0c087"/><path d="M444.724,346.646c-4.759-0.401-9.078,3.358-9.397,8.22c-0.887,13.401-12.991,24.721-26.422,24.721  h-29.319v17.655h29.319c22.776,0,42.526-18.483,44.043-41.203C453.267,351.172,449.587,346.969,444.724,346.646z" fill="#5b5d6e"/><path d="M403.636,264.828h-48.1c-20.426,0-36.591,17.279-35.232,37.658l2.196,32.941  c3.036-0.209,78.753-5.652,115.833-24.909l0.535-8.032C440.227,282.106,424.063,264.828,403.636,264.828z" fill="#5a4146"/><circle cx="379" cy="388" r="8" fill="#707487"/><path d="M405.845,148.082L382.517,47.017c-2.784-12.09-13.396-20.534-25.802-20.534h-7.224  c-12.405,0-23.017,8.444-25.802,20.526l-23.328,101.074c-1.095,4.755,1.87,9.492,6.621,10.591c4.75,1.069,9.483-1.866,10.586-6.616  l6.571-28.471h57.929l6.571,28.47c0.948,4.082,4.577,6.845,8.595,6.84c0.655,0,1.327-0.073,1.992-0.224  C403.975,157.574,406.94,152.836,405.845,148.082z M328.214,105.931l12.683-54.957c0.922-4.025,4.457-6.836,8.595-6.836h7.224  c4.138,0,7.672,2.81,8.595,6.845l12.682,54.948H328.214z" fill="#ffffff"/></g><g transform="matrix(0.1171872690320015 0 0 0.1171872690320015 214 202)" id="L1_13"><path d="M238.346,472.276 512.001,39.725 264.829,357.517z" fill="#c7cfe2"/><path d="M141.243,357.517 238.346,472.276 264.829,357.517 512.001,39.725z" fill="#d7deed"/><g><path d="M264.829,357.517l196.651,73.744c7.649,2.868,15.926-2.34,16.65-10.477l33.871-381.06   L264.829,357.517z" fill="#e4eaf6"/><path d="M141.243,357.517L4.951,395.377c-4.236,1.176-6.865-4.477-3.234-6.957L512.001,39.725   L141.243,357.517z" fill="#e4eaf6"/></g></g><g transform="matrix(0.1171872690320015 0 0 0.1171872690320015 21 261.00000137328834)" id="L1_14"><g><rect x="176px" y="132px" width="35px" height="35px" fill="#d2555a"/><rect x="300px" y="132px" width="35px" height="35px" fill="#d2555a"/></g><path d="M353.103,215.09v-42.406c0-4.434-3.284-8.239-7.678-8.834c-59.35-8.024-119.502-8.024-178.852,0  c-4.394,0.594-7.678,4.401-7.678,8.834v42.402c0,8.995-4.567,17.377-12.126,22.253l-20.639,13.315  c-14.042,9.059-23.817,23.42-27.094,39.807l-19.588,97.952h353.103l-19.585-97.941c-3.276-16.384-13.047-30.742-27.086-39.802  l-20.654-13.33C357.668,232.464,353.103,224.084,353.103,215.09z" fill="#ff6464"/><path d="M414.897,423.725H97.103c-9.751,0-17.655-7.904-17.655-17.655v-17.655h353.103v17.655  C432.552,415.821,424.648,423.725,414.897,423.725z" fill="#d2555a"/><path d="M256,88.276c-141.385,0-256,42.499-256,94.924v40.228c0,15.616,16.399,26.975,33.082,22.915  l87.938-21.398c11.868-2.888,20.222-13.517,20.222-25.732v-34.084c0-8.676,6.287-16.183,14.866-17.481  c66.218-10.023,133.568-10.023,199.786,0c8.578,1.299,14.866,8.806,14.866,17.481v34.084c0,12.214,8.353,22.844,20.222,25.732  l87.937,21.398c16.684,4.06,33.082-7.299,33.082-22.915v-40.228C512,130.776,397.385,88.276,256,88.276z" fill="#ff6464"/><g><path d="M141.241,177.221L0,212.11v11.319c0,15.615,16.399,26.975,33.082,22.915l87.938-21.398   c11.868-2.888,20.222-13.517,20.222-25.732v-21.993H141.241z" fill="#d2555a"/><path d="M370.759,177.741v21.473c0,12.214,8.353,22.844,20.222,25.732l87.938,21.398   c16.683,4.06,33.081-7.299,33.082-22.915v-11.318L370.759,177.741z" fill="#d2555a"/></g><circle cx="256" cy="273" r="88" fill="#d7deed"/><circle cx="256" cy="273" r="61" fill="#b8bfd4"/><g><circle cx="256" cy="273" r="44" fill="#ffffff"/><circle cx="256" cy="207" r="13" fill="#ffffff"/><circle cx="256" cy="339" r="13" fill="#ffffff"/></g><path d="M312.945,299.923l-0.987,1.632c-1.212,2.005-0.734,4.598,1.111,6.04l25.945,20.282  c2.187,1.709,5.376,1.123,6.812-1.252l5.063-8.378c1.436-2.376,0.471-5.472-2.059-6.613l-30.023-13.536  C316.674,297.135,314.156,297.919,312.945,299.923z" fill="#959cb3"/><g><circle cx="189" cy="273" r="13" fill="#ffffff"/><circle cx="222" cy="330" r="13" fill="#ffffff"/><circle cx="289" cy="216" r="13" fill="#ffffff"/><circle cx="198" cy="240" r="13" fill="#ffffff"/><circle cx="289" cy="330" r="13" fill="#ffffff"/><circle cx="222" cy="216" r="13" fill="#ffffff"/><circle cx="198" cy="306" r="13" fill="#ffffff"/></g></g><g transform="matrix(0.1171875 0 0 0.1171875 165 276)" id="L1_15"><path d="M429.402,374.857c-2.641,0-5.259-1.137-7.067-3.335c-3.208-3.899-2.646-9.662,1.254-12.869  c44.566-36.654,70.126-90.731,70.126-148.368c0-105.87-86.13-192-192-192c-62.395,0-121.122,30.501-157.098,81.589  c-2.907,4.129-8.611,5.119-12.739,2.211c-4.128-2.907-5.119-8.611-2.211-12.739C169.062,33.401,233.378,0,301.714,0  C417.666,0,512,94.334,512,210.286c0,63.125-27.991,122.351-76.795,162.49C433.503,374.175,431.446,374.857,429.402,374.857z" fill="#e4eaf6"/><path d="M433.826,417.761l-114.225-65.767c-11.083-6.381-25.069-4.531-34.112,4.512l-22.498,22.498  c-8.672,8.672-22.48,9.459-32.034,1.771c-17.64-14.194-35.271-29.989-52.507-47.225s-33.031-34.867-47.225-52.507  c-7.688-9.554-6.901-23.362,1.771-32.034l22.498-22.498c9.042-9.042,10.893-23.029,4.512-34.111L94.239,78.174  c-9.286-16.129-31.35-19.047-44.51-5.887l-33.902,33.902c-44.182,44.182,7.304,167.298,114.995,274.989  s230.808,159.177,274.989,114.995l33.902-33.902C452.873,449.111,449.956,427.047,433.826,417.761z" fill="#ff6464"/><g><path d="M40.191,81.825l94.995,164.993l20.307-20.307c9.042-9.042,10.893-23.029,4.511-34.111L94.239,78.174   c-9.287-16.128-31.35-19.047-44.511-5.887L40.191,81.825z" fill="#d2555a"/><path d="M430.175,471.809l9.538-9.538c13.16-13.16,10.241-35.224-5.887-44.51l-114.225-65.767   c-11.083-6.381-25.069-4.531-34.112,4.512l-20.837,20.835L430.175,471.809z" fill="#d2555a"/></g><g><path d="M402.286,228.572h-9.143v-91.429c0-5.049-4.094-9.143-9.143-9.143s-9.143,4.094-9.143,9.143v91.429   h-43.902l16.326-89.793c0.903-4.968-2.392-9.728-7.36-10.631c-4.969-0.905-9.729,2.392-10.631,7.36l-18.286,100.571   c-0.485,2.667,0.239,5.413,1.976,7.494c1.737,2.081,4.309,3.285,7.019,3.285h54.857v18.286c0,5.049,4.094,9.143,9.143,9.143   s9.143-4.094,9.143-9.143v-18.286h9.143c5.049,0,9.143-4.094,9.143-9.143C411.429,232.665,407.335,228.572,402.286,228.572z" fill="#ff6464"/><path d="M292.572,274.286h-73.143c-5.049,0-9.143-4.094-9.143-9.143c0-27.973,21.231-40.45,39.963-51.459   c17.803-10.463,33.179-19.499,33.179-39.969c0-15.123-12.305-27.429-27.429-27.429c-15.123,0-27.429,12.305-27.429,27.429   c0,5.049-4.094,9.143-9.143,9.143c-5.049,0-9.143-4.094-9.143-9.143C210.286,148.508,230.793,128,256,128   s45.714,20.507,45.714,45.714c0,30.933-23.399,44.685-42.2,55.734c-15.294,8.989-25.869,15.741-29.528,26.552h62.585   c5.049,0,9.143,4.094,9.143,9.143S297.621,274.286,292.572,274.286z" fill="#ff6464"/></g><path d="M420.572,384c-2.401,0-4.734-0.946-6.465-2.678c-2.161-2.161-3.099-5.261-2.501-8.258l9.143-45.714  c0.991-4.951,5.803-8.16,10.759-7.173c4.951,0.991,8.162,5.807,7.171,10.759l-6.453,32.266l32.265-6.453  c4.951-0.992,9.769,2.221,10.759,7.173c0.99,4.952-2.221,9.768-7.171,10.759l-45.714,9.143C421.768,383.942,421.168,384,420.572,384  z" fill="#e4eaf6"/><g><path d="M301.714,73.143c-5.049,0-9.143-4.094-9.143-9.143V45.714c0-5.049,4.094-9.143,9.143-9.143   c5.049,0,9.143,4.094,9.143,9.143V64C310.857,69.049,306.764,73.143,301.714,73.143z" fill="#afb9d2"/><path d="M466.286,219.429H448c-5.049,0-9.143-4.094-9.143-9.143c0-5.049,4.094-9.143,9.143-9.143h18.286   c5.049,0,9.143,4.094,9.143,9.143C475.429,215.335,471.335,219.429,466.286,219.429z" fill="#afb9d2"/></g><g><path d="M379.42,84.825c-1.551,0-3.122-0.395-4.562-1.226c-4.373-2.525-5.872-8.117-3.346-12.489   l4.571-7.918c2.525-4.374,8.117-5.873,12.489-3.346c4.373,2.525,5.872,8.117,3.346,12.489l-4.571,7.918   C385.653,83.185,382.579,84.825,379.42,84.825z" fill="#e4eaf6"/><path d="M224.009,84.825c-3.161,0-6.233-1.64-7.927-4.573l-4.571-7.918   c-2.526-4.373-1.026-9.965,3.346-12.489c4.376-2.525,9.965-1.024,12.489,3.346l4.571,7.918c2.526,4.373,1.026,9.965-3.346,12.489   C227.132,84.43,225.559,84.825,224.009,84.825z" fill="#e4eaf6"/><path d="M167.101,141.716c-1.551,0-3.122-0.395-4.562-1.226l-7.919-4.571   c-4.373-2.525-5.872-8.117-3.347-12.489c2.526-4.374,8.117-5.873,12.49-3.346l7.919,4.571c4.373,2.525,5.872,8.117,3.347,12.489   C173.334,140.076,170.261,141.716,167.101,141.716z" fill="#e4eaf6"/><path d="M444.228,301.716c-1.551,0-3.122-0.395-4.562-1.226l-7.918-4.571   c-4.373-2.525-5.872-8.117-3.346-12.489c2.523-4.374,8.115-5.872,12.489-3.346l7.918,4.571c4.373,2.525,5.872,8.117,3.346,12.489   C450.461,300.076,447.388,301.716,444.228,301.716z" fill="#e4eaf6"/><path d="M436.328,141.716c-3.161,0-6.233-1.64-7.927-4.573c-2.526-4.373-1.026-9.965,3.346-12.489   l7.918-4.571c4.375-2.526,9.966-1.026,12.489,3.346c2.526,4.373,1.026,9.965-3.346,12.489l-7.918,4.571   C439.452,141.32,437.879,141.716,436.328,141.716z" fill="#e4eaf6"/></g></g></defs><g fi:class="KUsePattern"><pattern id="pattern_L1_2" width="350" height="350" patternUnits="userSpaceOnUse"><use xlink:href="#L1_2" x="-350" y="-350"/><use xlink:href="#L1_2" x="0" y="-350"/><use xlink:href="#L1_2" x="350" y="-350"/><use xlink:href="#L1_2" x="-350" y="0"/><use xlink:href="#L1_2" x="0" y="0"/><use xlink:href="#L1_2" x="350" y="0"/><use xlink:href="#L1_2" x="-350" y="350"/><use xlink:href="#L1_2" x="0" y="350"/><use xlink:href="#L1_2" x="350" y="350"/></pattern><rect x="0" y="0" width="100%" height="100%" fill="url(#pattern_L1_2)"/></g><g fi:class="KUsePattern"><pattern id="pattern_L1_3" width="350" height="350" patternUnits="userSpaceOnUse"><use xlink:href="#L1_3" x="-350" y="-350"/><use xlink:href="#L1_3" x="0" y="-350"/><use xlink:href="#L1_3" x="350" y="-350"/><use xlink:href="#L1_3" x="-350" y="0"/><use xlink:href="#L1_3" x="0" y="0"/><use xlink:href="#L1_3" x="350" y="0"/><use xlink:href="#L1_3" x="-350" y="350"/><use xlink:href="#L1_3" x="0" y="350"/><use xlink:href="#L1_3" x="350" y="350"/></pattern><rect x="0" y="0" width="100%" height="100%" fill="url(#pattern_L1_3)"/></g><g fi:class="KUsePattern"><pattern id="pattern_L1_4" width="350" height="350" patternUnits="userSpaceOnUse"><use xlink:href="#L1_4" x="-350" y="-350"/><use xlink:href="#L1_4" x="0" y="-350"/><use xlink:href="#L1_4" x="350" y="-350"/><use xlink:href="#L1_4" x="-350" y="0"/><use xlink:href="#L1_4" x="0" y="0"/><use xlink:href="#L1_4" x="350" y="0"/><use xlink:href="#L1_4" x="-350" y="350"/><use xlink:href="#L1_4" x="0" y="350"/><use xlink:href="#L1_4" x="350" y="350"/></pattern><rect x="0" y="0" width="100%" height="100%" fill="url(#pattern_L1_4)"/></g><g fi:class="KUsePattern"><pattern id="pattern_L1_5" width="350" height="350" patternUnits="userSpaceOnUse"><use xlink:href="#L1_5" x="-350" y="-350"/><use xlink:href="#L1_5" x="0" y="-350"/><use xlink:href="#L1_5" x="350" y="-350"/><use xlink:href="#L1_5" x="-350" y="0"/><use xlink:href="#L1_5" x="0" y="0"/><use xlink:href="#L1_5" x="350" y="0"/><use xlink:href="#L1_5" x="-350" y="350"/><use xlink:href="#L1_5" x="0" y="350"/><use xlink:href="#L1_5" x="350" y="350"/></pattern><rect x="0" y="0" width="100%" height="100%" fill="url(#pattern_L1_5)"/></g><g fi:class="KUsePattern"><pattern id="pattern_L1_7" width="350" height="350" patternUnits="userSpaceOnUse"><use xlink:href="#L1_7" x="-350" y="-350"/><use xlink:href="#L1_7" x="0" y="-350"/><use xlink:href="#L1_7" x="350" y="-350"/><use xlink:href="#L1_7" x="-350" y="0"/><use xlink:href="#L1_7" x="0" y="0"/><use xlink:href="#L1_7" x="350" y="0"/><use xlink:href="#L1_7" x="-350" y="350"/><use xlink:href="#L1_7" x="0" y="350"/><use xlink:href="#L1_7" x="350" y="350"/></pattern><rect x="0" y="0" width="100%" height="100%" fill="url(#pattern_L1_7)"/></g><g fi:class="KUsePattern"><pattern id="pattern_L1_8" width="350" height="350" patternUnits="userSpaceOnUse"><use xlink:href="#L1_8" x="-350" y="-350"/><use xlink:href="#L1_8" x="0" y="-350"/><use xlink:href="#L1_8" x="350" y="-350"/><use xlink:href="#L1_8" x="-350" y="0"/><use xlink:href="#L1_8" x="0" y="0"/><use xlink:href="#L1_8" x="350" y="0"/><use xlink:href="#L1_8" x="-350" y="350"/><use xlink:href="#L1_8" x="0" y="350"/><use xlink:href="#L1_8" x="350" y="350"/></pattern><rect x="0" y="0" width="100%" height="100%" fill="url(#pattern_L1_8)"/></g><g fi:class="KUsePattern"><pattern id="pattern_L1_9" width="350" height="350" patternUnits="userSpaceOnUse"><use xlink:href="#L1_9" x="-350" y="-350"/><use xlink:href="#L1_9" x="0" y="-350"/><use xlink:href="#L1_9" x="350" y="-350"/><use xlink:href="#L1_9" x="-350" y="0"/><use xlink:href="#L1_9" x="0" y="0"/><use xlink:href="#L1_9" x="350" y="0"/><use xlink:href="#L1_9" x="-350" y="350"/><use xlink:href="#L1_9" x="0" y="350"/><use xlink:href="#L1_9" x="350" y="350"/></pattern><rect x="0" y="0" width="100%" height="100%" fill="url(#pattern_L1_9)"/></g><g fi:class="KUsePattern"><pattern id="pattern_L1_10" width="350" height="350" patternUnits="userSpaceOnUse"><use xlink:href="#L1_10" x="-350" y="-350"/><use xlink:href="#L1_10" x="0" y="-350"/><use xlink:href="#L1_10" x="350" y="-350"/><use xlink:href="#L1_10" x="-350" y="0"/><use xlink:href="#L1_10" x="0" y="0"/><use xlink:href="#L1_10" x="350" y="0"/><use xlink:href="#L1_10" x="-350" y="350"/><use xlink:href="#L1_10" x="0" y="350"/><use xlink:href="#L1_10" x="350" y="350"/></pattern><rect x="0" y="0" width="100%" height="100%" fill="url(#pattern_L1_10)"/></g><g fi:class="KUsePattern"><pattern id="pattern_L1_11" width="350" height="350" patternUnits="userSpaceOnUse"><use xlink:href="#L1_11" x="-350" y="-350"/><use xlink:href="#L1_11" x="0" y="-350"/><use xlink:href="#L1_11" x="350" y="-350"/><use xlink:href="#L1_11" x="-350" y="0"/><use xlink:href="#L1_11" x="0" y="0"/><use xlink:href="#L1_11" x="350" y="0"/><use xlink:href="#L1_11" x="-350" y="350"/><use xlink:href="#L1_11" x="0" y="350"/><use xlink:href="#L1_11" x="350" y="350"/></pattern><rect x="0" y="0" width="100%" height="100%" fill="url(#pattern_L1_11)"/></g><g fi:class="KUsePattern"><pattern id="pattern_L1_12" width="350" height="350" patternUnits="userSpaceOnUse"><use xlink:href="#L1_12" x="-350" y="-350"/><use xlink:href="#L1_12" x="0" y="-350"/><use xlink:href="#L1_12" x="350" y="-350"/><use xlink:href="#L1_12" x="-350" y="0"/><use xlink:href="#L1_12" x="0" y="0"/><use xlink:href="#L1_12" x="350" y="0"/><use xlink:href="#L1_12" x="-350" y="350"/><use xlink:href="#L1_12" x="0" y="350"/><use xlink:href="#L1_12" x="350" y="350"/></pattern><rect x="0" y="0" width="100%" height="100%" fill="url(#pattern_L1_12)"/></g><g fi:class="KUsePattern"><pattern id="pattern_L1_13" width="350" height="350" patternUnits="userSpaceOnUse"><use xlink:href="#L1_13" x="-350" y="-350"/><use xlink:href="#L1_13" x="0" y="-350"/><use xlink:href="#L1_13" x="350" y="-350"/><use xlink:href="#L1_13" x="-350" y="0"/><use xlink:href="#L1_13" x="0" y="0"/><use xlink:href="#L1_13" x="350" y="0"/><use xlink:href="#L1_13" x="-350" y="350"/><use xlink:href="#L1_13" x="0" y="350"/><use xlink:href="#L1_13" x="350" y="350"/></pattern><rect x="0" y="0" width="100%" height="100%" fill="url(#pattern_L1_13)"/></g><g fi:class="KUsePattern"><pattern id="pattern_L1_14" width="350" height="350" patternUnits="userSpaceOnUse"><use xlink:href="#L1_14" x="-350" y="-350"/><use xlink:href="#L1_14" x="0" y="-350"/><use xlink:href="#L1_14" x="350" y="-350"/><use xlink:href="#L1_14" x="-350" y="0"/><use xlink:href="#L1_14" x="0" y="0"/><use xlink:href="#L1_14" x="350" y="0"/><use xlink:href="#L1_14" x="-350" y="350"/><use xlink:href="#L1_14" x="0" y="350"/><use xlink:href="#L1_14" x="350" y="350"/></pattern><rect x="0" y="0" width="100%" height="100%" fill="url(#pattern_L1_14)"/></g><g fi:class="KUsePattern"><pattern id="pattern_L1_15" width="350" height="350" patternUnits="userSpaceOnUse"><use xlink:href="#L1_15" x="-350" y="-350"/><use xlink:href="#L1_15" x="0" y="-350"/><use xlink:href="#L1_15" x="350" y="-350"/><use xlink:href="#L1_15" x="-350" y="0"/><use xlink:href="#L1_15" x="0" y="0"/><use xlink:href="#L1_15" x="350" y="0"/><use xlink:href="#L1_15" x="-350" y="350"/><use xlink:href="#L1_15" x="0" y="350"/><use xlink:href="#L1_15" x="350" y="350"/></pattern><rect x="0" y="0" width="100%" height="100%" fill="url(#pattern_L1_15)"/></g></svg>