<?xml version="1.0" encoding="iso-8859-1"?>
<!-- Generator: Adobe Illustrator 19.0.0, SVG Export Plug-In . SVG Version: 6.00 Build 0)  -->
<svg version="1.1" id="Capa_1" xmlns="http://www.w3.org/2000/svg" xmlns:xlink="http://www.w3.org/1999/xlink" x="0px" y="0px"
	 viewBox="0 0 518.431 518.431" style="enable-background:new 0 0 518.431 518.431;" xml:space="preserve">
<g>
	<path style="fill:#FFFFFF;" d="M332.8,388.015h-176c-13.6-25.6-40.8-43.2-71.2-43.2c-31.2,0-57.6,17.6-71.2,43.2H104v76H14.4
		c12.8,25.6,40,43.2,71.2,43.2s57.6-17.6,71.2-43.2h176.8c20.8,0,38.4-16.8,38.4-38.4l0,0
		C371.2,404.815,354.4,388.015,332.8,388.015z"/>
	<polygon style="fill:#FFFFFF;" points="440,302.415 477.6,302.415 477.6,112.015 496.8,96.815 476.8,11.215 439.2,11.215 
		420,96.815 439.2,112.015 	"/>
</g>
<path style="fill:#D3D7DA;" d="M420,328.815c6.4,6.4,10.4,13.6,11.2,22.4c0,1.6,0,2.4,0,4c0,12-5.6,22.4-13.6,29.6v2.4v80
	c0,22.4,18.4,40.8,40.8,40.8l0,0c22.4,0,40.8-18.4,40.8-40.8v-80v-2.4c-8-6.4-13.6-17.6-13.6-29.6c0-1.6,0-2.4,0-4
	c0.8-8.8,5.6-16.8,11.2-22.4l9.6-9.6c6.4-6.4,1.6-17.6-7.2-17.6h-81.6c-9.6,0-13.6,11.2-7.2,17.6L420,328.815z"/>
<path style="fill:#FFFFFF;" d="M308.8,158.415c0-80.8-65.6-147.2-147.2-147.2s-148,66.4-148,147.2c0,81.6,66.4,147.2,147.2,147.2
	v-147.2H308.8z"/>
<path style="fill:#2EA2DB;" d="M129.6,269.615c-48-13.6-84-58.4-84-111.2c0-64,52-115.2,115.2-115.2c52.8,0,96.8,35.2,111.2,83.2
	H129.6V269.615z"/>
<path style="fill:#FFFFFF;" d="M346.4,196.015H199.2v147.2C280,344.015,346.4,277.615,346.4,196.015z"/>
<g>
	<path style="fill:#193651;" d="M332.8,380.015h-172c-16-26.4-44.8-43.2-76-43.2c-32.8,0-63.2,18.4-78.4,47.2l-6.4,12h94.4v60H0
		l6.4,12c15.2,28.8,45.6,47.2,78.4,47.2c31.2,0,60-16,76-43.2h172c25.6,0,46.4-20.8,46.4-46.4S358.4,380.015,332.8,380.015z
		 M332.8,456.015H151.2l-2.4,4c-12.8,24-37.6,38.4-64,38.4c-22.4,0-43.2-10.4-56.8-27.2h82.4v-92H28c13.6-16.8,34.4-27.2,56.8-27.2
		c27.2,0,52,15.2,64,38.4l2.4,4H332c16.8,0,30.4,13.6,30.4,30.4S349.6,456.015,332.8,456.015z"/>
	<path style="fill:#193651;" d="M503.2,335.215l9.6-9.6c5.6-5.6,7.2-12.8,4-20s-9.6-11.2-16.8-11.2h-13.6v-178.4l20-16l-23.2-96.8
		h-50.4l-21.6,96.8l20.8,16v177.6h-14.4c-7.2,0-14.4,4.8-16.8,11.2c-3.2,7.2-1.6,14.4,4,20l9.6,9.6c5.6,5.6,8.8,11.2,8.8,17.6
		c0,0.8,0,1.6,0,3.2c0,8.8-4,17.6-10.4,23.2l-3.2,2.4v85.6c0,26.4,21.6,48.8,48.8,48.8c12.8,0,24.8-4.8,34.4-14.4
		c8.8-8.8,14.4-21.6,14.4-34.4v-85.6l-3.2-2.4c-6.4-5.6-10.4-13.6-10.4-23.2c0-0.8,0-1.6,0-3.2
		C494.4,346.415,497.6,340.015,503.2,335.215z M428.8,93.615l16.8-74.4h24.8l17.6,74.4l-18.4,14.4v185.6H448v-185.6L428.8,93.615z
		 M492,323.215c-8,8-12.8,17.6-13.6,27.2c0,1.6,0,3.2,0,4.8c0,12.8,4.8,24,13.6,32.8v78.4c0,8.8-3.2,16.8-9.6,23.2
		c-7.2,6.4-15.2,9.6-24,9.6c-17.6,0-32.8-14.4-32.8-32.8v-78.4c8.8-8.8,13.6-20,13.6-32.8c0-1.6,0-3.2,0-4.8
		c-0.8-9.6-5.6-20-13.6-27.2l-9.6-9.6c-0.8-0.8-0.8-1.6-0.8-2.4s0.8-1.6,2.4-1.6h81.6c1.6,0,1.6,0.8,2.4,1.6c0,0.8,0.8,1.6-0.8,2.4
		L492,323.215z"/>
	<path style="fill:#193651;" d="M161.6,314.415h8v-148h147.2v-8c0-41.6-16-80.8-45.6-110.4c-28.8-28.8-68-44.8-109.6-44.8
		c-85.6,0-156,69.6-156,155.2S76,314.415,161.6,314.415z M161.6,19.215c37.6,0,72,14.4,98.4,40.8c24.8,24.8,38.4,56.8,40.8,90.4
		H153.6v147.2c-73.6-4-132-64.8-132-139.2C21.6,81.615,84.8,19.215,161.6,19.215z"/>
	<path style="fill:#193651;" d="M190.4,352.015h8c85.6,0,155.2-69.6,155.2-155.2v-8H190.4V352.015z M206.4,204.015h131.2
		c-4,70.4-60.8,127.2-131.2,131.2L206.4,204.015L206.4,204.015z"/>
</g>
<path style="fill:#F16051;" d="M230.4,228.015h79.2c-11.2,38.4-40.8,68-79.2,79.2L230.4,228.015L230.4,228.015z"/>
<g>
	<rect x="196.8" y="418.42" style="fill:#193651;" width="16" height="16"/>
	<rect x="244" y="418.42" style="fill:#193651;" width="16" height="16"/>
	<rect x="291.2" y="418.42" style="fill:#193651;" width="16" height="16"/>
</g>
<g>
</g>
<g>
</g>
<g>
</g>
<g>
</g>
<g>
</g>
<g>
</g>
<g>
</g>
<g>
</g>
<g>
</g>
<g>
</g>
<g>
</g>
<g>
</g>
<g>
</g>
<g>
</g>
<g>
</g>
</svg>
