<?xml version="1.0" encoding="iso-8859-1"?>
<!-- Generator: Adobe Illustrator 19.0.0, SVG Export Plug-In . SVG Version: 6.00 Build 0)  -->
<svg version="1.1" id="Capa_1" xmlns="http://www.w3.org/2000/svg" xmlns:xlink="http://www.w3.org/1999/xlink" x="0px" y="0px"
	 viewBox="0 0 480 480" style="enable-background:new 0 0 480 480;" xml:space="preserve">
<path style="fill:#5EA7A4;" d="M352,152h112v-48H352V152z M432,120h16v16h-16V120z M400,120h16v16h-16V120z M368,120h16v16h-16V120z
	"/>
<g>
	<circle style="fill:#F8CF26;" cx="120" cy="72" r="8"/>
	<circle style="fill:#F8CF26;" cx="48" cy="192" r="16"/>
	<circle style="fill:#F8CF26;" cx="56" cy="72" r="8"/>
</g>
<path style="fill:#3FE7EF;" d="M24,128h192c4.408,0,8-3.592,8-8V24c0-4.408-3.592-8-8-8H24c-4.408,0-8,3.592-8,8v96
	C16,124.408,19.592,128,24,128z M184,48c13.232,0,24,10.768,24,24s-10.768,24-24,24s-24-10.768-24-24S170.768,48,184,48z M120,48
	c13.232,0,24,10.768,24,24s-10.768,24-24,24S96,85.232,96,72S106.768,48,120,48z M56,48c13.232,0,24,10.768,24,24S69.232,96,56,96
	S32,85.232,32,72S42.768,48,56,48z"/>
<g>
	<circle style="fill:#F8CF26;" cx="184" cy="72" r="8"/>
	<path style="fill:#F8CF26;" d="M136,232v208c0,13.232,10.768,24,24,24h160c13.232,0,24-10.768,24-24V232c0-13.232-10.768-24-24-24
		H160C146.768,208,136,218.768,136,232z M248,440h-16v-16h16V440z M264,296h48v16h-48V296z M264,392v16h-40c-4.416,0-8-3.584-8-8
		v-72h16v64H264z M168,296h48v16h-48V296z"/>
	<circle style="fill:#F8CF26;" cx="80" cy="256" r="8"/>
</g>
<path d="M320,192H160c-22.056,0-40,17.944-40,40v208c0,22.056,17.944,40,40,40h160c22.056,0,40-17.944,40-40V232
	C360,209.944,342.056,192,320,192z M344,440c0,13.232-10.768,24-24,24H160c-13.232,0-24-10.768-24-24V232c0-13.232,10.768-24,24-24
	h160c13.232,0,24,10.768,24,24V440z"/>
<path d="M56,96c13.232,0,24-10.768,24-24S69.232,48,56,48S32,58.768,32,72S42.768,96,56,96z M56,64c4.408,0,8,3.592,8,8
	s-3.592,8-8,8s-8-3.592-8-8S51.592,64,56,64z"/>
<path d="M120,96c13.232,0,24-10.768,24-24s-10.768-24-24-24S96,58.768,96,72S106.768,96,120,96z M120,64c4.408,0,8,3.592,8,8
	s-3.592,8-8,8s-8-3.592-8-8S115.592,64,120,64z"/>
<path d="M184,96c13.232,0,24-10.768,24-24s-10.768-24-24-24s-24,10.768-24,24S170.768,96,184,96z M184,64c4.408,0,8,3.592,8,8
	s-3.592,8-8,8s-8-3.592-8-8S179.592,64,184,64z"/>
<path d="M216,144c13.232,0,24-10.768,24-24V24c0-13.232-10.768-24-24-24H24C10.768,0,0,10.768,0,24v96c0,13.232,10.768,24,24,24H216
	z M16,120V24c0-4.408,3.592-8,8-8h192c4.408,0,8,3.592,8,8v96c0,4.408-3.592,8-8,8H24C19.592,128,16,124.408,16,120z"/>
<path d="M472,88H344c-4.416,0-8,3.584-8,8v64c0,4.416,3.584,8,8,8h128c4.416,0,8-3.584,8-8V96C480,91.584,476.416,88,472,88z
	 M464,152H352v-48h112V152z"/>
<rect x="368" y="120" width="16" height="16"/>
<rect x="400" y="120" width="16" height="16"/>
<rect x="432" y="120" width="16" height="16"/>
<rect x="168" y="296" width="48" height="16"/>
<rect x="264" y="296" width="48" height="16"/>
<path d="M232,328h-16v72c0,4.416,3.584,8,8,8h40v-16h-32V328z"/>
<rect x="232" y="424" width="16" height="16"/>
<g>
	<rect x="280" y="16" style="fill:#E0634B;" width="80" height="16"/>
	<rect x="280" y="48" style="fill:#E0634B;" width="16" height="16"/>
	<rect x="312" y="48" style="fill:#E0634B;" width="48" height="16"/>
	<rect x="440" y="184" style="fill:#E0634B;" width="16" height="16"/>
	<rect x="440" y="216" style="fill:#E0634B;" width="16" height="16"/>
	<rect x="440" y="248" style="fill:#E0634B;" width="16" height="16"/>
	<rect x="408" y="248" style="fill:#E0634B;" width="16" height="16"/>
	<rect x="376" y="248" style="fill:#E0634B;" width="16" height="16"/>
</g>
<path d="M80,232c-13.232,0-24,10.768-24,24s10.768,24,24,24s24-10.768,24-24S93.232,232,80,232z M80,264c-4.408,0-8-3.592-8-8
	s3.592-8,8-8s8,3.592,8,8S84.408,264,80,264z"/>
<path d="M80,192c0-17.648-14.352-32-32-32s-32,14.352-32,32s14.352,32,32,32S80,209.648,80,192z M48,208c-8.824,0-16-7.176-16-16
	s7.176-16,16-16s16,7.176,16,16S56.824,208,48,208z"/>
<g>
</g>
<g>
</g>
<g>
</g>
<g>
</g>
<g>
</g>
<g>
</g>
<g>
</g>
<g>
</g>
<g>
</g>
<g>
</g>
<g>
</g>
<g>
</g>
<g>
</g>
<g>
</g>
<g>
</g>
</svg>
