<svg xmlns="http://www.w3.org/2000/svg" xmlns:xlink="http://www.w3.org/1999/xlink" xmlns:fi="http://pattern.flaticon.com/" x="0" y="0" width="700" height="350" viewBox="0 0 700 350"><rect x="0px" y="0px" width="100%" height="100%" opacity="1" fill="#55ff83"/><defs><g transform="matrix(0.20202019810676575 0 0 0.20202019810676575 170 304)" id="L1_0"><path d="m159.211,246.527c37.983,0 68.885-30.901 68.885-68.884 0-41.201-54.224-114.688-60.406-122.932-2.002-2.669-5.143-4.239-8.479-4.239-3.335,0-6.475,1.57-8.477,4.239-6.183,8.244-60.406,81.73-60.406,122.932-0.001,37.983 30.9,68.884 68.883,68.884zm-23.315-77.362c4.683,0 8.479,3.796 8.479,8.479 0,8.181 6.655,14.836 14.836,14.836 4.683,0 8.479,3.797 8.479,8.479 0,4.682-3.796,8.478-8.479,8.478-17.53,0-31.792-14.262-31.792-31.792-1.42109e-14-4.684 3.795-8.48 8.477-8.48z" fill="#34b9f5"/><path d="m159.211,10.683c-5.851,0-10.597,4.745-10.597,10.598 0,5.852 4.745,10.598 10.597,10.598 64.291,0 116.595,52.316 116.595,116.621s-52.304,116.621-116.595,116.621c-59.694,0-109.046-45.107-115.798-103.032l4.619,4.057c4.398,3.865 11.095,3.43 14.955-0.968 3.864-4.397 3.431-11.094-0.967-14.957l-23.784-20.89c-2.126-1.868-4.912-2.812-7.732-2.61-2.823,0.198-5.45,1.516-7.295,3.661l-20.645,23.996c-3.817,4.438-3.314,11.128 1.122,14.945 2.001,1.722 4.46,2.564 6.906,2.564 2.98,0 5.942-1.25 8.039-3.686l3.661-4.256c7.7,68.747 66.162,122.371 136.918,122.371 75.978,0 137.79-61.824 137.79-137.816s-61.812-137.817-137.789-137.817z" fill="#34b9f5"/><path d="m106.753,31.927h17.486c5.852,0 10.598-4.745 10.598-10.598s-4.745-10.598-10.598-10.598h-17.486c-5.852,0-10.597,4.745-10.597,10.598s4.745,10.598 10.597,10.598z" fill="#34b9f5"/><path d="m71.778,31.927c2.798,0 5.521-1.134 7.492-3.106 1.982-1.981 3.106-4.705 3.106-7.492s-1.124-5.522-3.106-7.493c-1.971-1.971-4.705-3.104-7.492-3.104-2.787,0-5.522,1.134-7.493,3.104-1.971,1.972-3.104,4.706-3.104,7.493s1.134,5.521 3.104,7.492c1.971,1.972 4.706,3.106 7.493,3.106z" fill="#34b9f5"/></g><g transform="matrix(0.20202019810676575 0 0 0.20202019810676575 151 75)" id="L1_1"><path d="m176.525,35.834c-2.796,2.795-2.796,7.326-0.001,10.121 2.796,2.795 7.327,2.795 10.121,0.001 6.068-6.068 15.94-6.068 22.009,0 1.396,1.396 3.229,2.096 5.06,2.096 1.832,0 3.664-0.699 5.061-2.097 2.794-2.795 2.794-7.326-0.001-10.121-11.647-11.647-30.601-11.647-42.249,0z" fill="#34b9f5"/><path d="m168.975,26.192c7.659-7.66 17.844-11.879 28.677-11.879 10.833,0 21.016,4.218 28.675,11.879 1.397,1.397 3.229,2.097 5.061,2.097 1.831,0 3.662-0.699 5.06-2.096 2.796-2.795 2.796-7.325 0.001-10.121-10.362-10.364-24.14-16.072-38.798-16.072-14.656,0-28.436,5.708-38.799,16.072-2.795,2.795-2.795,7.326 0.001,10.121 2.794,2.794 7.326,2.795 10.122-0.001z" fill="#34b9f5"/><path d="m45.24,215.21c-2.253,0-4.374,1.06-5.725,2.862-2.449,3.265-23.925,32.386-23.925,49.279 0.001,16.348 13.302,29.649 29.65,29.649 16.348,0 29.648-13.301 29.648-29.648 0-16.894-21.475-46.015-23.924-49.279-1.35-1.803-3.472-2.863-5.724-2.863z" fill="#34b9f5"/><path d="m197.649,68.478c-28.476,0-51.642,23.269-51.642,51.869s23.166,51.868 51.642,51.868c28.478,0 51.645-23.268 51.645-51.868s-23.167-51.869-51.645-51.869zm-7.156,19.203c0-3.952 3.204-7.157 7.156-7.157 3.953,0 7.157,3.205 7.157,7.157v32.678c0,3.953-3.204,7.157-7.157,7.157-3.952,0-7.156-3.204-7.156-7.157v-32.678zm7.154,72.519c-21.782,0-39.503-17.872-39.503-39.842 0-13.484 6.691-25.947 17.899-33.339 3.299-2.176 7.739-1.265 9.914,2.035 2.176,3.3 1.266,7.737-2.034,9.914-7.18,4.734-11.466,12.73-11.466,21.39 0,14.077 11.3,25.528 25.189,25.528 13.893,0 25.196-11.451 25.196-25.528 0-8.659-4.286-16.655-11.466-21.39-3.3-2.177-4.21-6.614-2.034-9.914 2.175-3.3 6.614-4.214 9.914-2.035 11.208,7.392 17.9,19.854 17.9,33.339 2.84217e-14,21.97-17.723,39.842-39.509,39.842z" fill="#34b9f5"/><path d="m138.56,90.991h-87.186c-24.805,0-44.984,20.181-44.984,44.984v63.388c0,3.953 3.204,7.156 7.157,7.156h67.476c3.952,0 7.156-3.203 7.156-7.156v-37.316c0-3.383 2.752-6.135 6.135-6.135h47.757c-6.557-10.28-10.377-22.48-10.377-35.565 0-10.539 2.481-20.503 6.866-29.356z" fill="#34b9f5"/><path d="m283.453,90.991h-26.712c4.386,8.853 6.866,18.816 6.866,29.355 0,13.085-3.82,25.285-10.377,35.565h30.223c3.953,0 7.157-3.204 7.157-7.156v-50.607c5.68434e-14-3.953-3.204-7.157-7.157-7.157z" fill="#34b9f5"/></g><g transform="matrix(0.1171875 0 0 0.1171875 74.99999978542326 -12)" id="L1_3"><rect x="44px" y="251px" width="280px" height="56px" fill="#4caf50"/><path d="M333.164,0h-28.833c-69.528,0-126.923,52.935-134.007,120.62c-0.001,0-0.003,0-0.004,0    c-52.85,6.4-95.02,47.97-102.34,100.54h233.21c-7.24-52.016-48.604-93.264-100.679-100.328C207.338,69.629,251.291,30,304.331,30    h28.833c57.757,0,104.746,46.989,104.746,104.746V512h30V134.746C467.91,60.447,407.463,0,333.164,0z" fill="#4caf50"/><rect x="74px" y="339px" width="30px" height="34px" fill="#4caf50"/><rect x="74px" y="403px" width="30px" height="34px" fill="#4caf50"/><rect x="74px" y="467px" width="30px" height="34px" fill="#4caf50"/><rect x="137px" y="339px" width="30px" height="34px" fill="#4caf50"/><rect x="137px" y="403px" width="30px" height="34px" fill="#4caf50"/><rect x="137px" y="467px" width="30px" height="34px" fill="#4caf50"/><rect x="200px" y="339px" width="30px" height="34px" fill="#4caf50"/><rect x="200px" y="403px" width="30px" height="34px" fill="#4caf50"/><rect x="200px" y="467px" width="30px" height="34px" fill="#4caf50"/><rect x="264px" y="339px" width="30px" height="34px" fill="#4caf50"/><rect x="264px" y="403px" width="30px" height="34px" fill="#4caf50"/><rect x="264px" y="467px" width="30px" height="34px" fill="#4caf50"/></g><g transform="matrix(0.1171875 0 0 0.1171875 9 282)" id="L1_5"><rect x="10px" y="342px" width="67px" height="160px" fill="#ff5a5a"/><g><path d="M315,393.5l82.135-63.018c15.671-12.024,36.631-14.6,54.748-6.73l16.303,4.13l-91.731,78.193   c-16.43,14.005-37.314,21.698-58.903,21.698H304L315,393.5z" fill="#ffcdac"/><path d="M77.81,364l74.236-22.232c25.189-6.747,51.937-4.559,75.694,6.191l70.754,32.016   c13.715,6.206,18.88,23.035,11.007,35.866l0,0c-5.806,9.463-17.154,13.966-27.869,11.058l-88.884-24.122l97.158,24.998h25.18   c19.36,0,38.122-6.713,53.087-18.995l94.359-77.441c5.804-4.763,13.493-6.555,20.805-4.847l0,0   c19.183,4.481,25.212,28.813,10.339,41.731L374.995,471.305C352.205,491.1,323.034,502,292.847,502H77.81V364z" fill="#ffcdac"/></g><path d="M146,188.302C146,248.887,195.249,298,256,298s110-49.113,110-109.698  c0-26.263-9.259-50.366-24.694-69.252h0.008L256,10l-84.907,108.479h0.064C155.443,137.448,146,161.775,146,188.302z" fill="#73e6e1"/><path d="M510.985,341.788c-3.1-12.511-12.822-22.104-25.372-25.034c-7.11-1.662-14.568-0.941-21.191,1.877  c-0.634-0.486-1.329-0.912-2.095-1.244l-6.459-2.806c-21.437-9.313-46.275-6.261-64.818,7.968l-75.732,58.104  c-3.386-4.155-7.71-7.531-12.7-9.789l-70.754-32.017c-25.795-11.672-55.061-14.066-82.405-6.739L87.81,348.622V342  c0-5.522-4.478-10-10-10H10c-5.522,0-10,4.478-10,10v160c0,5.522,4.478,10,10,10h282.847c32.595,0,64.098-11.771,88.706-33.146  l37.796-32.828c4.17-3.622,4.613-9.938,0.992-14.107c-3.622-4.17-9.938-4.614-14.107-0.992l-37.796,32.828  C347.468,481.969,320.623,492,292.847,492H87.81V369.327l66.823-17.9c22.893-6.132,47.394-4.129,68.984,5.642l70.755,32.017  c3.98,1.802,6.879,5.094,8.161,9.271s0.729,8.529-1.556,12.255c-3.462,5.641-10.341,8.374-16.726,6.636l-88.885-24.122  c-5.328-1.441-10.823,1.702-12.271,7.032c-1.446,5.33,1.702,10.823,7.032,12.271l88.884,24.121c2.999,0.814,6.044,1.207,9.061,1.206  c0.295,0,0.589-0.021,0.884-0.028c0.313,0.029,0.629,0.048,0.949,0.048h25.18c21.616,0,42.723-7.552,59.431-21.265l94.359-77.441  c3.376-2.772,7.932-3.837,12.187-2.839c5.277,1.232,9.205,5.108,10.509,10.368c1.303,5.26-0.361,10.521-4.452,14.075l-26.482,23.001  c-4.17,3.621-4.614,9.938-0.992,14.107s9.938,4.614,14.107,0.992l26.482-23.001C509.965,367.32,514.084,354.298,510.985,341.788z   M20,352h47.81v140H20V352z M361.83,401.05c-11.9,9.766-26.638,15.542-41.94,16.549c2.59-5.535,3.68-11.638,3.186-17.69  l80.148-61.493c12.191-9.353,28.321-11.679,42.607-6.307L361.83,401.05z"/><path d="M439.02,405.689c-2.63,0-5.21,1.07-7.069,2.931c-1.86,1.859-2.931,4.439-2.931,7.069s1.07,5.21,2.931,7.07  c1.859,1.86,4.439,2.93,7.069,2.93c2.641,0,5.221-1.069,7.07-2.93c1.86-1.86,2.93-4.44,2.93-7.07s-1.069-5.21-2.93-7.069  C444.23,406.76,441.661,405.689,439.02,405.689z"/><path d="M43.9,372.85c-2.63,0-5.199,1.07-7.069,2.931c-1.86,1.859-2.931,4.439-2.931,7.069s1.07,5.21,2.931,7.07  c1.87,1.86,4.439,2.93,7.069,2.93c2.641,0,5.21-1.069,7.08-2.93c1.86-1.86,2.931-4.44,2.931-7.07s-1.07-5.21-2.931-7.069  C49.11,373.92,46.541,372.85,43.9,372.85z"/><path d="M256,308c66.168,0,120-53.696,120-119.698c0-27.358-9.492-54.091-26.732-75.312c-0.025-0.034-0.052-0.067-0.078-0.102  L263.876,3.838C261.982,1.416,259.078,0,256.001,0H256c-3.075,0-5.979,1.415-7.875,3.836l-84.907,108.479  c-0.159,0.204-0.31,0.413-0.451,0.626C145.498,134.179,136,160.896,136,188.302C136,254.304,189.832,308,256,308z M178.858,124.859  c0.276-0.333,0.527-0.681,0.754-1.039l76.387-97.594l77.232,98.722c0.107,0.146,0.218,0.29,0.333,0.431  C348.033,143.081,356,165.428,356,188.302C356,243.275,311.141,288,256,288s-100-44.725-100-99.698  C156,165.183,164.119,142.651,178.858,124.859z"/><path d="M293.646,254.652c1.904,0,3.829-0.543,5.532-1.677c21.731-14.465,34.706-38.642,34.706-64.674c0-5.522-4.478-10-10-10  s-10,4.478-10,10c0,19.323-9.641,37.277-25.788,48.025c-4.598,3.06-5.844,9.268-2.783,13.865  C287.239,253.087,290.413,254.652,293.646,254.652z"/><path d="M256,266c0.383,0,0.766-0.002,1.147-0.008c5.522-0.081,9.934-4.623,9.853-10.146c-0.08-5.522-4.585-9.944-10.146-9.853  C256.571,245.998,256.286,246,256,246c-5.522,0-10,4.478-10,10S250.478,266,256,266z"/></g><g transform="matrix(1.01694917678833 0 0 1.01694917678833 -22.0000006424209 180)" id="L1_7"><path d="M11.115,14.615c-0.256,0-0.512-0.098-0.707-0.293l-3.535-3.535c-0.391-0.391-0.391-1.023,0-1.414  s1.023-0.391,1.414,0l3.535,3.535c0.391,0.391,0.391,1.023,0,1.414C11.627,14.517,11.371,14.615,11.115,14.615z" fill="#556080"/><path d="M47.885,14.615c-0.256,0-0.512-0.098-0.707-0.293c-0.391-0.391-0.391-1.023,0-1.414l3.535-3.535  c0.391-0.391,1.023-0.391,1.414,0s0.391,1.023,0,1.414l-3.535,3.535C48.396,14.517,48.141,14.615,47.885,14.615z" fill="#556080"/><circle cx="29" cy="32" r="26" fill="#ffffff"/><path d="M31.5,5.082V3H34c0.828,0,1.5-0.672,1.5-1.5l0,0C35.5,0.672,34.828,0,34,0h-9  c-0.828,0-1.5,0.672-1.5,1.5l0,0C23.5,2.328,24.171,3,25,3h2.5v2.082C13.544,6.11,2.5,17.785,2.5,32c0,14.888,12.112,27,27,27  s27-12.112,27-27C56.5,17.785,45.456,6.11,31.5,5.082z M29.5,57c-13.785,0-25-11.215-25-25s11.215-25,25-25s25,11.215,25,25  S43.285,57,29.5,57z" fill="#424a60"/><rect x="3px" y="5px" width="6px" height="5px" transform="matrix(0.707 -0.7072 0.7072 0.707 -4.3218 6.8985)" fill="#dc691d"/><rect x="49px" y="5px" width="6px" height="6px" transform="matrix(0.7071 -0.7071 0.7071 0.7071 9.3477 39.8979)" fill="#14a085"/><g><path d="M29.5,5c-0.553,0-1,0.447-1,1v3c0,0.553,0.447,1,1,1s1-0.447,1-1V6C30.5,5.447,30.053,5,29.5,5z" fill="#424a60"/><path d="M29.5,54c-0.553,0-1,0.447-1,1v3c0,0.553,0.447,1,1,1s1-0.447,1-1v-3C30.5,54.447,30.053,54,29.5,54   z" fill="#424a60"/><path d="M55.5,31h-3c-0.553,0-1,0.447-1,1s0.447,1,1,1h3c0.553,0,1-0.447,1-1S56.053,31,55.5,31z" fill="#424a60"/><path d="M6.5,33c0.553,0,1-0.447,1-1s-0.447-1-1-1h-3c-0.553,0-1,0.447-1,1s0.447,1,1,1H6.5z" fill="#424a60"/><path d="M45.764,16.736c0.256,0,0.512-0.098,0.707-0.293l2.121-2.121c0.391-0.391,0.391-1.023,0-1.414   s-1.023-0.391-1.414,0l-2.121,2.121c-0.391,0.391-0.391,1.023,0,1.414C45.252,16.638,45.508,16.736,45.764,16.736z" fill="#424a60"/><path d="M12.529,47.556l-2.121,2.121c-0.391,0.391-0.391,1.023,0,1.414c0.195,0.195,0.451,0.293,0.707,0.293   s0.512-0.098,0.707-0.293l2.121-2.121c0.391-0.391,0.391-1.023,0-1.414S12.92,47.166,12.529,47.556z" fill="#424a60"/><path d="M46.471,47.556c-0.391-0.391-1.023-0.391-1.414,0s-0.391,1.023,0,1.414l2.121,2.121   c0.195,0.195,0.451,0.293,0.707,0.293s0.512-0.098,0.707-0.293c0.391-0.391,0.391-1.023,0-1.414L46.471,47.556z" fill="#424a60"/><path d="M11.822,12.908c-0.391-0.391-1.023-0.391-1.414,0s-0.391,1.023,0,1.414l2.121,2.121   c0.195,0.195,0.451,0.293,0.707,0.293s0.512-0.098,0.707-0.293c0.391-0.391,0.391-1.023,0-1.414L11.822,12.908z" fill="#424a60"/><path d="M23.736,6.627c-0.143-0.533-0.689-0.85-1.225-0.707c-0.533,0.143-0.85,0.691-0.707,1.225   l0.776,2.898c0.119,0.446,0.523,0.741,0.965,0.741c0.086,0,0.173-0.011,0.26-0.034c0.533-0.143,0.85-0.691,0.707-1.225   L23.736,6.627z" fill="#424a60"/><path d="M36.419,53.958c-0.143-0.534-0.691-0.852-1.225-0.707c-0.533,0.143-0.85,0.691-0.707,1.225   l0.776,2.897c0.119,0.447,0.523,0.741,0.965,0.741c0.086,0,0.173-0.011,0.26-0.034c0.533-0.143,0.85-0.691,0.707-1.225   L36.419,53.958z" fill="#424a60"/><path d="M50.75,26.306c0.12,0.447,0.523,0.741,0.965,0.741c0.086,0,0.173-0.011,0.26-0.034l2.898-0.777   c0.533-0.143,0.851-0.691,0.707-1.225c-0.144-0.534-0.691-0.849-1.225-0.707l-2.898,0.777   C50.924,25.224,50.606,25.773,50.75,26.306z" fill="#424a60"/><path d="M8.25,37.694c-0.142-0.534-0.69-0.852-1.225-0.707l-2.898,0.776   c-0.533,0.143-0.85,0.691-0.707,1.225c0.119,0.447,0.523,0.741,0.965,0.741c0.086,0,0.173-0.011,0.26-0.034l2.898-0.776   C8.076,38.776,8.392,38.227,8.25,37.694z" fill="#424a60"/><path d="M43,8.617c-0.478-0.277-1.09-0.112-1.366,0.366l-1.5,2.599c-0.276,0.479-0.112,1.09,0.366,1.366   c0.157,0.091,0.329,0.134,0.499,0.134c0.346,0,0.682-0.18,0.867-0.5l1.5-2.599C43.642,9.505,43.478,8.893,43,8.617z" fill="#424a60"/><path d="M18.5,51.052c-0.478-0.277-1.09-0.114-1.366,0.366l-1.5,2.598c-0.276,0.479-0.112,1.09,0.366,1.366   c0.157,0.091,0.329,0.134,0.499,0.134c0.346,0,0.682-0.179,0.867-0.5l1.5-2.598C19.142,51.94,18.978,51.329,18.5,51.052z" fill="#424a60"/><path d="M52.516,44.134l-2.598-1.5c-0.478-0.277-1.09-0.114-1.366,0.366   c-0.276,0.479-0.112,1.09,0.366,1.366l2.598,1.5C51.674,45.957,51.846,46,52.016,46c0.346,0,0.682-0.179,0.867-0.5   C53.159,45.021,52.995,44.41,52.516,44.134z" fill="#424a60"/><path d="M6.483,19.866l2.598,1.5C9.238,21.457,9.41,21.5,9.58,21.5c0.346,0,0.682-0.179,0.867-0.5   c0.276-0.479,0.112-1.09-0.366-1.366l-2.598-1.5c-0.478-0.277-1.09-0.113-1.366,0.366C5.841,18.978,6.005,19.59,6.483,19.866z" fill="#424a60"/><path d="M17.366,8.983C17.089,8.505,16.475,8.34,16,8.617c-0.479,0.276-0.643,0.888-0.366,1.366l1.5,2.599   c0.186,0.32,0.521,0.5,0.867,0.5c0.17,0,0.342-0.043,0.499-0.134c0.479-0.276,0.643-0.888,0.366-1.366L17.366,8.983z" fill="#424a60"/><path d="M41.866,51.419c-0.277-0.48-0.89-0.644-1.366-0.366c-0.479,0.276-0.643,0.888-0.366,1.366l1.5,2.598   c0.186,0.321,0.521,0.5,0.867,0.5c0.17,0,0.342-0.043,0.499-0.134c0.479-0.276,0.643-0.888,0.366-1.366L41.866,51.419z" fill="#424a60"/><path d="M48.553,21c0.186,0.321,0.521,0.5,0.867,0.5c0.17,0,0.342-0.043,0.499-0.134l2.598-1.5   c0.479-0.276,0.643-0.888,0.366-1.366c-0.277-0.479-0.89-0.644-1.366-0.366l-2.598,1.5C48.44,19.91,48.276,20.521,48.553,21z" fill="#424a60"/><path d="M10.447,43c-0.277-0.48-0.89-0.644-1.366-0.366l-2.598,1.5C6.005,44.41,5.841,45.021,6.117,45.5   C6.303,45.821,6.639,46,6.984,46c0.17,0,0.342-0.043,0.499-0.134l2.598-1.5C10.559,44.09,10.724,43.478,10.447,43z" fill="#424a60"/><path d="M36.488,5.92c-0.532-0.142-1.082,0.174-1.225,0.707l-0.776,2.898   c-0.143,0.533,0.174,1.082,0.707,1.225c0.087,0.023,0.174,0.034,0.26,0.034c0.441,0,0.846-0.295,0.965-0.741l0.776-2.898   C37.338,6.611,37.021,6.062,36.488,5.92z" fill="#424a60"/><path d="M23.806,53.251c-0.533-0.144-1.082,0.173-1.225,0.707l-0.776,2.897   c-0.143,0.533,0.174,1.082,0.707,1.225c0.087,0.023,0.174,0.034,0.26,0.034c0.441,0,0.846-0.294,0.965-0.741l0.776-2.897   C24.655,53.942,24.339,53.393,23.806,53.251z" fill="#424a60"/><path d="M54.873,37.763l-2.898-0.776c-0.531-0.144-1.082,0.174-1.225,0.707s0.174,1.082,0.707,1.225   l2.898,0.776c0.087,0.023,0.174,0.034,0.26,0.034c0.441,0,0.846-0.295,0.965-0.741C55.723,38.455,55.406,37.906,54.873,37.763z" fill="#424a60"/><path d="M4.127,26.236l2.898,0.777c0.087,0.023,0.174,0.034,0.26,0.034c0.441,0,0.845-0.294,0.965-0.741   c0.144-0.533-0.174-1.082-0.707-1.225l-2.898-0.777c-0.533-0.141-1.081,0.173-1.225,0.707C3.276,25.545,3.594,26.094,4.127,26.236z   " fill="#424a60"/></g><path d="M18.5,21L18.5,21l12.944,9.363c1.274,0.926,1.419,2.772,0.305,3.886l0,0  c-1.114,1.114-2.959,0.969-3.886-0.305L18.5,21z" fill="#48a0dc"/></g><g transform="matrix(1.034482717514038 0 0 1.034482717514038 26 96)" id="L1_8"><path d="M29,0C12.984,0,0,12.984,0,29c0,8.629,3.778,16.366,9.761,21.677C15.033,46.501,21.692,44,28.939,44   c7.281,0,13.967,2.524,19.251,6.734C54.203,45.42,58,37.656,58,29C58,12.984,45.016,0,29,0z" fill="#556080"/><g><path d="M29,3c-0.553,0-1,0.447-1,1v2c0,0.553,0.447,1,1,1s1-0.447,1-1V4C30,3.447,29.553,3,29,3z" fill="#7383bf"/><path d="M54.5,28h-2c-0.553,0-1,0.447-1,1s0.447,1,1,1h2c0.553,0,1-0.447,1-1S55.053,28,54.5,28z" fill="#7383bf"/><path d="M6.5,29c0-0.553-0.447-1-1-1h-2c-0.553,0-1,0.447-1,1s0.447,1,1,1h2C6.053,30,6.5,29.552,6.5,29z" fill="#7383bf"/><path d="M42.25,6.551c-0.479-0.276-1.09-0.113-1.366,0.366l-1,1.731c-0.276,0.479-0.112,1.09,0.366,1.366   c0.157,0.091,0.329,0.134,0.499,0.134c0.346,0,0.682-0.179,0.867-0.5l1-1.731C42.893,7.438,42.729,6.827,42.25,6.551z" fill="#7383bf"/><path d="M51.584,41.384l-1.732-1c-0.478-0.276-1.091-0.112-1.366,0.366c-0.276,0.479-0.112,1.09,0.366,1.366   l1.732,1c0.157,0.091,0.329,0.134,0.499,0.134c0.346,0,0.682-0.18,0.867-0.5C52.227,42.271,52.063,41.66,51.584,41.384z" fill="#7383bf"/><path d="M9.148,16.884l-1.732-1c-0.478-0.276-1.09-0.112-1.366,0.366s-0.112,1.09,0.366,1.366l1.732,1   c0.157,0.091,0.329,0.134,0.499,0.134c0.346,0,0.682-0.18,0.867-0.5C9.791,17.771,9.627,17.16,9.148,16.884z" fill="#7383bf"/><path d="M17.111,6.883c-0.276-0.479-0.89-0.643-1.366-0.366c-0.479,0.276-0.643,0.888-0.366,1.366l1,1.732   c0.186,0.32,0.521,0.5,0.867,0.5c0.17,0,0.342-0.043,0.499-0.134c0.479-0.276,0.643-0.888,0.366-1.366L17.111,6.883z" fill="#7383bf"/><path d="M49.099,18.284c0.17,0,0.342-0.043,0.499-0.134l1.731-1c0.479-0.276,0.643-0.888,0.366-1.366   c-0.277-0.479-0.89-0.644-1.366-0.366l-1.731,1c-0.479,0.276-0.643,0.888-0.366,1.366C48.417,18.105,48.753,18.284,49.099,18.284z" fill="#7383bf"/><path d="M7.894,39.918l-1.731,1c-0.479,0.276-0.643,0.888-0.366,1.366c0.186,0.321,0.521,0.5,0.867,0.5   c0.17,0,0.342-0.043,0.499-0.134l1.731-1c0.479-0.276,0.643-0.888,0.366-1.366C8.982,39.804,8.37,39.641,7.894,39.918z" fill="#7383bf"/></g><path d="M9.752,50.683C14.873,55.232,21.612,58,29,58c7.361,0,14.076-2.748,19.19-7.266  C42.906,46.524,36.22,44,28.939,44C21.688,44,15.025,46.504,9.752,50.683z" fill="#38454f"/><path d="M42.021,17.172c-0.391-0.391-1.023-0.391-1.414,0l-8.387,8.388c-1.537-0.997-3.725-0.833-5.048,0.491  C26.416,26.805,26,27.81,26,28.879s0.416,2.073,1.172,2.828c0.755,0.756,1.76,1.172,2.828,1.172s2.073-0.416,2.828-1.172  C33.584,30.952,34,29.947,34,28.879c0-0.645-0.168-1.259-0.455-1.816l8.476-8.477C42.411,18.195,42.411,17.562,42.021,17.172z   M31.414,30.293c-0.756,0.756-2.072,0.756-2.828,0C28.208,29.915,28,29.413,28,28.879s0.208-1.036,0.586-1.414  s0.88-0.586,1.414-0.586s1.036,0.208,1.414,0.586S32,28.344,32,28.879S31.792,29.915,31.414,30.293z" fill="#404960"/><path d="M41.021,16.172c-0.391-0.391-1.023-0.391-1.414,0l-8.387,8.388c-1.537-0.997-3.725-0.833-5.048,0.491  C25.416,25.805,25,26.81,25,27.879s0.416,2.073,1.172,2.828c0.755,0.756,1.76,1.172,2.828,1.172s2.073-0.416,2.828-1.172  C32.584,29.952,33,28.947,33,27.879c0-0.645-0.168-1.259-0.455-1.816l8.476-8.477C41.411,17.195,41.411,16.562,41.021,16.172z   M30.414,29.293c-0.756,0.756-2.072,0.756-2.828,0C27.208,28.915,27,28.413,27,27.879s0.208-1.036,0.586-1.414  s0.88-0.586,1.414-0.586s1.036,0.208,1.414,0.586S31,27.344,31,27.879S30.792,28.915,30.414,29.293z" fill="#ffffff"/></g><g transform="matrix(0.15329624712467194 0 0 0.15329624712467194 75.99999842811462 230)" id="L1_9"><path d="M144.299,377.699l50.4-143.6l-132.4-0.4c-5.6,0-10-4.4-10-10c0-2.4,0.8-4.4,2.4-6.4l0,0  c38.8-47.6,77.6-95.2,116.4-142.8c19.2-23.2,38.4-46.8,58-70.8c3.6-4.4,9.6-4.8,14-1.6c3.2,2.8,4.4,7.2,3.2,11.2l-50.8,144  l132.4,0.4c5.6,0,10,4.4,10,10c0,2.4-0.8,4.4-2,6l0,0c-37.2,48-76.4,95.2-115.6,142.8c-19.2,23.2-38.4,46.4-58.8,71.2  c-3.6,4.4-9.6,4.8-14,1.6C143.899,386.099,142.699,381.699,144.299,377.699" fill="#94c83d"/><g><path d="M119.499,332.899c4.8,2.8,6.8,8.8,4,13.6c-2.8,4.8-8.8,6.8-13.6,4c-28.8-15.6-52.4-38.4-68.8-66   c-16-27.2-25.2-58.4-25.2-91.6c0-41.6,14.4-80.4,38.8-111.2s59.2-53.6,99.6-63.2c5.2-1.2,10.8,2,12,7.6c1.2,5.2-2,10.8-7.6,12   c-36,8.4-66.8,28.8-88.4,56s-34.4,62-34.4,98.8c0,29.2,8,57.2,22.4,81.6C73.099,298.899,93.899,319.299,119.499,332.899" fill="#5e9641"/><path d="M273.099,53.699c-4.8-2.8-6.8-8.8-4-13.6c2.8-4.8,8.8-6.8,13.6-4c28.8,15.6,52,38.8,68,65.6   c16,27.2,24.8,58.4,24.8,91.2c0,42-14.8,81.2-39.6,112c-24.8,30.8-60,53.6-100.8,62.8c-5.2,1.2-10.8-2.4-12-7.6s2.4-10.8,7.6-12   c36.4-8,67.6-28.4,89.6-55.6c22-27.6,35.2-62.4,35.2-99.6c0-29.2-8-56.8-22-80.8C319.099,88.099,298.699,67.699,273.099,53.699" fill="#5e9641"/></g></g><g transform="matrix(0.17134925723075867 0 0 0.17134925723075867 259 22.000000481083134)" id="L1_10"><path d="M285.744,240.544H172.615l-0.409,80.153h95.235c11.494,0,22.11-6.149,27.83-16.119   l13.881-24.196l-0.752-0.427L285.744,240.544z" id="XMLID_235_" fill="#2b7b57"/><path d="M121.057,142.463l-69.291-40.294L4.268,184.795   c-5.707,9.928-5.69,22.145,0.044,32.057l13.707,23.693h46.668L121.057,142.463z" id="XMLID_238_" fill="#2b7b57"/><path d="M175.206,48.257c0.007,0,56.147,97.672,56.147,97.672l69.705-39.595l-47.467-82.576   c-5.723-9.957-16.332-16.095-27.816-16.095h-27.677v0.769L175.206,48.257z" id="XMLID_241_" fill="#2b7b57"/><path d="M147.157,218.737h-0.414c-4.869,0-8.817,3.947-8.817,8.817v12.991H18.027   l39.661,68.548c4.156,7.183,11.825,11.606,20.123,11.606h60.116v12.984c0,4.869,3.947,8.817,8.817,8.817h0.01   c2.338,0,4.581-0.929,6.234-2.582l53.266-53.266c3.444-3.444,3.443-9.027-0.001-12.47l-33.645-33.636l-19.214-19.224   C151.74,219.666,149.496,218.737,147.157,218.737z" id="XMLID_244_" fill="#49b86e"/><path d="M152.652,131.258l0.203-0.353c2.427-4.222,0.971-9.612-3.252-12.038l-11.264-6.472   l36.866-64.138l22.891-39.828V7.663h-73.89c-11.564,0-22.233,6.223-27.926,16.288L68.85,72.443l-11.261-6.47   c-4.221-2.425-9.609-0.971-12.036,3.249l-0.005,0.009c-1.166,2.028-1.479,4.435-0.869,6.694l7.086,26.244l12.545,46.476   c1.269,4.701,6.109,7.484,10.81,6.215l72.185-19.483C149.564,134.767,151.487,133.286,152.652,131.258z" id="XMLID_308_" fill="#49b86e"/><path d="M318.131,136.056l11.266-6.476c4.223-2.428,5.678-7.82,3.248-12.042l0,0   c-1.166-2.025-3.087-3.505-5.343-4.114l-72.734-19.641c-4.701-1.27-9.542,1.513-10.811,6.214l-19.483,72.174   c-0.609,2.257-0.297,4.665,0.868,6.692l0.205,0.356c2.426,4.221,7.815,5.676,12.037,3.251l11.258-6.47l37.102,64.544l22.655,39.411   l0.752,0.427l36.757-64.08c5.677-9.897,5.671-22.063-0.015-31.955L318.131,136.056z" id="XMLID_312_" fill="#49b86e"/></g><g transform="matrix(0.11718704551458359 0 0 0.11718704551458359 191 131)" id="L1_11"><circle cx="256" cy="256" r="256" fill="#ffcf35"/><path d="M369.78,341.333c-99.699-30.168-120.099-128.431-227.556-28.444  C96.44,355.49,58.696,372.108,30.443,377.16c34.171,63.479,94.353,110.873,166.283,127.928l159.03-13.253  c73.864-31.282,129.979-96.256,149.111-175.647C474.549,337.437,426.881,358.612,369.78,341.333z" fill="#008cc3"/><path d="M369.78,341.333c-52.021-15.741-82.453-50.009-114.926-64.991v223.901l100.902-8.408  c73.864-31.282,129.979-96.256,149.111-175.647C474.549,337.437,426.881,358.612,369.78,341.333z" fill="#0074a3"/><path d="M11.053,330.588C42.985,435.588,140.563,512,256.001,512c108.523,0,201.266-67.531,238.52-162.859  c-54.156-48.385-73.835-103.219-175.452-39.629C199.088,384.59,73.184,354.116,11.053,330.588z" fill="#00baff"/><path d="M319.068,309.512c-21.349,13.36-42.884,23.362-64.215,30.672V511.99  c0.383,0.002,0.764,0.012,1.148,0.012c108.523,0,201.266-67.531,238.52-162.859C440.364,300.756,420.686,245.922,319.068,309.512z" fill="#008cc3"/></g><g transform="matrix(0.14457830786705017 0 0 0.14457830786705017 273 287)" id="L1_12"><g><path d="M307.5,297.5c0,22.1-17.9,40-40,40s-40-17.9-40-40s17.9-40,40-40S307.5,275.4,307.5,297.5z" fill="#f4661e"/><path d="M107.5,297.5c0-22.1,17.9-40,40-40s40,17.9,40,40s-17.9,40-40,40S107.5,319.6,107.5,297.5z" fill="#f4661e"/><path d="M207.5,142.5c11,0,20,9,20,20s-9,20-20,20s-20-9-20-20S196.5,142.5,207.5,142.5z" fill="#f4661e"/><path d="M117.5,137.5c0-49.7,40.3-90,90-90s90,40.3,90,90s-40.3,90-90,90S117.5,187.2,117.5,137.5z      M207.5,142.5c-11,0-20,9-20,20s9,20,20,20s20-9,20-20S218.5,142.5,207.5,142.5z" fill="#e7eced"/><rect x="342px" y="187px" width="30px" height="50px" fill="#afb6bb"/><rect x="42px" y="137px" width="30px" height="50px" fill="#afb6bb"/><rect x="42px" y="227px" width="30px" height="50px" fill="#afb6bb"/><path d="M107.5,297.5c0,22.1,17.9,40,40,40s40-17.9,40-40s-17.9-40-40-40S107.5,275.4,107.5,297.5z      M207.5,407.5h-15c-66,0-120-54-120-120v-10v-50v-40v-50v-10c0-66,54-120,120-120h30c66,0,120,54,120,120v60v50v50     c0,66-54,120-120,120H207.5z M267.5,337.5c22.1,0,40-17.9,40-40s-17.9-40-40-40s-40,17.9-40,40S245.4,337.5,267.5,337.5z      M207.5,227.5c49.7,0,90-40.3,90-90s-40.3-90-90-90s-90,40.3-90,90S157.8,227.5,207.5,227.5z" fill="#ffd248"/></g><g><path d="M207.5,40c-53.762,0-97.5,43.738-97.5,97.5s43.738,97.5,97.5,97.5s97.5-43.738,97.5-97.5S261.262,40,207.5,40z      M207.5,220c-42.961,0-78.34-33.013-82.144-75H152.5v-15h-27.144c1.438-15.877,7.388-30.465,16.562-42.474l15.278,15.278     l10.607-10.607l-15.742-15.742C164.981,64.711,181.634,57.02,200,55.356V82.5h15V55.356c18.366,1.664,35.019,9.355,47.938,21.098     l-20.742,20.742l10.607,10.607l20.278-20.278c9.174,12.01,15.124,26.598,16.562,42.474H262.5v15h27.144     C285.84,186.987,250.461,220,207.5,220z"/><path d="M215,136.048V102.5h-15v33.548c-11.528,3.274-20,13.889-20,26.452c0,15.163,12.337,27.5,27.5,27.5s27.5-12.337,27.5-27.5     C235,149.937,226.528,139.322,215,136.048z M207.5,175c-6.893,0-12.5-5.607-12.5-12.5s5.607-12.5,12.5-12.5s12.5,5.607,12.5,12.5     S214.393,175,207.5,175z"/><path d="M147.5,250c-26.191,0-47.5,21.309-47.5,47.5s21.309,47.5,47.5,47.5s47.5-21.309,47.5-47.5S173.691,250,147.5,250z      M147.5,330c-15.339,0-28.221-10.685-31.617-25H152.5v-15h-36.617c3.396-14.315,16.278-25,31.617-25     c17.921,0,32.5,14.579,32.5,32.5S165.421,330,147.5,330z"/><path d="M267.5,250c-26.191,0-47.5,21.309-47.5,47.5s21.309,47.5,47.5,47.5s47.5-21.309,47.5-47.5S293.691,250,267.5,250z      M267.5,330c-17.921,0-32.5-14.579-32.5-32.5s14.579-32.5,32.5-32.5c15.339,0,28.221,10.685,31.617,25H257.5v15h41.617     C295.721,319.315,282.839,330,267.5,330z"/><path d="M380,180h-30v-52.5C350,57.196,292.804,0,222.5,0h-30C122.196,0,65,57.196,65,127.5v2.5H35v65h30v25H35v65h30v2.5     C65,357.804,122.196,415,192.5,415h30c70.304,0,127.5-57.196,127.5-127.5V245h30V180z M50,180v-35h15v35H50z M50,270v-35h15v35     H50z M335,287.5c0,62.033-50.467,112.5-112.5,112.5H215v-42.5h-15V400h-7.5C130.467,400,80,349.533,80,287.5v-160     C80,65.467,130.467,15,192.5,15h30C284.533,15,335,65.467,335,127.5V287.5z M365,230h-15v-35h15V230z"/></g></g></defs><g fi:class="KUsePattern"><pattern id="pattern_L1_0" width="350" height="350" patternUnits="userSpaceOnUse"><use xlink:href="#L1_0" x="-350" y="-350"/><use xlink:href="#L1_0" x="0" y="-350"/><use xlink:href="#L1_0" x="350" y="-350"/><use xlink:href="#L1_0" x="-350" y="0"/><use xlink:href="#L1_0" x="0" y="0"/><use xlink:href="#L1_0" x="350" y="0"/><use xlink:href="#L1_0" x="-350" y="350"/><use xlink:href="#L1_0" x="0" y="350"/><use xlink:href="#L1_0" x="350" y="350"/></pattern><rect x="0" y="0" width="100%" height="100%" fill="url(#pattern_L1_0)"/></g><g fi:class="KUsePattern"><pattern id="pattern_L1_1" width="350" height="350" patternUnits="userSpaceOnUse"><use xlink:href="#L1_1" x="-350" y="-350"/><use xlink:href="#L1_1" x="0" y="-350"/><use xlink:href="#L1_1" x="350" y="-350"/><use xlink:href="#L1_1" x="-350" y="0"/><use xlink:href="#L1_1" x="0" y="0"/><use xlink:href="#L1_1" x="350" y="0"/><use xlink:href="#L1_1" x="-350" y="350"/><use xlink:href="#L1_1" x="0" y="350"/><use xlink:href="#L1_1" x="350" y="350"/></pattern><rect x="0" y="0" width="100%" height="100%" fill="url(#pattern_L1_1)"/></g><g fi:class="KUsePattern"><pattern id="pattern_L1_3" width="350" height="350" patternUnits="userSpaceOnUse"><use xlink:href="#L1_3" x="-350" y="-350"/><use xlink:href="#L1_3" x="0" y="-350"/><use xlink:href="#L1_3" x="350" y="-350"/><use xlink:href="#L1_3" x="-350" y="0"/><use xlink:href="#L1_3" x="0" y="0"/><use xlink:href="#L1_3" x="350" y="0"/><use xlink:href="#L1_3" x="-350" y="350"/><use xlink:href="#L1_3" x="0" y="350"/><use xlink:href="#L1_3" x="350" y="350"/></pattern><rect x="0" y="0" width="100%" height="100%" fill="url(#pattern_L1_3)"/></g><g fi:class="KUsePattern"><pattern id="pattern_L1_5" width="350" height="350" patternUnits="userSpaceOnUse"><use xlink:href="#L1_5" x="-350" y="-350"/><use xlink:href="#L1_5" x="0" y="-350"/><use xlink:href="#L1_5" x="350" y="-350"/><use xlink:href="#L1_5" x="-350" y="0"/><use xlink:href="#L1_5" x="0" y="0"/><use xlink:href="#L1_5" x="350" y="0"/><use xlink:href="#L1_5" x="-350" y="350"/><use xlink:href="#L1_5" x="0" y="350"/><use xlink:href="#L1_5" x="350" y="350"/></pattern><rect x="0" y="0" width="100%" height="100%" fill="url(#pattern_L1_5)"/></g><g fi:class="KUsePattern"><pattern id="pattern_L1_7" width="350" height="350" patternUnits="userSpaceOnUse"><use xlink:href="#L1_7" x="-350" y="-350"/><use xlink:href="#L1_7" x="0" y="-350"/><use xlink:href="#L1_7" x="350" y="-350"/><use xlink:href="#L1_7" x="-350" y="0"/><use xlink:href="#L1_7" x="0" y="0"/><use xlink:href="#L1_7" x="350" y="0"/><use xlink:href="#L1_7" x="-350" y="350"/><use xlink:href="#L1_7" x="0" y="350"/><use xlink:href="#L1_7" x="350" y="350"/></pattern><rect x="0" y="0" width="100%" height="100%" fill="url(#pattern_L1_7)"/></g><g fi:class="KUsePattern"><pattern id="pattern_L1_8" width="350" height="350" patternUnits="userSpaceOnUse"><use xlink:href="#L1_8" x="-350" y="-350"/><use xlink:href="#L1_8" x="0" y="-350"/><use xlink:href="#L1_8" x="350" y="-350"/><use xlink:href="#L1_8" x="-350" y="0"/><use xlink:href="#L1_8" x="0" y="0"/><use xlink:href="#L1_8" x="350" y="0"/><use xlink:href="#L1_8" x="-350" y="350"/><use xlink:href="#L1_8" x="0" y="350"/><use xlink:href="#L1_8" x="350" y="350"/></pattern><rect x="0" y="0" width="100%" height="100%" fill="url(#pattern_L1_8)"/></g><g fi:class="KUsePattern"><pattern id="pattern_L1_9" width="350" height="350" patternUnits="userSpaceOnUse"><use xlink:href="#L1_9" x="-350" y="-350"/><use xlink:href="#L1_9" x="0" y="-350"/><use xlink:href="#L1_9" x="350" y="-350"/><use xlink:href="#L1_9" x="-350" y="0"/><use xlink:href="#L1_9" x="0" y="0"/><use xlink:href="#L1_9" x="350" y="0"/><use xlink:href="#L1_9" x="-350" y="350"/><use xlink:href="#L1_9" x="0" y="350"/><use xlink:href="#L1_9" x="350" y="350"/></pattern><rect x="0" y="0" width="100%" height="100%" fill="url(#pattern_L1_9)"/></g><g fi:class="KUsePattern"><pattern id="pattern_L1_10" width="350" height="350" patternUnits="userSpaceOnUse"><use xlink:href="#L1_10" x="-350" y="-350"/><use xlink:href="#L1_10" x="0" y="-350"/><use xlink:href="#L1_10" x="350" y="-350"/><use xlink:href="#L1_10" x="-350" y="0"/><use xlink:href="#L1_10" x="0" y="0"/><use xlink:href="#L1_10" x="350" y="0"/><use xlink:href="#L1_10" x="-350" y="350"/><use xlink:href="#L1_10" x="0" y="350"/><use xlink:href="#L1_10" x="350" y="350"/></pattern><rect x="0" y="0" width="100%" height="100%" fill="url(#pattern_L1_10)"/></g><g fi:class="KUsePattern"><pattern id="pattern_L1_11" width="350" height="350" patternUnits="userSpaceOnUse"><use xlink:href="#L1_11" x="-350" y="-350"/><use xlink:href="#L1_11" x="0" y="-350"/><use xlink:href="#L1_11" x="350" y="-350"/><use xlink:href="#L1_11" x="-350" y="0"/><use xlink:href="#L1_11" x="0" y="0"/><use xlink:href="#L1_11" x="350" y="0"/><use xlink:href="#L1_11" x="-350" y="350"/><use xlink:href="#L1_11" x="0" y="350"/><use xlink:href="#L1_11" x="350" y="350"/></pattern><rect x="0" y="0" width="100%" height="100%" fill="url(#pattern_L1_11)"/></g><g fi:class="KUsePattern"><pattern id="pattern_L1_12" width="350" height="350" patternUnits="userSpaceOnUse"><use xlink:href="#L1_12" x="-350" y="-350"/><use xlink:href="#L1_12" x="0" y="-350"/><use xlink:href="#L1_12" x="350" y="-350"/><use xlink:href="#L1_12" x="-350" y="0"/><use xlink:href="#L1_12" x="0" y="0"/><use xlink:href="#L1_12" x="350" y="0"/><use xlink:href="#L1_12" x="-350" y="350"/><use xlink:href="#L1_12" x="0" y="350"/><use xlink:href="#L1_12" x="350" y="350"/></pattern><rect x="0" y="0" width="100%" height="100%" fill="url(#pattern_L1_12)"/></g></svg>