<?xml version="1.0" encoding="iso-8859-1"?>
<!-- Generator: Adobe Illustrator 19.0.0, SVG Export Plug-In . SVG Version: 6.00 Build 0)  -->
<svg version="1.1" id="Capa_1" xmlns="http://www.w3.org/2000/svg" xmlns:xlink="http://www.w3.org/1999/xlink" x="0px" y="0px"
	 viewBox="0 0 512.081 512.081" style="enable-background:new 0 0 512.081 512.081;" xml:space="preserve">
<g>
	<path style="fill:#67C6B9;" d="M395.815,57.641c-37.333-37.333-87.467-57.6-139.733-57.6c-53.333,0-102.4,20.267-139.733,57.6
		c-6.4,6.4-6.4,18.133,0,24.533c3.2,3.2,7.467,5.333,12.8,5.333c4.267,0,8.533-2.133,12.8-5.333c30.933-30.933,71.467-48,115.2-48
		s84.267,17.067,115.2,48c6.4,6.4,18.133,6.4,24.533,0C402.215,75.774,402.215,65.107,395.815,57.641z"/>
	<path style="fill:#67C6B9;" d="M165.415,106.707c-6.4,6.4-6.4,18.133,0,24.533c6.4,6.4,18.133,6.4,24.533,0
		c36.267-36.267,96-36.267,132.267,0c3.2,3.2,7.467,5.333,12.8,5.333c4.267,0,8.533-2.133,12.8-5.333c6.4-6.4,6.4-18.133,0-24.533
		C296.615,56.574,215.548,56.574,165.415,106.707z"/>
	<path style="fill:#67C6B9;" d="M213.415,154.707c-6.4,6.4-6.4,18.133,0,24.533c6.4,6.4,18.133,6.4,24.533,0
		c9.6-9.6,25.6-9.6,35.2,0c3.2,3.2,7.467,5.333,12.8,5.333c4.267,0,8.533-2.133,12.8-5.333c6.4-6.4,6.4-18.133,0-24.533
		C275.281,132.307,236.881,131.241,213.415,154.707z"/>
</g>
<path style="fill:#F3705B;" d="M511.015,414.974c-2.133-25.6-18.133-48-41.6-59.733c-16-8.533-38.4-17.067-69.333-28.8
	c-1.067-1.067-3.2-2.133-4.267-4.267c-67.2-54.4-87.467-85.333-173.867-88.533h-160c-8.533,0-16,7.467-20.267,14.933
	c-37.333,65.067-38.4,129.067-41.6,192c-1.067,10.667,8.533,20.267,19.2,20.267h473.6c10.667,0,19.2-8.533,19.2-18.133
	C512.081,435.241,512.081,424.574,511.015,414.974z"/>
<g>
	<path style="fill:#435B6C;" d="M177.148,253.907h-92.8c-1.067,0-3.2,2.133-4.267,5.333c-16,28.8-29.867,56.533-39.467,83.2h136.533
		V253.907z"/>
	<path style="fill:#435B6C;" d="M388.348,341.374c-1.067-1.067-3.2-2.133-4.267-4.267c-11.733-9.6-21.333-18.133-30.933-25.6
		c-45.867-38.4-66.133-56.533-132.267-58.667h-23.467v88.533H388.348L388.348,341.374z"/>
</g>
<path style="fill:#354B5E;" d="M102.481,396.841c-35.2,0-64,28.8-64,64h128C166.481,425.641,137.681,396.841,102.481,396.841z"/>
<circle style="fill:#435B6C;" cx="102.481" cy="460.841" r="51.2"/>
<circle style="fill:#FFFFFF;" cx="102.481" cy="460.841" r="22.4"/>
<path style="fill:#354B5E;" d="M400.081,396.841c-35.2,0-64,28.8-64,64h128C464.081,425.641,435.281,396.841,400.081,396.841z"/>
<circle style="fill:#435B6C;" cx="400.081" cy="460.841" r="51.2"/>
<circle style="fill:#FFFFFF;" cx="400.081" cy="460.841" r="22.4"/>
<g>
</g>
<g>
</g>
<g>
</g>
<g>
</g>
<g>
</g>
<g>
</g>
<g>
</g>
<g>
</g>
<g>
</g>
<g>
</g>
<g>
</g>
<g>
</g>
<g>
</g>
<g>
</g>
<g>
</g>
</svg>
