<?xml version="1.0" encoding="iso-8859-1"?>
<!-- Generator: Adobe Illustrator 19.0.0, SVG Export Plug-In . SVG Version: 6.00 Build 0)  -->
<svg version="1.1" id="Capa_1" xmlns="http://www.w3.org/2000/svg" xmlns:xlink="http://www.w3.org/1999/xlink" x="0px" y="0px"
	 viewBox="0 0 512 512" style="enable-background:new 0 0 512 512;" xml:space="preserve">
<path style="fill:#4BB9EC;" d="M154.355,363.436v63.079c0,8.288-6.716,15.014-15.014,15.014H28.877
	C12.952,441.529,0,428.577,0,412.652v-35.363c0-15.915,12.952-28.867,28.877-28.867h110.464
	C147.638,348.422,154.355,355.138,154.355,363.436z"/>
<path style="fill:#0088FF;" d="M154.355,394.975v31.54c0,8.288-6.716,15.014-15.014,15.014H28.877
	C12.952,441.529,0,428.577,0,412.652v-17.677H154.355z"/>
<path style="fill:#4BB9EC;" d="M282.124,227.158l-52.96,149.63c-2.182,6.166-7.977,10.009-14.153,10.009
	c-1.662,0-3.353-0.28-5.015-0.861l-29.518-10.45l-29.938-10.6c-7.817-2.763-11.911-11.351-9.149-19.168l41.969-118.561
	L282.124,227.158L282.124,227.158z"/>
<path style="fill:#0088FF;" d="M282.124,227.158l-52.96,149.63c-2.182,6.166-7.977,10.009-14.153,10.009
	c-1.662,0-3.353-0.28-5.015-0.861l-29.518-10.45l51.118-148.329L282.124,227.158L282.124,227.158z"/>
<path style="fill:#E6EEFF;" d="M232.218,394.455c0,20.519-10.54,38.626-26.485,49.186c-9.319,6.166-20.479,9.769-32.46,9.769
	c-32.51,0-58.955-26.445-58.955-58.955c0-19.708,9.719-37.195,24.623-47.905c9.679-6.947,21.53-11.05,34.332-11.05
	C205.773,335.5,232.218,361.944,232.218,394.455z"/>
<path style="fill:#DAE2F2;" d="M232.218,394.455c0,20.519-10.54,38.626-26.485,49.186L138.94,346.55
	c9.679-6.947,21.53-11.05,34.332-11.05C205.773,335.5,232.218,361.944,232.218,394.455z"/>
<path style="fill:#0088FF;" d="M512,123.351v71.087c0,13.583-11.05,24.623-24.633,24.623h-67.824
	c-7.847,0-15.044-3.603-19.739-9.899c-4.694-6.286-6.106-14.213-3.874-21.74l8.768-29.538l12.342-41.549
	c3.083-10.37,12.792-17.617,23.612-17.617h46.714C500.95,98.718,512,109.768,512,123.351z"/>
<path style="fill:#4BB9EC;" d="M512,123.351v34.532H404.699l12.342-41.549c3.083-10.37,12.792-17.617,23.612-17.617h46.714
	C500.95,98.718,512,109.768,512,123.351z"/>
<path style="fill:#DAE2F2;" d="M457.449,85.745l-21.42,72.138l-24.993,84.179c-2.642,8.898-10.97,15.124-20.259,15.124H91.816
	c-11.661,0-21.14-9.489-21.14-21.14V79.73c0-11.661,9.479-21.14,21.14-21.14H437.19c6.636,0,12.962,3.173,16.936,8.498
	C458.099,72.403,459.341,79.379,457.449,85.745z"/>
<path style="fill:#E6EEFF;" d="M457.449,85.745l-21.42,72.138H70.676V79.73c0-11.661,9.479-21.14,21.14-21.14H437.19
	c6.636,0,12.962,3.173,16.936,8.498C458.099,72.403,459.341,79.379,457.449,85.745z"/>
<path style="fill:#4BB9EC;" d="M145.807,115.734c0,0.49-0.02,0.981-0.07,1.471c-0.05,0.49-0.12,0.981-0.22,1.461
	s-0.22,0.961-0.36,1.421c-0.14,0.47-0.31,0.941-0.49,1.391c-0.19,0.45-0.4,0.891-0.631,1.321c-0.23,0.44-0.48,0.861-0.751,1.271
	c-0.27,0.4-0.571,0.801-0.881,1.181c-0.31,0.38-0.641,0.751-0.991,1.101c-0.34,0.34-0.711,0.681-1.091,0.991
	s-0.781,0.601-1.191,0.871c-0.4,0.27-0.831,0.52-1.261,0.751s-0.881,0.44-1.331,0.631c-0.45,0.19-0.911,0.35-1.381,0.5
	c-0.47,0.14-0.951,0.26-1.421,0.36c-0.48,0.09-0.971,0.17-1.461,0.22c-0.49,0.04-0.981,0.07-1.471,0.07s-0.991-0.03-1.481-0.07
	c-0.49-0.05-0.981-0.13-1.461-0.22c-0.47-0.1-0.951-0.22-1.421-0.36c-0.47-0.15-0.931-0.31-1.381-0.5s-0.901-0.4-1.331-0.631
	s-0.861-0.48-1.261-0.751c-0.41-0.27-0.811-0.561-1.191-0.871c-0.38-0.31-0.751-0.651-1.091-0.991
	c-0.35-0.35-0.681-0.721-0.991-1.101c-0.31-0.38-0.611-0.781-0.881-1.181c-0.27-0.41-0.52-0.831-0.751-1.271
	c-0.23-0.43-0.44-0.871-0.631-1.321c-0.18-0.45-0.35-0.921-0.49-1.391c-0.14-0.46-0.26-0.941-0.36-1.421s-0.17-0.971-0.22-1.461
	c-0.05-0.49-0.07-0.981-0.07-1.471c0-0.49,0.02-0.991,0.07-1.481c0.05-0.48,0.12-0.971,0.22-1.451s0.22-0.961,0.36-1.431
	c0.14-0.46,0.31-0.931,0.49-1.381c0.19-0.45,0.4-0.901,0.631-1.331c0.23-0.43,0.48-0.851,0.751-1.261
	c0.27-0.41,0.571-0.801,0.881-1.181c0.31-0.38,0.641-0.751,0.991-1.101c0.34-0.34,0.711-0.681,1.091-0.991
	c0.38-0.31,0.781-0.601,1.191-0.871c0.4-0.27,0.831-0.531,1.261-0.751c0.43-0.23,0.881-0.44,1.331-0.631
	c0.45-0.19,0.911-0.35,1.381-0.5c0.47-0.14,0.951-0.26,1.421-0.36c0.48-0.09,0.971-0.17,1.461-0.22c0.981-0.09,1.972-0.09,2.953,0
	c0.49,0.05,0.981,0.13,1.461,0.22c0.47,0.1,0.951,0.22,1.421,0.36c0.47,0.15,0.931,0.31,1.381,0.5s0.901,0.4,1.331,0.631
	c0.43,0.22,0.861,0.48,1.261,0.751c0.41,0.27,0.811,0.561,1.191,0.871c0.38,0.31,0.751,0.651,1.091,0.991
	c0.35,0.35,0.681,0.721,0.991,1.101c0.31,0.38,0.611,0.771,0.881,1.181s0.52,0.831,0.751,1.261c0.231,0.43,0.44,0.881,0.631,1.331
	c0.18,0.45,0.35,0.921,0.49,1.381c0.14,0.47,0.26,0.951,0.36,1.431c0.1,0.48,0.17,0.971,0.22,1.451
	C145.787,114.743,145.807,115.243,145.807,115.734z"/>
<g>
</g>
<g>
</g>
<g>
</g>
<g>
</g>
<g>
</g>
<g>
</g>
<g>
</g>
<g>
</g>
<g>
</g>
<g>
</g>
<g>
</g>
<g>
</g>
<g>
</g>
<g>
</g>
<g>
</g>
</svg>
