<?xml version="1.0" encoding="iso-8859-1"?>
<!-- Generator: Adobe Illustrator 19.0.0, SVG Export Plug-In . SVG Version: 6.00 Build 0)  -->
<svg version="1.1" id="Capa_1" xmlns="http://www.w3.org/2000/svg" xmlns:xlink="http://www.w3.org/1999/xlink" x="0px" y="0px"
	 viewBox="0 0 512 512" style="enable-background:new 0 0 512 512;" xml:space="preserve">
<path style="fill:#25C2CE;" d="M406.523,512H105.477c-8.047,0-14.571-6.524-14.571-14.571V14.571C90.906,6.524,97.43,0,105.477,0
	h301.044c8.048,0,14.572,6.524,14.572,14.571v482.857C421.094,505.476,414.57,512,406.523,512z"/>
<g>
	<circle style="fill:#F4E662;" cx="148.898" cy="63.497" r="24.555"/>
	<circle style="fill:#F4E662;" cx="292.488" cy="63.497" r="24.555"/>
	<circle style="fill:#F4E662;" cx="364.283" cy="63.497" r="24.555"/>
	<circle style="fill:#F4E662;" cx="220.693" cy="135.293" r="24.555"/>
	<circle style="fill:#F4E662;" cx="292.488" cy="207.088" r="24.555"/>
	<circle style="fill:#F4E662;" cx="364.283" cy="207.088" r="24.555"/>
	<circle style="fill:#F4E662;" cx="148.898" cy="278.883" r="24.555"/>
	<circle style="fill:#F4E662;" cx="220.693" cy="278.883" r="24.555"/>
</g>
<g>
	<path style="fill:#D8C74C;" d="M148.897,95.889c-17.861,0-32.392-14.531-32.392-32.392s14.53-32.392,32.392-32.392
		s32.392,14.531,32.392,32.392S166.758,95.889,148.897,95.889z M148.897,46.779c-9.218,0-16.718,7.5-16.718,16.718
		s7.5,16.718,16.718,16.718s16.718-7.5,16.718-16.718S158.116,46.779,148.897,46.779z"/>
	<path style="fill:#D8C74C;" d="M292.488,95.889c-17.861,0-32.392-14.531-32.392-32.392s14.53-32.392,32.392-32.392
		c17.861,0,32.392,14.531,32.392,32.392S310.349,95.889,292.488,95.889z M292.488,46.779c-9.218,0-16.718,7.5-16.718,16.718
		s7.5,16.718,16.718,16.718c9.218,0,16.718-7.5,16.718-16.718S301.706,46.779,292.488,46.779z"/>
	<path style="fill:#D8C74C;" d="M364.284,95.889c-17.861,0-32.392-14.531-32.392-32.392s14.53-32.392,32.392-32.392
		s32.392,14.531,32.392,32.392S382.145,95.889,364.284,95.889z M364.284,46.779c-9.218,0-16.718,7.5-16.718,16.718
		s7.5,16.718,16.718,16.718s16.718-7.5,16.718-16.718S373.502,46.779,364.284,46.779z"/>
	<path style="fill:#D8C74C;" d="M220.692,167.685c-8.652,0-16.785-3.37-22.904-9.488c-6.117-6.118-9.488-14.252-9.488-22.904
		c0-8.653,3.371-16.786,9.489-22.904c6.117-6.118,14.251-9.488,22.903-9.488c8.653,0,16.786,3.37,22.905,9.488
		c6.117,6.118,9.487,14.252,9.487,22.904s-3.37,16.786-9.487,22.904l0,0l0,0C237.479,164.315,229.345,167.685,220.692,167.685z
		 M220.692,118.575c-4.465,0-8.663,1.739-11.821,4.896c-3.158,3.158-4.898,7.356-4.898,11.822c0,4.465,1.74,8.664,4.898,11.822
		c3.157,3.158,7.355,4.896,11.821,4.896s8.664-1.739,11.821-4.896l0,0c3.158-3.158,4.897-7.357,4.897-11.822
		c0-4.466-1.739-8.664-4.896-11.822C229.356,120.314,225.159,118.575,220.692,118.575z"/>
	<path style="fill:#D8C74C;" d="M292.488,239.464c-8.294,0-16.59-3.157-22.904-9.472c-12.63-12.63-12.63-33.18-0.001-45.809
		c12.631-12.63,33.181-12.63,45.809,0c12.63,12.629,12.63,33.179,0.001,45.809c0,0,0,0-0.001,0
		C309.078,236.308,300.783,239.464,292.488,239.464z M292.488,190.377c-4.282,0-8.562,1.63-11.822,4.889
		c-6.517,6.518-6.517,17.125,0.001,23.644c6.517,6.518,17.125,6.517,23.644,0c6.517-6.519,6.517-17.126-0.001-23.644
		C301.051,192.007,296.769,190.377,292.488,190.377z"/>
	<path style="fill:#D8C74C;" d="M364.284,239.48c-8.653,0-16.786-3.37-22.905-9.488c-6.117-6.118-9.487-14.252-9.487-22.904
		c0-8.653,3.37-16.786,9.488-22.904c6.117-6.118,14.251-9.488,22.904-9.488c8.652,0,16.785,3.37,22.904,9.488
		c6.117,6.118,9.488,14.252,9.488,22.904s-3.371,16.786-9.488,22.904C381.07,236.11,372.936,239.48,364.284,239.48z M364.284,190.37
		c-4.466,0-8.664,1.739-11.821,4.896c-3.158,3.158-4.897,7.356-4.897,11.822c0,4.465,1.739,8.664,4.897,11.822
		c3.157,3.158,7.355,4.896,11.821,4.896c4.465,0,8.663-1.739,11.821-4.896l0,0c3.158-3.158,4.898-7.357,4.898-11.822
		c0-4.466-1.74-8.664-4.897-11.822C372.947,192.109,368.75,190.37,364.284,190.37z"/>
	<path style="fill:#D8C74C;" d="M148.897,311.275c-17.861,0-32.392-14.531-32.392-32.392c0-17.86,14.53-32.392,32.392-32.392
		s32.392,14.531,32.392,32.392S166.758,311.275,148.897,311.275z M148.897,262.165c-9.218,0-16.718,7.5-16.718,16.718
		s7.5,16.718,16.718,16.718s16.718-7.5,16.718-16.718S158.116,262.165,148.897,262.165z"/>
	<path style="fill:#D8C74C;" d="M220.693,311.275c-17.861,0-32.392-14.531-32.392-32.392c0-17.86,14.53-32.392,32.392-32.392
		s32.392,14.531,32.392,32.392S238.554,311.275,220.693,311.275z M220.693,262.165c-9.218,0-16.718,7.5-16.718,16.718
		s7.5,16.718,16.718,16.718c9.218,0,16.718-7.5,16.718-16.718S229.911,262.165,220.693,262.165z"/>
	<rect x="141.061" y="88.054" style="fill:#D8C74C;" width="15.673" height="166.275"/>
	<rect x="317.043" y="55.662" style="fill:#D8C74C;" width="22.686" height="15.673"/>
	
		<rect x="230.372" y="163.36" transform="matrix(-0.7071 -0.7071 0.7071 -0.7071 316.9601 473.6819)" style="fill:#D8C74C;" width="52.422" height="15.673"/>
	<path style="fill:#D8C74C;" d="M245.341,286.72l-0.186-15.672l44.612-0.527l51.612-51.611l11.083,11.082l-53.869,53.868
		c-1.448,1.447-3.403,2.271-5.449,2.295L245.341,286.72z"/>
</g>
<g>
	<path style="fill:#F4E662;" d="M250.778,387.082c-4.329,0-7.837-3.509-7.837-7.837v-32.059c0-4.328,3.508-7.837,7.837-7.837
		c4.329,0,7.837,3.509,7.837,7.837v32.059C258.614,383.574,255.107,387.082,250.778,387.082z"/>
	<path style="fill:#F4E662;" d="M285.955,387.082c-4.329,0-7.837-3.509-7.837-7.837v-32.059c0-4.328,3.508-7.837,7.837-7.837
		c4.329,0,7.837,3.509,7.837,7.837v32.059C293.792,383.574,290.284,387.082,285.955,387.082z"/>
	<path style="fill:#F4E662;" d="M321.134,387.082c-4.329,0-7.837-3.509-7.837-7.837v-32.059c0-4.328,3.508-7.837,7.837-7.837
		s7.837,3.509,7.837,7.837v32.059C328.97,383.574,325.463,387.082,321.134,387.082z"/>
	<path style="fill:#F4E662;" d="M356.312,387.082c-4.329,0-7.837-3.509-7.837-7.837v-32.059c0-4.328,3.508-7.837,7.837-7.837
		s7.837,3.509,7.837,7.837v32.059C364.149,383.574,360.641,387.082,356.312,387.082z"/>
	<path style="fill:#F4E662;" d="M140.539,483.546c-4.329,0-7.837-3.509-7.837-7.837v-35.527c0-4.328,3.508-7.837,7.837-7.837
		c4.329,0,7.837,3.509,7.837,7.837v35.527C148.376,480.038,144.868,483.546,140.539,483.546z"/>
	<path style="fill:#F4E662;" d="M165.616,483.546c-4.329,0-7.837-3.509-7.837-7.837v-35.527c0-4.328,3.508-7.837,7.837-7.837
		c4.329,0,7.837,3.509,7.837,7.837v35.527C173.453,480.038,169.945,483.546,165.616,483.546z"/>
	<path style="fill:#F4E662;" d="M250.778,484.97c-4.329,0-7.837-3.509-7.837-7.837v-32.059c0-4.328,3.508-7.837,7.837-7.837
		c4.329,0,7.837,3.509,7.837,7.837v32.059C258.614,481.461,255.107,484.97,250.778,484.97z"/>
	<path style="fill:#F4E662;" d="M285.955,484.97c-4.329,0-7.837-3.509-7.837-7.837v-32.059c0-4.328,3.508-7.837,7.837-7.837
		c4.329,0,7.837,3.509,7.837,7.837v32.059C293.792,481.461,290.284,484.97,285.955,484.97z"/>
	<path style="fill:#F4E662;" d="M321.134,484.97c-4.329,0-7.837-3.509-7.837-7.837v-32.059c0-4.328,3.508-7.837,7.837-7.837
		s7.837,3.509,7.837,7.837v32.059C328.97,481.461,325.463,484.97,321.134,484.97z"/>
	<path style="fill:#F4E662;" d="M356.312,484.97c-4.329,0-7.837-3.509-7.837-7.837v-32.059c0-4.328,3.508-7.837,7.837-7.837
		s7.837,3.509,7.837,7.837v32.059C364.149,481.461,360.641,484.97,356.312,484.97z"/>
</g>
<path style="fill:#ED3B72;" d="M153.078,349.277L153.078,349.277c-16.449,0-29.783,13.334-29.783,29.783v61.123h59.565V379.06
	C182.86,362.611,169.526,349.277,153.078,349.277z"/>
<path style="fill:#CE2562;" d="M162.482,350.801c-2.957-0.983-6.117-1.525-9.404-1.525l0,0c-16.449,0-29.783,13.334-29.783,29.783
	v61.123h18.808V379.06C142.103,365.899,150.643,354.74,162.482,350.801z"/>
<path style="fill:#1F3B63;" d="M228.312,437.95v-51.581c0-7.581,6.146-13.727,13.727-13.727h118.832
	c7.581,0,13.727,6.146,13.727,13.727v51.581c0,7.581-6.146,13.727-13.727,13.727H242.039
	C234.457,451.677,228.312,445.531,228.312,437.95z"/>
<g>
</g>
<g>
</g>
<g>
</g>
<g>
</g>
<g>
</g>
<g>
</g>
<g>
</g>
<g>
</g>
<g>
</g>
<g>
</g>
<g>
</g>
<g>
</g>
<g>
</g>
<g>
</g>
<g>
</g>
</svg>
