<?xml version="1.0" encoding="iso-8859-1"?>
<!-- Generator: Adobe Illustrator 19.0.0, SVG Export Plug-In . SVG Version: 6.00 Build 0)  -->
<svg version="1.1" id="Capa_1" xmlns="http://www.w3.org/2000/svg" xmlns:xlink="http://www.w3.org/1999/xlink" x="0px" y="0px"
	 viewBox="0 0 512 512" style="enable-background:new 0 0 512 512;" xml:space="preserve">
<path style="fill:#787780;" d="M467,0H45C20.098,0,0,20.099,0,45v300c0,24.899,20.098,45,45,45h422c24.902,0,45-20.101,45-45V45
	C512,20.099,491.902,0,467,0z"/>
<path style="fill:#57555C;" d="M512,195v150c0,24.899-20.098,45-45,45H45c-24.902,0-45-20.101-45-45V195H512z"/>
<g>
	<circle style="fill:#1DE8F1;" cx="75" cy="75" r="15"/>
	<circle style="fill:#1DE8F1;" cx="75" cy="135" r="15"/>
	<path style="fill:#1DE8F1;" d="M90,195c0,3.9-1.501,7.8-4.501,10.499c-5.702,6-15.297,6-20.999,0C61.501,202.8,60,198.9,60,195
		s1.501-7.8,4.501-10.501c5.702-5.999,15.297-5.999,20.999,0C88.499,187.2,90,191.1,90,195z"/>
</g>
<g>
	<circle style="fill:#1BD9DE;" cx="75" cy="255" r="15"/>
	<circle style="fill:#1BD9DE;" cx="75" cy="315" r="15"/>
</g>
<path style="fill:#787780;" d="M146.499,486.499C140.2,479.9,138.702,472.1,138.702,467c0-5.101,1.498-12.9,7.797-19.501
	L129.701,422H76c-24.902,0-45,20.099-45,45c0,24.899,20.098,45,45,45h53.701l17.999-23.701
	C147.7,487.7,147.1,487.099,146.499,486.499z"/>
<path style="fill:#57555C;" d="M146.499,486.499c0.601,0.601,1.201,1.201,1.201,1.8L129.701,512H76c-24.902,0-45-20.101-45-45
	h107.703C138.703,472.099,140.2,479.9,146.499,486.499z"/>
<path style="fill:#1BD9DE;" d="M60,195h30c0,3.9-1.501,7.8-4.501,10.499c-5.702,6-15.297,6-20.999,0C61.501,202.8,60,198.9,60,195z"
	/>
<path style="fill:#18A7FC;" d="M386.499,447.499L370.001,422h-240.3l-4.2,4.499C114.701,437,108.703,451.7,108.703,467
	s5.999,29.7,16.798,40.499l4.2,4.501h240l16.501-25.8c-6.002-6.601-7.5-14.101-7.5-19.2c0-5.101,1.498-12.601,7.797-19.2V447.499z"
	/>
<path style="fill:#1689FC;" d="M386.203,486.2L369.701,512h-240l-4.2-4.501c-10.8-10.8-16.798-25.199-16.798-40.499h270
	C378.703,472.099,380.2,479.599,386.203,486.2z"/>
<path style="fill:#787780;" d="M470.797,452.899l-89.399-29.7c-0.897-0.6-3.897-1.199-5.398-1.199h-5.999l-4.501,4.499
	C354.701,437,348.703,451.7,348.703,467s5.999,29.7,16.798,40.499l4.2,4.501H376c1.501,0,3.3-0.3,4.797-0.901h0.601l89.399-30
	C476.8,479.299,481,473.599,481,467C481,460.399,476.8,454.699,470.797,452.899z"/>
<path style="fill:#57555C;" d="M481,467c0,6.599-4.2,12.299-10.203,14.099l-89.399,30h-0.601C379.3,511.7,377.501,512,376,512
	h-6.299l-4.2-4.501c-10.8-10.8-16.798-25.199-16.798-40.499H481z"/>
<path style="fill:#CAE8F9;" d="M437,60H135c-8.401,0-15,6.599-15,15v240c0,8.399,6.599,15,15,15h302c8.401,0,15-6.601,15-15V75
	C452,66.599,445.401,60,437,60z"/>
<path style="fill:#B7E0F6;" d="M452,195v120c0,8.399-6.599,15-15,15H135c-8.401,0-15-6.601-15-15V195H452z"/>
<g>
</g>
<g>
</g>
<g>
</g>
<g>
</g>
<g>
</g>
<g>
</g>
<g>
</g>
<g>
</g>
<g>
</g>
<g>
</g>
<g>
</g>
<g>
</g>
<g>
</g>
<g>
</g>
<g>
</g>
</svg>
