<?xml version="1.0" encoding="iso-8859-1"?>
<!-- Generator: Adobe Illustrator 19.0.0, SVG Export Plug-In . SVG Version: 6.00 Build 0)  -->
<svg xmlns="http://www.w3.org/2000/svg" xmlns:xlink="http://www.w3.org/1999/xlink" version="1.1" id="Layer_1" x="0px" y="0px" viewBox="0 0 496 496" style="enable-background:new 0 0 496 496;" xml:space="preserve" width="512px" height="512px">
<g>
	<g>
		<g>
			<path d="M473.008,242.324l-188.44-96.576c0.84-3.128,1.432-6.36,1.432-9.752c0-20.952-17.048-38-38-38c-20.952,0-38,17.048-38,38     c0,3.392,0.592,6.624,1.432,9.76l-188.44,96.568C8.816,249.588,0,264.012,0,279.948c0,14.696,7.448,28.112,19.92,35.88     c6.856,4.272,14.576,6.432,22.328,6.424c6.352,0,12.736-1.448,18.68-4.368L64,316.372v179.624h367.992v-48h48v-134.96     C489.984,305.18,496,293.18,496,279.948C496,264.012,487.184,249.588,473.008,242.324z M248,113.996c12.136,0,22,9.864,22,22     s-9.864,22-22,22s-22-9.864-22-22S235.864,113.996,248,113.996z M287.992,479.996h-80v-80h80V479.996z M415.992,480.004h-112     v-96.008h-112v96.008H80V308.508l147.528-72.536c12.816-6.296,28.128-6.296,40.936,0l138.352,68.024h-70.824v144h80V480.004z      M463.992,431.996h-112v-112h112V431.996z M464.024,303.996h-20.752c-0.376-0.152-0.76-0.28-1.136-0.472l-166.608-81.912     c-17.24-8.472-37.832-8.48-55.072,0.008L53.864,303.524c-8.192,4.016-17.72,3.552-25.488-1.272     c-7.752-4.832-12.384-13.168-12.384-22.304c0-9.904,5.48-18.864,14.288-23.392l188.472-96.592     c6.976,8.488,17.416,14.024,29.24,14.024c11.824,0,22.264-5.536,29.24-14.032l188.48,96.6     c8.816,4.52,14.288,13.488,14.288,23.392C480,290.532,473.744,299.812,464.024,303.996z" fill="#FFFFFF"/>
			<path d="M351.992,135.996c0-57.344-46.648-103.992-103.992-103.992S144.008,78.652,144.008,135.996h16     c0-48.512,39.48-87.992,87.992-87.992c48.512,0,87.992,39.48,87.992,87.992H351.992z" fill="#FFFFFF"/>
			<path d="M248,16.004c66.16,0,119.992,53.824,119.992,119.992h16C383.992,61.012,322.984,0.004,248,0.004     S112.008,61.012,112.008,135.996h16C128.008,69.828,181.832,16.004,248,16.004z" fill="#FFFFFF"/>
			<path d="M248,63.996c-39.704,0-72,32.296-72,72h16c0-30.872,25.128-56,56-56s56,25.128,56,56h16     C320,96.292,287.704,63.996,248,63.996z" fill="#FFFFFF"/>
			<path d="M247.992,263.996c-26.472,0-48,21.528-48,48s21.528,48,48,48s48-21.528,48-48S274.464,263.996,247.992,263.996z      M239.992,342.86c-11.192-2.904-19.96-11.672-22.864-22.864h22.864V342.86z M239.992,303.996h-22.864     c2.904-11.192,11.672-19.96,22.864-22.864V303.996z M255.992,342.86v-22.864h22.864     C275.952,331.188,267.184,339.956,255.992,342.86z M255.992,303.996v-22.864c11.192,2.904,19.96,11.672,22.864,22.864H255.992z" fill="#FFFFFF"/>
			<rect x="255.992" y="431.996" width="16" height="16" fill="#FFFFFF"/>
			<path d="M447.992,335.996h-80v48h80V335.996z M431.992,367.996h-48v-16h48V367.996z" fill="#FFFFFF"/>
			<rect x="367.992" y="399.996" width="16" height="16" fill="#FFFFFF"/>
			<rect x="399.992" y="399.996" width="16" height="16" fill="#FFFFFF"/>
			<rect x="431.992" y="399.996" width="16" height="16" fill="#FFFFFF"/>
		</g>
	</g>
</g>
<g>
</g>
<g>
</g>
<g>
</g>
<g>
</g>
<g>
</g>
<g>
</g>
<g>
</g>
<g>
</g>
<g>
</g>
<g>
</g>
<g>
</g>
<g>
</g>
<g>
</g>
<g>
</g>
<g>
</g>
</svg>
