<?xml version="1.0" encoding="iso-8859-1"?>
<!-- Generator: Adobe Illustrator 19.0.0, SVG Export Plug-In . SVG Version: 6.00 Build 0)  -->
<svg xmlns="http://www.w3.org/2000/svg" xmlns:xlink="http://www.w3.org/1999/xlink" version="1.1" id="Capa_1" x="0px" y="0px" viewBox="0 0 496 496" style="enable-background:new 0 0 496 496;" xml:space="preserve" width="512px" height="512px">
<g>
	<g>
		<g>
			<path d="M264,208c57.344,0,104-46.656,104-104S321.344,0,264,0S160,46.656,160,104S206.656,208,264,208z M288.144,188.552     c5.008-5.704,10.288-12.728,15.12-21.152c5.576,2.496,9.696,5.224,12.568,7.552C307.568,181.008,298.24,185.664,288.144,188.552z      M272,144.248V112h31.64c-0.928,13.664-4.136,25.576-8.472,35.768C288.456,146.016,280.776,144.744,272,144.248z      M327.912,164.304c-3.904-3.448-9.68-7.568-17.648-11.216c4.896-11.744,8.432-25.424,9.368-41.088h31.96     C349.768,132.176,341.08,150.36,327.912,164.304z M351.592,96h-31.96c-0.936-15.664-4.48-29.344-9.368-41.088     c7.968-3.648,13.744-7.776,17.648-11.216C341.08,57.64,349.768,75.824,351.592,96z M315.832,33.048     c-2.872,2.336-6.992,5.056-12.568,7.552c-4.832-8.424-10.112-15.448-15.12-21.152C298.24,22.336,307.568,26.992,315.832,33.048z      M272,25.616c4.824,4.976,10.36,11.648,15.512,20.024c-4.616,0.984-9.736,1.744-15.512,2.104V25.616z M272,63.744     c8.736-0.488,16.384-1.752,23.064-3.488c4.376,10.216,7.616,22.12,8.568,35.744H272V63.744z M272,160.256     c5.832,0.36,11,1.136,15.656,2.144c-5.192,8.448-10.784,15.152-15.656,20.128V160.256z M212.168,174.952     c2.872-2.336,6.992-5.056,12.568-7.552c4.832,8.424,10.112,15.448,15.12,21.152C229.76,185.664,220.432,181.008,212.168,174.952z      M256,182.384c-4.824-4.976-10.36-11.648-15.512-20.024c4.616-0.992,9.736-1.752,15.512-2.112V182.384z M256,144.256     c-8.736,0.488-16.384,1.752-23.064,3.488c-4.376-10.216-7.616-22.12-8.568-35.744H256V144.256z M256,25.624v22.12     c-5.784-0.36-10.904-1.12-15.52-2.112C245.616,37.304,251.176,30.608,256,25.624z M239.856,19.44     c-4.984,5.704-10.28,12.752-15.104,21.168c-5.584-2.504-9.712-5.232-12.592-7.568C220.432,26.984,229.76,22.328,239.856,19.44z      M200.088,43.696c3.904,3.448,9.68,7.568,17.64,11.216c-1.952,4.688-3.72,9.656-5.184,14.968l15.432,4.24     c1.36-4.928,3.016-9.56,4.872-13.888c6.696,1.752,14.376,3.024,23.152,3.512V96h-31.712c0.16-2.344,0.376-4.68,0.68-6.968     l-15.864-2.08c-0.392,2.968-0.656,5.992-0.84,9.04h-31.856C178.232,75.824,186.92,57.64,200.088,43.696z M208.36,112     c0.936,15.664,4.48,29.344,9.368,41.088c-7.968,3.648-13.744,7.776-17.648,11.216C186.912,150.36,178.232,132.176,176.4,112     H208.36z" fill="#FFFFFF"/>
			<path d="M168,256H40c-13.232,0-24,10.768-24,24v192c0,13.232,10.768,24,24,24h128c13.232,0,24-10.768,24-24V280     C192,266.768,181.232,256,168,256z M176,472c0,4.416-3.592,8-8,8H40c-4.408,0-8-3.584-8-8v-40h144V472z M176,416H32V304h144V416z      M176,288H32v-8c0-4.416,3.592-8,8-8h128c4.408,0,8,3.584,8,8V288z" fill="#FFFFFF"/>
			<rect x="80" y="448" width="48" height="16" fill="#FFFFFF"/>
			<path d="M443.68,296c7.632-8.504,12.32-19.696,12.32-32c0-26.472-21.528-48-48-48s-48,21.528-48,48     c0,12.304,4.688,23.496,12.32,32H336v104h32v96h80v-96h32V296H443.68z M408,232c17.648,0,32,14.352,32,32s-14.352,32-32,32     s-32-14.352-32-32S390.352,232,408,232z M432,400v80h-16v-80h-16v80h-16v-80v-16h48V400z M464,384h-16v-16v-40h-16v40h-48v-40     h-16v40v16h-16v-72h112V384z" fill="#FFFFFF"/>
			<path d="M408,144c2.432,0,4.744-0.472,6.96-1.152c14.144,20.264,23.952,42.72,29.056,66.856l15.656-3.312     c-5.584-26.352-16.296-50.872-31.784-72.968C430.48,129.592,432,124.968,432,120c0-13.232-10.768-24-24-24s-24,10.768-24,24     S394.768,144,408,144z M408,112c4.408,0,8,3.592,8,8c0,4.408-3.592,8-8,8c-4.408,0-8-3.592-8-8S403.592,112,408,112z" fill="#FFFFFF"/>
			<path d="M312,408c-12.672,0-22.968,9.896-23.832,22.352c-25.6,3.344-52.208,1.368-76.928-6.024l-4.576,15.328     C225.184,445.192,244.48,448,264,448c9.552,0,19.08-0.816,28.464-2.16C296.816,451.968,303.928,456,312,456     c13.232,0,24-10.768,24-24S325.232,408,312,408z M312,440c-4.408,0-8-3.584-8-8c0-4.416,3.592-8,8-8c4.408,0,8,3.584,8,8     C320,436.416,316.408,440,312,440z" fill="#FFFFFF"/>
			<path d="M80,232c13.232,0,24-10.768,24-24c0-9.4-5.48-17.472-13.376-21.408c11.408-32.272,31.392-60.608,58.376-82.232     l-10.008-12.488c-30.28,24.272-52.48,56.328-64.64,92.872C63.848,187.304,56,196.72,56,208C56,221.232,66.768,232,80,232z      M80,200c4.408,0,8,3.592,8,8s-3.592,8-8,8s-8-3.592-8-8S75.592,200,80,200z" fill="#FFFFFF"/>
			<rect x="48" y="320" width="16" height="48" fill="#FFFFFF"/>
			<rect x="48" y="384" width="16" height="16" fill="#FFFFFF"/>
		</g>
	</g>
</g>
<g>
</g>
<g>
</g>
<g>
</g>
<g>
</g>
<g>
</g>
<g>
</g>
<g>
</g>
<g>
</g>
<g>
</g>
<g>
</g>
<g>
</g>
<g>
</g>
<g>
</g>
<g>
</g>
<g>
</g>
</svg>
