<?xml version="1.0" encoding="iso-8859-1"?>
<!-- Generator: Adobe Illustrator 19.0.0, SVG Export Plug-In . SVG Version: 6.00 Build 0)  -->
<svg version="1.1" id="Layer_1" xmlns="http://www.w3.org/2000/svg" xmlns:xlink="http://www.w3.org/1999/xlink" x="0px" y="0px"
	 viewBox="0 0 496 496" style="enable-background:new 0 0 496 496;" xml:space="preserve">
<path style="fill:#F9BA48;" d="M64,152v312h344V152H64z M232,400c-53.016,0-96-42.984-96-96s42.984-96,96-96s96,42.984,96,96
	S285.016,400,232,400z"/>
<g>
	<path style="fill:#333333;" d="M456,120H40c-22.056,0-40,17.944-40,40v296c0,22.056,17.944,40,40,40h416c22.056,0,40-17.944,40-40
		V160C496,137.944,478.056,120,456,120z M480,456c0,13.232-10.768,24-24,24H40c-13.232,0-24-10.768-24-24V160
		c0-13.232,10.768-24,24-24h416c13.232,0,24,10.768,24,24V456z"/>
	<rect x="32" y="256" style="fill:#333333;" width="16" height="64"/>
	<rect x="32" y="352" style="fill:#333333;" width="16" height="16"/>
	<path style="fill:#333333;" d="M444,284c-15.44,0-28,12.56-28,28s12.56,28,28,28s28-12.56,28-28S459.44,284,444,284z M444,324
		c-6.616,0-12-5.384-12-12s5.384-12,12-12s12,5.384,12,12S450.616,324,444,324z"/>
	<path style="fill:#333333;" d="M232,200c-57.344,0-104,46.656-104,104s46.656,104,104,104s104-46.656,104-104S289.344,200,232,200z
		 M287.624,296c-0.88-13.52-3.848-25.728-8.032-36.512c7.832-4.848,13.496-10.28,17.264-14.76
		c12.632,13.808,20.952,31.584,22.744,51.272H287.624z M240,226.392c5.752,6.232,12.512,14.768,18.368,25.496
		c-5.296,1.808-11.384,3.168-18.368,3.768L240,226.392L240,226.392z M255.096,219.176c10.984,2.992,21.096,8.056,29.928,14.76
		c-2.552,3.128-6.472,7.136-12.168,10.904C267.272,234.48,260.936,225.912,255.096,219.176z M224,226.456v29.192
		c-6.968-0.592-13.048-1.936-18.328-3.728C211.52,241.232,218.264,232.696,224,226.456z M191.144,244.856
		c-5.688-3.768-9.624-7.768-12.176-10.912c8.84-6.704,18.952-11.768,29.936-14.768C203.064,225.912,196.72,234.488,191.144,244.856z
		 M224,271.664V296h-31.608c0.832-10.76,3.184-20.64,6.52-29.464C206.048,269.128,214.4,270.976,224,271.664z M224,312v24.336
		c-9.616,0.688-17.976,2.544-25.12,5.136c-3.32-8.816-5.664-18.696-6.488-29.472H224z M224,352.344v29.264
		c-5.752-6.232-12.512-14.768-18.368-25.496C210.92,354.304,217.016,352.944,224,352.344z M208.904,388.824
		c-10.984-2.992-21.096-8.056-29.928-14.76c2.552-3.128,6.472-7.136,12.168-10.904C196.728,373.52,203.064,382.088,208.904,388.824z
		 M240,381.544v-29.192c6.968,0.592,13.048,1.936,18.328,3.728C252.48,366.768,245.736,375.304,240,381.544z M272.856,363.144
		c5.696,3.768,9.632,7.776,12.176,10.912c-8.84,6.704-18.952,11.768-29.944,14.768C260.936,382.08,267.28,373.512,272.856,363.144z
		 M240,336.336V312h31.608c-0.832,10.76-3.184,20.64-6.52,29.464C257.952,338.872,249.6,337.024,240,336.336z M240,296v-24.336
		c9.616-0.688,17.976-2.544,25.12-5.136c3.32,8.816,5.664,18.696,6.488,29.472H240z M167.144,244.728
		c3.768,4.48,9.44,9.912,17.264,14.76c-4.184,10.784-7.152,22.992-8.032,36.512H144.4
		C146.192,276.312,154.512,258.536,167.144,244.728z M144.408,312h31.976c0.88,13.52,3.848,25.728,8.032,36.512
		c-7.832,4.848-13.504,10.28-17.264,14.76C154.512,349.464,146.192,331.688,144.408,312z M296.856,363.272
		c-3.768-4.48-9.44-9.912-17.264-14.76c4.192-10.784,7.152-22.992,8.032-36.512H319.6
		C317.808,331.688,309.488,349.464,296.856,363.272z"/>
	<path style="fill:#333333;" d="M212,84c0,11.032,8.968,20,20,20s20-8.968,20-20s-8.968-20-20-20S212,72.968,212,84z M236,84
		c0,2.2-1.8,4-4,4s-4-1.8-4-4s1.8-4,4-4S236,81.8,236,84z"/>
	<path style="fill:#333333;" d="M232,16c28.232,0,53.104,17.048,63.352,43.432l14.912-5.8C297.6,21.056,266.88,0,232,0
		s-65.6,21.056-78.264,53.632l14.912,5.8C178.896,33.048,203.768,16,232,16z"/>
	<path style="fill:#333333;" d="M265.968,72.176l15.112-5.264C273.8,46.032,254.08,32,232,32s-41.8,14.032-49.08,34.912
		l15.112,5.264C203.072,57.72,216.728,48,232,48S260.928,57.72,265.968,72.176z"/>
</g>
<g>
</g>
<g>
</g>
<g>
</g>
<g>
</g>
<g>
</g>
<g>
</g>
<g>
</g>
<g>
</g>
<g>
</g>
<g>
</g>
<g>
</g>
<g>
</g>
<g>
</g>
<g>
</g>
<g>
</g>
</svg>
