<svg xmlns="http://www.w3.org/2000/svg" xmlns:xlink="http://www.w3.org/1999/xlink" xmlns:fi="http://pattern.flaticon.com/" x="0" y="0" width="2048" height="1024" viewBox="0 0 2048 1024"><rect x="0px" y="0px" width="100%" height="100%" opacity="1" fill="#cdffff"/><defs><g transform="matrix(0.1321035921573639 0 0 0.1321035921573639 201 310)" id="L1_2"><g><path d="M308.568,16.225v169.831c0,7.511-5.104,13.836-12.042,15.676c-1.335,0.357-2.737,0.546-4.18,0.546    H18.68c-8.961,0-16.223-7.262-16.223-16.223V16.225c0-8.961,7.262-16.223,16.223-16.223h273.666c1.443,0,2.845,0.189,4.18,0.546    C303.464,2.389,308.568,8.713,308.568,16.225z" fill="#e6e6e6"/><path d="M308.566,16.223v16.142H2.456V16.223C2.456,7.262,9.718,0,18.678,0h273.666    C301.305,0,308.566,7.262,308.566,16.223z" fill="#b3b3b3"/><circle cx="24" cy="16" r="10" fill="#fc7a51"/><circle cx="51" cy="16" r="10" fill="#f9de58"/></g><g><rect x="32px" y="61px" width="235px" height="11px" fill="#808080"/><rect x="32px" y="85px" width="235px" height="11px" fill="#808080"/><rect x="32px" y="109px" width="235px" height="11px" fill="#808080"/><rect x="32px" y="134px" width="235px" height="11px" fill="#808080"/><rect x="32px" y="158px" width="235px" height="11px" fill="#808080"/></g><path d="M307.569,222.203l-40.93,37.75c-18.44,17.01-46.85,17.01-65.29,0l-40.92-37.75   c-11.06-10.2-16.84-24.89-15.72-39.89l2.38-49c0.25-3.29,0.67-6.53,1.28-9.7c2.84-15.07,9.53-28.71,18.98-39.91   c4.2-4.99,8.95-9.49,14.15-13.41c14.64-11.07,32.85-17.59,52.5-17.59s37.86,6.53,52.5,17.59c2.35,1.77,4.61,3.66,6.77,5.66   c2.61,2.43,5.08,5.01,7.38,7.74c9.45,11.2,16.14,24.84,18.98,39.92c0.61,3.17,1.03,6.41,1.28,9.7l2.37,49   C324.409,197.312,318.618,212.003,307.569,222.203z" fill="#fcd18b"/><path d="M263.829,209.692c0,3.104-0.476,6.099-1.357,8.906c-3.79,12.127-15.107,20.925-28.474,20.925   c-13.375,0-24.692-8.797-28.474-20.925c-0.881-2.808-1.357-5.802-1.357-8.906H263.829z" fill="#ffffff"/><path d="M345.49,124.923h-13c0-54.31-44.185-98.495-98.494-98.495c-54.311,0-98.495,44.185-98.495,98.495   h-13c0-61.479,50.017-111.495,111.495-111.495S345.49,63.445,345.49,124.923z" fill="#f9de58"/><path d="M319.629,123.613c-2.84-15.08-9.53-28.72-18.98-39.92c-2.3-2.73-4.77-5.31-7.38-7.74   c-1.045-0.969-2.118-1.907-3.209-2.824c-0.219-0.184-0.446-0.357-0.667-0.538c-0.894-0.736-1.798-1.459-2.72-2.159   c-0.059-0.045-0.115-0.094-0.174-0.138c-0.002,0.002-0.004,0.004-0.007,0.005c-14.643-11.057-32.847-17.595-52.493-17.595   c-19.651,0-37.86,6.529-52.498,17.592c0,0-0.001-0.001-0.002-0.002c-0.022,0.017-0.042,0.035-0.064,0.051   c-1.208,0.915-2.391,1.86-3.549,2.835c-0.112,0.094-0.225,0.188-0.337,0.282c-1.108,0.943-2.191,1.915-3.251,2.911   c-0.127,0.12-0.256,0.237-0.383,0.357c-1.066,1.015-2.104,2.058-3.117,3.125c-0.093,0.098-0.188,0.193-0.28,0.291   c-1.088,1.156-2.145,2.342-3.169,3.557c-9.45,11.2-16.14,24.84-18.98,39.91c12.765-3.477,24.129-10.323,33.119-19.504   c13.34,13.625,31.938,22.084,52.511,22.084c20.574,0,39.164-8.459,52.5-22.079C295.493,113.295,306.862,120.141,319.629,123.613z" fill="#808080"/><g><circle cx="194" cy="163" r="10" fill="#808080"/><circle cx="272" cy="163" r="10" fill="#808080"/></g><g><path d="M180.095,250.953 231.095,301.953 207.095,340.953 167.095,260.953z" fill="#e6e6e6"/><path d="M287.895,250.953 236.895,301.953 260.895,340.953 300.895,260.953z" fill="#e6e6e6"/></g><path d="M248.137,334.953 233.995,310.953 219.853,334.953 233.995,349.095z" fill="#2be0c6"/><path d="M272.881,415.304 233.995,349.313 195.11,415.304 233.995,454.189z" fill="#2be0c6"/><path d="M184.959,224.953c0,1.8-0.73,3.42-1.9,4.6c-1.18,1.17-2.8,1.9-4.6,1.9h-30.73   c-14.42,0-26.11-11.69-26.11-26.11v-17.39h13v17.39c0,7.24,5.87,13.11,13.11,13.11h30.73   C182.049,218.453,184.959,221.362,184.959,224.953z" fill="#fc7a51"/><g><path d="M137.457,113.853c-22.556,0-40.841,18.285-40.841,40.841s18.285,40.841,40.841,40.841" fill="#29abe2"/><path d="M330.533,113.853c22.556,0,40.841,18.285,40.841,40.841s-18.285,40.841-40.841,40.841" fill="#29abe2"/></g><path d="M184.959,224.953c0,1.8-0.73,3.42-1.9,4.6c-1.18,1.17-2.8,1.9-4.6,1.9h-19v-13h19   C182.049,218.453,184.959,221.362,184.959,224.953z" fill="#808080"/><g><path d="M439.846,424.854H319.62c-6.565,0-11.887-5.322-11.887-11.887V257.741    c0-6.565,5.322-11.887,11.887-11.887h120.227c6.565,0,11.887,5.322,11.887,11.887v155.227    C451.733,419.532,446.411,424.854,439.846,424.854z" fill="#808080"/><rect x="322px" y="260px" width="114px" height="149px" fill="#e6e6e6"/><path d="M393.161,237.854h-26.855c-4.182,0-7.572,3.39-7.572,7.572v25.428h42v-25.428    C400.733,241.244,397.342,237.854,393.161,237.854z" fill="#29abe2"/><g><rect x="336px" y="285px" width="86px" height="11px" fill="#29abe2"/><rect x="336px" y="309px" width="86px" height="11px" fill="#29abe2"/><rect x="336px" y="334px" width="86px" height="11px" fill="#29abe2"/><rect x="336px" y="358px" width="86px" height="11px" fill="#29abe2"/><rect x="336px" y="382px" width="43px" height="11px" fill="#29abe2"/></g></g><path d="M58.285,239.366c-30.369,0-54.987,24.619-54.987,54.987c0,17.057,7.768,32.3,19.958,42.385   l-11.133,31.173l28.672-21.413l-0.013-0.02c5.5,1.846,11.382,2.862,17.504,2.862c30.368,0,54.987-24.619,54.987-54.987   S88.654,239.366,58.285,239.366z" fill="#fc7a51"/><path d="M49.943,303.296c0-3.263,0.533-6.194,1.599-8.792c1.065-2.598,3.263-4.861,6.594-6.794    c0.999-0.599,2.231-1.282,3.697-2.048c1.464-0.765,2.897-1.681,4.296-2.747c1.399-1.065,2.58-2.314,3.547-3.747    c0.965-1.431,1.449-3.08,1.449-4.945c0-1.399-0.267-2.63-0.799-3.697c-0.534-1.065-1.233-1.964-2.098-2.697    c-0.867-0.732-1.883-1.282-3.047-1.649c-1.166-0.365-2.348-0.549-3.546-0.549c-1.466,0-2.798,0.25-3.997,0.749    s-2.282,1.133-3.247,1.898c-0.967,0.767-1.833,1.633-2.598,2.598c-0.766,0.966-1.416,1.883-1.948,2.748l-8.692-5.995    c0.865-2.064,2.014-3.896,3.447-5.495c1.431-1.599,3.063-2.947,4.895-4.046c1.831-1.099,3.812-1.931,5.945-2.497    c2.131-0.565,4.329-0.849,6.594-0.849c2.531,0,5.029,0.367,7.494,1.099c2.463,0.734,4.678,1.898,6.644,3.497    c1.964,1.599,3.562,3.647,4.795,6.144c1.232,2.498,1.848,5.479,1.848,8.942c0,2.132-0.249,4.013-0.749,5.645    c-0.499,1.633-1.217,3.114-2.148,4.446c-0.933,1.333-2.033,2.532-3.297,3.597c-1.266,1.066-2.698,2.098-4.296,3.097    c-1.333,0.799-2.665,1.566-3.997,2.298c-1.333,0.734-2.548,1.549-3.647,2.448c-1.099,0.899-1.998,1.932-2.698,3.097    c-0.699,1.166-1.049,2.582-1.049,4.246H49.943V303.296z M50.143,326.574v-13.787h11.09v13.787H50.143z" fill="#ffffff"/><g><path d="M186.362,321.124l11.133-31.173l-28.672,21.413l0.013,0.02c-5.5-1.846-11.382-2.862-17.504-2.862    c-30.369,0-54.987,24.619-54.987,54.987s24.618,54.987,54.987,54.987c30.368,0,54.987-24.619,54.987-54.987    C206.32,346.452,198.552,331.21,186.362,321.124z" fill="#29abe2"/><path d="M145.49,371.66v-39.244h11.687v39.244H145.49z M145.49,394.945v-13.168h11.687v13.168H145.49z" fill="#ffffff"/></g></g><g transform="matrix(0.14693278074264526 0 0 0.14693278074264526 87 178)" id="L1_3"><path d="M408.35,163.055v149.11c0,36.61-29.78,66.39-66.39,66.39h-90.89c-3.29,11.82-14.14,20.52-26.99,20.52h-27.36   c-15.44,0-28.01-12.57-28.01-28.02c0-15.45,12.57-28.02,28.01-28.02h27.36c12.85,0,23.7,8.7,26.99,20.52h90.89   c28.34,0,51.39-23.05,51.39-51.39v-5.46c-7.48,6.41-17.19,10.3-27.8,10.3h-33.32c-9.92,0-17.98-8.07-17.98-17.99v-118.1   c0-9.91,8.06-17.98,17.98-17.98h33.32c10.6,0,20.31,3.88,27.8,10.29v-10.17c0-64.07-48.58-117.26-111.65-123.56   c-3.4,7.16-10.68,12.14-19.12,12.14h-116.8c-8.44,0-15.72-4.98-19.13-12.14C63.59,45.805,15,98.985,15,163.055v10.18   c7.49-6.41,17.2-10.3,27.8-10.3h33.32c9.92,0,17.99,8.07,17.99,17.98v118.1c0,9.92-8.07,17.99-17.99,17.99H42.8   c-23.6,0-42.8-19.2-42.8-42.8v-111.15c0-71.91,54.61-131.58,125.45-138.51c2.57-8.81,10.7-15.27,20.33-15.27h116.8   c9.62,0,17.76,6.46,20.32,15.27C353.74,31.475,408.35,91.135,408.35,163.055z M393.35,274.205v-68.47c0-15.33-12.47-27.8-27.8-27.8   h-15.34v124.07h15.34C380.88,302.005,393.35,289.535,393.35,274.205z M335.21,302.005v-124.07h-2.98c-1.64,0-2.98,1.34-2.98,2.98   v118.1c0,1.65,1.34,2.99,2.98,2.99H335.21z M268.76,30.455c0-3.41-2.78-6.18-6.18-6.18h-116.8c-3.41,0-6.18,2.77-6.18,6.18   s2.77,6.18,6.18,6.18h116.8C265.98,36.635,268.76,33.865,268.76,30.455z M237.1,371.055c0-7.18-5.84-13.02-13.02-13.02h-27.36   c-7.17,0-13.01,5.84-13.01,13.02s5.84,13.02,13.01,13.02h27.36C231.26,384.075,237.1,378.235,237.1,371.055z M79.11,299.015v-118.1   c0-1.64-1.34-2.98-2.99-2.98h-2.98v124.07h2.98C77.77,302.005,79.11,300.665,79.11,299.015z M58.14,302.005v-124.07H42.8   c-15.33,0-27.8,12.47-27.8,27.8v68.47c0,15.33,12.47,27.8,27.8,27.8H58.14z"/><path d="M393.35,205.735v68.47c0,15.33-12.47,27.8-27.8,27.8h-15.34v-124.07h15.34   C380.88,177.935,393.35,190.405,393.35,205.735z" fill="#3dd0f2"/><path d="M262.58,24.275c3.4,0,6.18,2.77,6.18,6.18s-2.78,6.18-6.18,6.18h-116.8c-3.41,0-6.18-2.77-6.18-6.18   s2.77-6.18,6.18-6.18H262.58z" fill="#ffffff"/><path d="M224.08,358.035c7.18,0,13.02,5.84,13.02,13.02s-5.84,13.02-13.02,13.02h-27.36   c-7.17,0-13.01-5.84-13.01-13.02s5.84-13.02,13.01-13.02H224.08z" fill="#f48c6c"/><path d="M58.14,177.935v124.07H42.8c-15.33,0-27.8-12.47-27.8-27.8v-68.47c0-15.33,12.47-27.8,27.8-27.8   H58.14z" fill="#3dd0f2"/></g><g transform="matrix(0.1171875 0 0 0.1171875 173 172.00000274658214)" id="L1_4"><path d="M282.381,352.599c0.067,7.018-4.038,13.436-10.443,16.302  c-31.417,14.065-74.432,22.747-121.909,22.747s-90.492-8.682-121.909-22.747c-6.406-2.868-10.51-9.284-10.443-16.302  c1.27-131.996,25.959-246.668,132.352-246.668S281.11,220.604,282.381,352.599z" fill="#5a4146"/><path d="M283.841,425.761l-78.77-32.821c-6.579-2.741-10.865-9.17-10.865-16.298V355.31h-88.276v21.333  c0,7.127-4.286,13.556-10.865,16.298l-78.77,32.821C6.429,429.873,0,439.516,0,450.207v35.31c0,9.75,7.905,17.655,17.655,17.655  h264.828c9.75,0,17.655-7.905,17.655-17.655v-35.31C300.138,439.516,293.709,429.873,283.841,425.761z" fill="#e6af78"/><path d="M194.207,355.31h-88.276v21.333c0,7.127-4.286,13.556-10.865,16.298l-12.302,5.127  C176.908,422.072,194.207,355.31,194.207,355.31z" fill="#d29b6e"/><path d="M283.841,425.761l-58.212-24.255c-38.051,47.802-75.56,57.528-75.56,57.528  s-37.508-9.726-75.56-57.528l-58.212,24.255C6.429,429.873,0,439.516,0,450.207v35.31c0,9.75,7.905,17.655,17.655,17.655h264.828  c9.75,0,17.655-7.905,17.655-17.655v-35.31C300.138,439.516,293.709,429.873,283.841,425.761z" fill="#c3e678"/><path d="M238.345,238.345l-7.137,78.504c-1.058,11.636-7.804,21.996-18.017,27.67l-45.974,25.542  c-10.665,5.924-23.631,5.924-34.296,0l-45.973-25.542c-10.214-5.674-16.959-16.034-18.017-27.67l-7.137-78.504  c0,0,97.103-8.828,141.241-35.31C203.034,203.034,211.862,229.517,238.345,238.345z" fill="#f0c087"/><path d="M237.689,298.724c-0.439,1.5-11.5,36.724-78.793,36.724v17.655c81.655,0,95.285-47.707,95.828-49.741  L237.689,298.724z" fill="#464655"/><circle cx="158" cy="344" r="8" fill="#5b5d6e"/><g><path d="M247.172,256h-10.433l-4.815,52.966h15.249c4.875,0,8.828-3.953,8.828-8.828v-35.31   C256,259.953,252.047,256,247.172,256z" fill="#707487"/><path d="M63.399,256H52.966c-4.875,0-8.828,3.953-8.828,8.828v35.31c0,4.875,3.953,8.828,8.828,8.828h15.247   L63.399,256z" fill="#707487"/></g><g><path d="M43.027,459.911L7.593,431.726C2.846,436.582,0,443.146,0,450.207v35.31   c0,9.75,7.905,17.655,17.655,17.655h35.31V480.59C52.966,472.545,49.309,464.937,43.027,459.911z" fill="#a5d76e"/><path d="M300.138,485.517v-35.31c0-7.006-2.798-13.526-7.479-18.37l-35.548,28.074   c-6.282,5.026-9.939,12.634-9.939,20.68v22.582h35.31C292.233,503.172,300.138,495.267,300.138,485.517z" fill="#a5d76e"/><path d="M225.629,401.506c-38.051,47.802-75.56,57.528-75.56,57.528s-37.508-9.726-75.56-57.528   L61.78,406.81c41.523,53.035,83.147,64.562,84.9,65.026l3.388,0.897l3.388-0.897c1.753-0.465,43.379-11.99,84.9-65.026   L225.629,401.506z" fill="#a5d76e"/></g><path d="M203.034,203.034c-44.138,26.483-141.241,35.31-141.241,35.31l1.599,17.582l0,0l5.538,60.92  c1.058,11.637,7.804,21.996,18.018,27.671l45.973,25.54c4.376,2.432,9.145,3.809,13.978,4.245l-13.801-23.003  c-6.259-10.431-10.038-22.158-11.048-34.281l-5.053-60.63c-0.375-4.504,2.688-8.525,7.125-9.388  c23.666-4.604,50.141-11.23,71.539-20.499c7.167,10.375,18.956,22.542,37.1,28.589l1.878,0.626l1.97,0.194l0.137,0.013l1.598-17.581  C211.862,229.517,203.034,203.034,203.034,203.034z" fill="#e6af78"/><path d="M485.517,8.828H308.966c-14.626,0-26.483,11.857-26.483,26.483v97.103  c0,14.626,11.857,26.483,26.483,26.483v29.219c0,5.505,6.656,8.263,10.549,4.37l33.589-33.589h132.414  c14.626,0,26.483-11.857,26.483-26.483V35.31C512,20.684,500.143,8.828,485.517,8.828z" fill="#c3e678"/><g><path d="M339.862,44.138c-17.035,0-30.897,13.863-30.897,30.897V92.69c0,17.035,13.863,30.897,30.897,30.897   c5.302,0,10.22-1.466,14.584-3.829l1.242,1.242c1.725,1.725,3.982,2.586,6.241,2.586s4.518-0.862,6.241-2.586   c3.448-3.448,3.448-9.035,0-12.483l-1.242-1.242c2.364-4.364,3.83-9.282,3.83-14.584V75.034   C370.759,58.001,356.897,44.138,339.862,44.138z M350.517,90.862c-3.448-3.448-9.035-3.448-12.483,0   c-3.448,3.448-3.448,9.035,0,12.483l2.517,2.517c-0.232,0.011-0.452,0.068-0.689,0.068c-7.302,0-13.241-5.94-13.241-13.241V75.034   c0-7.302,5.94-13.241,13.241-13.241c7.302,0,13.241,5.94,13.241,13.241V92.69c0,0.236-0.057,0.457-0.07,0.69L350.517,90.862z" fill="#ffffff"/><path d="M417.689,35.763c-4.655-1.551-9.63,0.966-11.164,5.582l-26.483,79.448   c-1.543,4.625,0.957,9.625,5.578,11.168c0.931,0.31,1.87,0.457,2.793,0.457c3.699,0,7.138-2.34,8.371-6.039l26.483-79.448   C424.81,42.306,422.311,37.306,417.689,35.763z" fill="#ffffff"/><path d="M485.181,112.332l-17.655-61.793c-1.086-3.789-4.552-6.401-8.491-6.401h-8.828   c-3.939,0-7.405,2.612-8.491,6.401l-17.655,61.793c-1.336,4.69,1.379,9.574,6.069,10.914c4.647,1.323,9.569-1.366,10.914-6.06   l3.213-11.255h20.726l3.214,11.254c1.112,3.875,4.647,6.406,8.483,6.406c0.81,0,1.621-0.113,2.431-0.345   C483.801,121.906,486.517,117.022,485.181,112.332z M449.301,88.276l5.32-18.625l5.32,18.625H449.301z" fill="#ffffff"/></g></g><g transform="matrix(0.1902484893798828 0 0 0.1902484893798828 68.00000088250033 318)" id="L1_5"><path d="M107.712,181.769l-7.938,7.705c-1.121,1.089-1.753,2.584-1.753,4.146v3.288c0,3.191,2.588,5.779,5.78,5.779h47.4    c3.196,0,5.782-2.588,5.782-5.779v-4.256c0-3.191-2.586-5.78-5.782-5.78h-26.19l0.722-0.664    c17.117-16.491,29.232-29.471,29.232-46.372c0-13.513-8.782-27.148-28.409-27.148c-8.568,0-16.959,2.75-23.629,7.74    c-2.166,1.625-2.918,4.537-1.803,7.007l1.458,3.224c0.708,1.568,2.074,2.739,3.735,3.195c1.651,0.456,3.433,0.148,4.842-0.836    c4.289-2.995,8.704-4.515,13.127-4.515c8.608,0,12.971,4.28,12.971,12.662C137.142,152.524,127.72,162.721,107.712,181.769z"/><path d="M194.107,114.096c-0.154-0.014-0.31-0.02-0.464-0.02h-1.765c-1.89,0-3.658,0.923-4.738,2.469l-35.4,50.66    c-0.678,0.971-1.041,2.127-1.041,3.311v4.061c0,3.192,2.586,5.78,5.778,5.78h32.322v16.551c0,3.191,2.586,5.779,5.778,5.779h5.519    c3.19,0,5.781-2.588,5.781-5.779v-16.551h5.698c3.192,0,5.781-2.588,5.781-5.78v-3.753c0-3.19-2.589-5.779-5.781-5.779h-5.698    v-45.189c0-3.19-2.591-5.779-5.781-5.779h-5.519C194.419,114.077,194.261,114.083,194.107,114.096z M188.799,165.045h-17.453    c4.434-6.438,12.015-17.487,17.453-25.653V165.045z"/><path d="M157.906,290.377c-68.023,0-123.365-55.342-123.365-123.365c0-64.412,49.625-117.443,112.647-122.895v19.665    c0,1.397,0.771,2.681,2.003,3.337c0.558,0.298,1.169,0.444,1.778,0.444c0.737,0,1.474-0.216,2.108-0.643l44.652-30    c1.046-0.702,1.673-1.879,1.673-3.139c0-1.259-0.627-2.437-1.673-3.139l-44.652-30c-1.159-0.779-2.654-0.857-3.887-0.198    c-1.232,0.657-2.003,1.941-2.003,3.337v15.254C70.364,24.547,9.54,88.806,9.54,167.011c0,81.809,66.558,148.365,148.365,148.365    c37.876,0,73.934-14.271,101.532-40.183l-17.111-18.226C219.38,278.512,189.4,290.377,157.906,290.377z"/><path d="M284.552,89.689c-5.111-8.359-11.088-16.252-17.759-23.456l-18.344,16.985c5.552,5.995,10.522,12.562,14.776,19.515    L284.552,89.689z"/><path d="M280.146,150.258l24.773-3.363c-1.322-9.74-3.625-19.373-6.846-28.632l-23.612,8.211    C277.135,134.163,279.047,142.165,280.146,150.258z"/><path d="M242.999,45.459c-8.045-5.643-16.678-10.496-25.66-14.427l-10.022,22.903c7.464,3.267,14.64,7.301,21.327,11.991    L242.999,45.459z"/><path d="M253.208,245.353l19.303,15.887c6.244-7.587,11.75-15.817,16.363-24.462l-22.055-11.771    C262.983,232.195,258.404,239.041,253.208,245.353z"/><path d="M280.908,176.552c-0.622,8.157-2.061,16.264-4.273,24.093l24.057,6.802c2.666-9.426,4.396-19.18,5.146-28.99    L280.908,176.552z"/></g><g transform="matrix(0.20202019810676575 0 0 0.20202019810676575 313 89.00000071515939)" id="L1_6"><circle cx="148" cy="148" r="148" fill="#34495e"/><path d="M296.98,146.909l-86.692-86.764c-2.573,0.423-4.808,0.674-6.788-0.646c-2-1-6-2-8-3   c-15-7-32-9-47-12c-20.272-4.865-39.885,4.078-57.776,14.565L53.617,95.742c-0.437,1.243-0.825,2.494-1.117,3.758c-5,32-15,63,1,93   c2,3,3.207,6.684,4.207,9.684c0.018,0.042,1.044,5.701,1.062,5.743l89.153,89.065c0.193,0.001,0.384,0.007,0.578,0.007   c82.014,0,148.5-66.486,148.5-148.5C297,147.968,296.985,147.44,296.98,146.909z" fill="#243f4f"/><path d="M62.02,209.123c-1.577,0.001-3.129-0.744-4.102-2.135        c-12.617-18.047-19.286-39.257-19.286-61.339c0-59.094,48.077-107.171,107.172-107.171c23.178,0,45.242,7.283,63.808,21.063        c2.218,1.646,2.682,4.777,1.035,6.994c-1.645,2.22-4.777,2.683-6.994,1.035c-16.83-12.49-36.833-19.092-57.849-19.092        c-53.581,0-97.172,43.591-97.172,97.171c0,20.021,6.045,39.251,17.481,55.608c1.582,2.264,1.03,5.381-1.232,6.963        C64.009,208.831,63.009,209.123,62.02,209.123z" fill="#ecf0f1"/><path d="M209.611,59.541c-18.2-13.508-39.766-20.755-62.444-21.036v10        c20.516,0.28,40.02,6.846,56.485,19.065c2.217,1.647,5.35,1.185,6.994-1.035C212.293,64.318,211.829,61.187,209.611,59.541z" fill="#d0d5d9"/><path d="M146.158,260.563c46.7-21.092,90.605-67.712,113.647-113.645    c4.428-8.826,9.431-25.418-7.163-36.432c-3.624-2.406-14.755-9.255-14.755-9.255c-4.65-2.917-11.185-1.249-14.597,3.726    l-26.273,38.319c-3.411,4.975-2.407,11.373,2.244,14.29l10.332,7.666c-10.965,14.423-30.538,34.007-44.949,44.987l-7.681-10.355    c-2.917-4.65-9.315-5.655-14.29-2.244l-38.319,26.272c-4.975,3.411-6.644,9.946-3.727,14.596c0,0,6.639,11.29,9.255,14.754    C120.507,267.311,137.211,264.604,146.158,260.563z" fill="#bff796"/><path d="M252.643,110.486c-3.624-2.406-14.755-9.255-14.755-9.255c-4.65-2.917-11.185-1.249-14.597,3.726    l-26.273,38.319c-3.411,4.975-2.407,11.373,2.244,14.29l10.332,7.667c-10.965,14.423-30.538,34.007-44.949,44.987l-7.681-10.355    c-2.085-3.323-5.947-4.773-9.797-4.091v64.317c46.322-21.305,89.762-67.57,112.638-113.171    C264.233,138.092,269.237,121.5,252.643,110.486z" fill="#aee086"/></g><g transform="matrix(0.17500874400138855 0 0 0.17500874400138855 139 84.99999882501453)" id="L1_7"><path d="M188.365,0.545c-50.53,0-97.23,24.744-125.866,64.929c7.257,2.05,13.915,5.92,19.401,11.401l4.717,4.717   c23.306-32.233,60.994-52.047,101.748-52.047c69.187,0,125.475,56.289,125.475,125.477c0,40.957-19.755,78.521-52.016,101.777   l3.643,3.643c5.865,5.869,9.891,13.115,11.809,20.942c40.614-28.537,65.564-75.303,65.564-126.362   C342.84,69.843,273.543,0.545,188.365,0.545z"/><path d="M210.072,240.764c-4.131-4.131-9.78-6.2-15.714-5.604c-10.477,1.059-20.305,5.092-28.421,11.665   c-1.113,0.91-2.552,1.418-4.033,1.418c-1.45,0-2.867-0.493-3.99-1.387c-22.968-18.488-43.955-39.489-62.399-62.435   c-1.884-2.326-1.878-5.72,0.027-8.056c6.555-8.095,10.583-17.917,11.638-28.388c0.586-5.837-1.457-11.566-5.604-15.717   L64.045,94.733c-3.678-3.674-8.564-5.699-13.756-5.699c-0.626,0-1.269,0.031-1.908,0.093c-12.29,1.205-23.893,6.7-32.663,15.472   c-16.863,16.866-20.593,43.159-9.069,63.942c29.353,53.547,99.945,130.727,167.293,167.231c7.827,4.27,16.702,6.523,25.678,6.523   c14.268,0,28.162-5.711,38.121-15.67c8.771-8.774,14.268-20.378,15.473-32.673c0.572-5.813-1.473-11.52-5.609-15.66   L210.072,240.764z"/><path d="M194.379,52.67c-5.523,0-10,4.477-10,10v82c0,5.523,4.477,10,10,10h76.461c5.522,0,10-4.477,10-10s-4.478-10-10-10h-66.461   v-72C204.379,57.147,199.901,52.67,194.379,52.67z"/></g><g transform="matrix(0.1171875 0 0 0.1171875 314 280)" id="L1_8"><circle cx="256" cy="256" r="256" fill="#f9eed7"/><path d="M415.609,96.391C372.976,53.757,316.293,30.278,256,30.278c-47.599,0-93.121,14.641-131.645,42.341  c-11.43,8.218-22.154,17.566-31.861,27.77c-3.606,3.78-7.102,7.718-10.375,11.682c-5.274,6.358-10.254,13.083-14.806,19.993  C43.084,168.881,30.278,211.736,30.278,256c0,56.752,20.815,110.297,58.814,151.945c2.957,3.241,7.898,3.763,11.38,1.093  c2.045-1.568,4.042-3.201,5.999-4.88c3.616-3.102,3.995-8.585,0.777-12.099C74.387,356.165,54.311,308.384,54.311,256  c0-39.554,11.438-77.842,33.075-110.718c4.067-6.173,8.518-12.185,13.248-17.888c2.927-3.545,6.04-7.05,9.262-10.429  c8.687-9.132,18.273-17.487,28.49-24.834c34.41-24.742,75.08-37.82,117.614-37.82c111.213,0,201.689,90.478,201.689,201.689  c0,56.806-24.152,111.282-66.266,149.461c-8.351,7.577-17.393,14.493-26.882,20.558C332.162,446.739,294.628,457.69,256,457.69  c-18.027,0-35.499-2.393-52.132-6.861c-5.313-1.427-7.825-7.517-5.121-12.308l0,0c3.33-5.898-1.287-13.122-8.039-12.575  l-38.323,3.101c-5.961,0.483-9.548,6.836-6.881,12.19l17.146,34.414c3.021,6.063,11.59,6.284,14.92,0.386l0.48-0.851  c1.967-3.485,6.102-5.093,9.918-3.889c21.723,6.852,44.599,10.426,68.033,10.426c43.228,0,85.24-12.262,121.49-35.458  c10.615-6.787,20.736-14.526,30.078-23.001c47.126-42.723,74.154-103.688,74.154-167.263  C481.722,195.707,458.243,139.024,415.609,96.391z" fill="#d6c8b0"/><g><path d="M134.656,218.311H56.059v-6.792c0-29.403,89.621-49.183,89.621-110.258   c0-26.666-16.854-45.39-38.975-53.248c-7.649-2.717-15.924-4.138-24.357-4.138c-31.368,0-60.771,19.79-60.771,52.015   c0,15.276,7.074,19.79,16.677,19.79c1.306,0,2.55-0.073,3.741-0.23c9.853-1.223,15.485-7.283,15.485-13.333   c0-3.511,0.46-6.625,1.306-9.341c2.006-6.562,6.269-10.877,11.766-13.249c3.594-1.567,7.711-2.299,12.089-2.299   c18.651,0,26.29,13.573,26.29,25.161c0,39.873-91.032,63.896-91.032,109.129v27.429c0,7.064,9.613,11.588,16.112,11.588h100.645   c6.228,0,11.598-7.92,11.598-16.405C146.254,225.656,140.884,218.311,134.656,218.311z" fill="#ff525d"/><path d="M291.359,171.384h-13.291v-29.696c0-8.202-9.049-11.588-18.38-11.588   c-9.038,0-18.38,3.385-18.38,11.588v29.696h-33.071L262.51,62.819c0.857-1.703,1.421-3.396,1.421-4.807   c0-8.485-11.87-14.137-18.369-14.137c-5.945,0-12.163,2.55-15.548,9.613l-67.009,131.741c-1.411,2.539-1.985,5.089-1.985,7.356   c0,8.192,5.381,12.999,12.445,12.999h67.845v33.364c0,7.628,9.341,11.588,18.38,11.588c9.331,0,18.38-3.96,18.38-11.588v-33.364   h13.291c5.935,0,11.588-8.474,11.588-16.959C302.947,179.848,298.987,171.384,291.359,171.384z" fill="#ff525d"/></g><path d="M375.975,146.787c-4.242,0-8.202,1.975-10.188,5.935L264.296,358.818  c-0.836,1.411-1.4,3.103-1.4,4.807c0,5.945,5.36,12.445,13.563,12.445c4.524,0,9.049-2.267,11.024-6.228l101.491-205.239  c0.846-1.703,1.139-3.396,1.139-5.089C390.113,151.876,382.757,146.787,375.975,146.787z" fill="#5c5e70"/><path d="M478.229,266.324H377.877c-8.202,0-16.112,5.935-16.112,11.588v43.541  c0,6.781,8.192,11.87,18.098,11.87c9.613,0,18.651-5.089,18.651-11.87v-22.904h59.079v18.662l-73.78,132.305  c-1.411,2.267-1.693,4.242-1.693,6.499c0,6.855,4.974,12.612,11.661,15.778c12.11-7.743,23.521-16.478,34.116-26.091l59.382-114.072  c3.396-6.792,7.074-15.548,7.074-21.483v-32.235C494.352,272.259,485.303,266.324,478.229,266.324z" fill="#f4a14e"/></g><g transform="matrix(0.1171877309679985 0 0 0.1171877309679985 -26.999999213217166 175)" id="L1_9"><circle cx="255" cy="255" r="255" fill="#e84f4f"/><path d="M236.682,511.273L92.503,367.094l105.537-44.771l122.364-118.937l12.465-92.76L510.08,287.837  c-15.685,126.312-123.404,224.162-253.974,224.162C249.562,512,243.122,511.792,236.682,511.273z" fill="#d14747"/><path d="M226.293,229.979c4.259-8.725,15.062-26.176,37.914-39.472c31.89-18.489,43.524-59.208,45.082-70.531  c1.558-11.426,28.877-24.826,32.201,12.049s-19.113,61.806-19.113,61.806h77.387c23.684-3.324,27.423,35.422,4.155,35.837  l-7.376,0.104l-0.208,1.973h4.467c18.802,0,18.802,36.876,0,36.876h-0.935c14.127,4.675,13.192,36.148-4.259,36.148h-4.986v0.104  c11.945,2.597,10.7,13.711,10.7,22.956c0,15.582-40.511,23.788-50.691,26.592c-29.397,7.998-68.142-0.935-101.07-3.947  l-20.671-2.389h-45.185V229.979h42.692H226.293z" fill="#ffc964"/><path d="M168.227,221.669h52.249v134.934h-52.249V221.669z" fill="#ffffff"/><path d="M92.503,211.074h93.072v156.02H92.503V211.074z" fill="#006775"/></g><g transform="matrix(0.1171875 0 0 0.1171875 299 10)" id="L1_10"><path d="M256,34.123c-68.925,0-125,56.075-125,125s56.075,125,125,125s125-56.075,125-125S324.925,34.123,256,34.123z     M301,229.123h-80v-30h25v-80h-25v-30h55v110h25V229.123z"/><path d="M271.877,378.167c2.574-3.366,4.123-7.557,4.123-12.113c0-11.028-8.972-20-20-20s-20,8.972-20,20    c0,4.556,1.548,8.747,4.123,12.113c-5.899,41.15-41.367,72.887-84.123,72.887v30c42.793,0,80.197-23.497,100-58.265    c19.803,34.768,57.207,58.265,100,58.265v-30C313.244,451.055,277.776,419.318,271.877,378.167z"/><path d="M305.655,306.042c-16.44,1.888-33.94,25.45-28.6,51.819C303.402,357.861,317.339,333.055,305.655,306.042z"/><path d="M278.089,368.389c0,27.165,25.438,46.79,59.022,33.278C335.527,389.055,315.527,361.18,278.089,368.389z"/><path d="M346.4,285.517c-19.29,9.871-22.123,39.954-12.17,57.901C357.455,337.138,366.36,307.888,346.4,285.517z"/><path d="M338.31,353.179c6.967,23.209,33.717,36.709,66.19,14.545C397.86,353.471,370.86,336.388,338.31,353.179z"/><path d="M379.476,253.902c-19.511,20.153-4.199,51.216,5.222,58.995C408.652,297.555,401.694,267.638,379.476,253.902z"/><path d="M391.452,321.039c13.658,22.379,49.241,23.765,67.509-5.365C439.527,297.221,408.527,303.138,391.452,321.039z"/><path d="M401.858,214.117c-9.665,15.521,0.502,45.188,22.192,54.834C441.194,246.971,427.777,220.805,401.858,214.117z"/><path d="M432.88,274.779c16.73,15.026,50.397,13.192,63.059-24.848C468.777,235.138,438.61,260.138,432.88,274.779z"/><path d="M411.554,169.544c-3.36,11.677,6.39,40.01,37.372,45.939C460.11,185.971,433.86,168.305,411.554,169.544z"/><path d="M459.077,218.464c16.95,8.924,52.94-0.242,52.923-42.261C487.194,171.555,462.777,192.483,459.077,218.464z"/><path d="M407.934,123.918c2.781,25.762,33.906,35.824,49.022,33.126C458.902,129.157,434.652,115.18,407.934,123.918z"/><path d="M505.985,101.123c-28.083,2.932-41.271,33.557-38.45,55.813C501.943,160.472,514.36,125.638,505.985,101.123z"/><path d="M391.116,81.542c7.411,17.764,34.036,26.889,56.604,17.247C445.652,82.18,421.902,59.68,391.116,81.542z"/><path d="M478.144,30.946c-28.992,12.36-28.367,50.36-20.338,64.65C492.402,87.591,493.027,53.055,478.144,30.946z"/><path d="M206.345,306.042c-11.684,27.013,2.253,51.819,28.6,51.819C240.285,331.492,222.785,307.93,206.345,306.042z"/><path d="M174.889,401.667c33.584,13.512,59.022-6.113,59.022-33.278C196.473,361.18,176.473,389.055,174.889,401.667z"/><path d="M165.6,285.517c-19.96,22.371-11.055,51.621,12.17,57.901C187.723,325.471,184.89,295.388,165.6,285.517z"/><path d="M107.5,367.724c32.473,22.164,59.223,8.664,66.19-14.545C141.14,336.388,114.14,353.471,107.5,367.724z"/><path d="M132.524,253.902c-22.218,13.736-29.176,43.653-5.222,58.995C136.723,305.118,152.035,274.055,132.524,253.902z"/><path d="M53.039,315.674c18.268,29.13,53.851,27.744,67.509,5.365C103.473,303.138,72.473,297.221,53.039,315.674z"/><path d="M110.142,214.117c-25.919,6.688-39.336,32.854-22.192,54.834C109.64,259.305,119.807,229.638,110.142,214.117z"/><path d="M16.061,249.931c12.662,38.04,46.329,39.874,63.059,24.848C73.39,260.138,43.223,235.138,16.061,249.931z"/><path d="M100.446,169.544c-22.306-1.239-48.556,16.427-37.372,45.939C94.056,209.555,103.806,181.221,100.446,169.544z"/><path d="M0,176.203c-0.017,42.019,35.973,51.185,52.923,42.261C49.223,192.483,24.806,171.555,0,176.203z"/><path d="M55.044,157.044c15.116,2.698,46.241-7.364,49.022-33.126C77.348,115.18,53.098,129.157,55.044,157.044z"/><path d="M6.015,101.123c-8.375,24.515,4.042,59.349,38.45,55.813C47.286,134.68,34.098,104.055,6.015,101.123z"/><path d="M64.28,98.789c22.568,9.642,49.193,0.517,56.604-17.247C90.098,59.68,66.348,82.18,64.28,98.789z"/><path d="M33.856,30.946c-14.883,22.109-14.258,56.645,20.338,64.65C62.223,81.305,62.848,43.305,33.856,30.946z"/></g><g transform="matrix(0.11893151700496674 0 0 0.11893151700496674 123.99999931765365 249)" id="L1_11"><path d="M308.567,161.452l-152.025,68.923l122.88,270.966l66.166-55.926l85.465-12.603  C431.053,432.812,308.567,161.452,308.567,161.452z" fill="#2b414d"/><path d="M195.927,164.209l152.025,68.923l-122.88,271.36l-66.166-56.32l-85.858-12.603  C73.047,435.569,195.927,164.209,195.927,164.209z" fill="#475f6c"/><path d="M449.17,197.292c0,14.572-20.874,26.782-24.025,40.566c-3.151,14.178,10.634,34.265,4.726,47.262  c-6.302,12.997-30.326,14.572-38.991,25.6s-4.726,35.446-15.754,44.505s-33.083-0.394-45.686,5.908s-19.298,29.932-33.083,33.083  c-13.391,3.151-29.538-14.966-43.717-14.966c-14.178,0-30.326,18.117-43.717,14.966c-13.785-3.151-20.48-26.782-33.083-33.083  c-12.603-6.302-35.052,3.151-45.686-5.908c-11.028-9.058-7.089-33.477-15.754-44.505s-32.689-12.603-38.991-25.6  c-5.908-12.603,7.877-33.083,4.726-47.262c-3.938-13.785-24.812-25.994-24.812-40.566s20.874-26.782,24.025-40.566  c3.151-14.178-10.634-34.265-4.726-47.262c6.302-12.997,30.326-14.572,38.991-25.6s4.726-35.446,15.754-44.505  s33.083,0.394,45.686-5.908c12.603-6.302,19.298-29.932,33.083-33.083c13.391-3.151,29.538,14.966,43.717,14.966  c14.178,0,30.326-18.117,43.717-14.966c13.785,3.151,20.48,26.782,33.083,33.083c12.603,6.302,35.052-3.151,45.686,5.908  c11.028,9.058,7.089,33.477,15.754,44.505s32.689,12.603,38.991,25.6c5.908,12.603-7.877,33.083-4.726,47.262  C428.296,170.511,449.17,182.72,449.17,197.292z" fill="#efc75e"/><path d="M252.247,118.523c-43.717,0-78.769,35.446-78.769,78.769s35.446,78.769,78.769,78.769  c43.717,0,78.769-35.446,78.769-78.769S295.963,118.523,252.247,118.523z M252.247,232.738c-19.692,0-35.446-15.754-35.446-35.446  s15.754-35.446,35.446-35.446s35.446,15.754,35.446,35.446S271.939,232.738,252.247,232.738z M252.247,55.507  c-78.375,0-141.785,63.409-141.785,141.785s63.409,141.785,141.785,141.785s141.784-63.41,141.784-141.785  S330.622,55.507,252.247,55.507z M252.247,315.446c-65.378,0-118.154-52.775-118.154-118.154S186.868,79.138,252.247,79.138  s118.154,52.775,118.154,118.154S317.625,315.446,252.247,315.446z" fill="#d7b354"/></g><g transform="matrix(0.6000000238418579 0 0 0.6000000238418579 221 40)" id="L1_12"><circle cx="50" cy="50" r="48" fill="#334d5c"/><path d="M94.9650269,66.8143082L64.5200195,36.3692398l-0.1100464,0.0100098l-1.7199707-1.7200928L62.25,34.7791519   l-1.5800171-1.5899658l-0.6900024,0.289917l-1.5-1.5l-0.8999634,0.5100098l-1.4299927-1.4299316l-1.0300293,0.7700195   l-1.3900146-1.3900146l-1.0999756,1.0699463L51.25,30.1292496l-1.1199951,1.3798828L48.75,30.1292496l-1.0499878,1.6899414   l-1.4299927-1.3800049l-0.8300171,1.8199463l-1.5900269-1.1999512l-0.5899658,1.9099121l-1.7399902-0.9899902l-0.3500366,1.9700928   l-1.8399658-0.7600098l-0.1000366,1.9899902l-1.9199829-0.5200195l0.1500244,1.9899902l-1.9800415-0.2799072l0.4000244,1.9499512   l-1.9899902-0.0200195l0.6400146,1.8800049l-1.9800415,0.2299805l0.8699951,1.7900391l-1.9400024,0.4699707l1.1000366,1.6700439   l-1.8699951,0.7099609L32,46.569191l-1.7600098,0.9299316l1.4000244,1.4000244l-1.5499878,1.0999756l1.3799438,1.380127   l-1.2299805,1.119873l1.3800049,1.380127l-0.9099731,1.0699463l0.9499512,0.9499512h-1.5999756v3.1800537H22.5l3.1099854,4.0200195   L22.5,67.1292496L53.2492065,97.878273C72.4237061,96.5950699,88.512207,84.0621109,94.9650269,66.8143082z" opacity="0.1"/><g><path d="M50,31.6786785 51.2504425,30.1248169 52.2962723,31.8231487 53.7316017,30.438261     54.5563278,32.2542763 56.1539116,31.0602036 56.7445297,32.9652672 58.4791756,31.9808407 58.8263626,33.9449043     60.6707115,33.1856499 60.7690048,35.1777382 62.6939659,34.6556282 62.5418091,36.6443329 64.5170288,36.3675995     64.1168213,38.3215485 66.1111526,38.2945633 65.4692001,40.1829453 67.4511948,40.4061241 66.5776291,42.1991615     68.5160141,42.6689911 67.424614,44.338398 69.288826,45.0474701 67.9968033,46.566925 69.7574463,47.5040512     68.2851715,48.8495941 69.9144821,50 68.2851715,51.1504059 69.7574463,52.495945 67.9968033,53.4330711 69.288826,54.9525299     67.424614,55.6615982 68.5160141,57.3310089 66.5776291,57.8008385 67.4511948,59.5938721 65.4692001,59.8170547     66.1111526,61.7054367 64.1168213,61.6784477 64.5170288,63.6323967 62.5418091,63.3556671 62.6939659,65.344368     60.7690048,64.822258 60.6707115,66.8143463 58.8263626,66.0550919 58.4791756,68.0191574 56.7445297,67.034729     56.1539116,68.9397964 54.5563278,67.7457199 53.7316017,69.5617371 52.2962723,68.1768494 51.2504425,69.8751831 50,68.3213196     48.7495613,69.8751831 47.7037315,68.1768494 46.2683983,69.5617371 45.443676,67.7457199 43.8460884,68.9397964     43.2554741,67.034729 41.5208282,68.0191574 41.1736374,66.0550919 39.3292885,66.8143463 39.230999,64.822258     37.3060341,65.344368 37.4581947,63.3556671 35.4829712,63.6323967 35.8831825,61.6784477 33.8888512,61.7054367     34.5307999,59.8170547 32.5488091,59.5938721 33.4223747,57.8008385 31.4839878,57.3310089 32.5753899,55.6615982     30.7111721,54.9525299 32.0032005,53.4330711 30.2425537,52.495945 31.7148342,51.1504059 30.0855236,50 31.7148342,48.8495941     30.2425537,47.5040512 32.0032005,46.566925 30.7111721,45.0474701 32.5753899,44.338398 31.4839878,42.6689911     33.4223747,42.1991615 32.5488091,40.4061241 34.5307999,40.1829453 33.8888512,38.2945633 35.8831825,38.3215485     35.4829712,36.3675995 37.4581947,36.6443329 37.3060341,34.6556282 39.230999,35.1777382 39.3292885,33.1856499     41.1736374,33.9449043 41.5208282,31.9808407 43.2554741,32.9652672 43.8460884,31.0602036 45.443676,32.2542763     46.2683983,30.438261 47.7037315,31.8231487 48.7495613,30.1248169z" fill="#fcd462"/><path d="M50.0002441,65.1584854c-8.358284,0-15.1586266-6.799984-15.1586266-15.1586227     s6.8003426-15.1586227,15.1586266-15.1586227s15.1586227,6.7999878,15.1586227,15.1586227     S58.3585243,65.1584854,50.0002441,65.1584854z M50.0002441,36.289566c-7.559864,0-13.7103004,6.1504326-13.7103004,13.7102966     s6.1504364,13.7103004,13.7103004,13.7103004s13.7102966-6.1504364,13.7102966-13.7103004     S57.5601082,36.289566,50.0002441,36.289566z" fill="#44c4a1"/><path d="M22.5000019,67.125206 36.2966919,67.125206 36.2966919,59.081749 22.5000019,59.081749     25.61339,63.1034775z" fill="#d15241"/><path d="M36.2966919,63.9385605 36.2966919,67.125206 30.0637093,63.9385605z" fill="#ce412d"/><path d="M77.5,67.125206 63.7033081,67.125206 63.7033081,59.081749 77.5,59.081749 74.3866119,63.1034775z" fill="#d15241"/><path d="M63.7033081,63.9385605 63.7033081,67.125206 69.9362946,63.9385605z" fill="#ce412d"/><rect x="30px" y="55px" width="39px" height="8px" fill="#e56353"/><g><path d="M38.3724899,45.6185341h2.3910599v6.5784798h-1.0546112v-5.5901184h-1.3364487V45.6185341z" fill="#dc8744"/><path d="M42.9087639,51.3453636c-0.444973-0.6180611-0.6678429-1.4448242-0.6678429-2.4799042     s0.2228699-1.8618431,0.6678429-2.4799042c0.4457397-0.6176758,1.1166458-0.9267082,2.0142517-0.9267082     c0.8968391,0,1.568512,0.3090324,2.0142517,0.9267082c0.444973,0.6180611,0.6678429,1.4448242,0.6678429,2.4799042     s-0.2228699,1.8618431-0.6678429,2.4799042c-0.4457397,0.6180611-1.1174126,0.9270897-2.0142517,0.9270897     C44.0254097,52.2724533,43.3545036,51.9634247,42.9087639,51.3453636z M43.7045097,47.0867157     c-0.2603989,0.4518661-0.3905945,1.0446548-0.3905945,1.7787437c0,0.7340927,0.1301956,1.3268776,0.3905945,1.7787437     s0.6663094,0.6774178,1.2185059,0.6774178s0.9550476-0.2240181,1.2093163-0.672821     c0.2542725-0.4484215,0.3814087-1.0427399,0.3814087-1.7833405c0-0.7402191-0.1271362-1.3345375-0.3814087-1.7833405     c-0.2542686-0.4484177-0.6571198-0.672821-1.2093163-0.672821S43.9649086,46.635231,43.7045097,47.0867157z" fill="#dc8744"/><path d="M49.3834724,51.3453636c-0.444973-0.6180611-0.6678429-1.4448242-0.6678429-2.4799042     s0.2228699-1.8618431,0.6678429-2.4799042c0.4457397-0.6176758,1.1166458-0.9267082,2.0142517-0.9267082     c0.8968391,0,1.568512,0.3090324,2.0142479,0.9267082c0.4449768,0.6180611,0.6678429,1.4448242,0.6678429,2.4799042     s-0.2228661,1.8618431-0.6678429,2.4799042c-0.4457359,0.6180611-1.1174088,0.9270897-2.0142479,0.9270897     C50.5001183,52.2724533,49.8292122,51.9634247,49.3834724,51.3453636z M50.1792145,47.0867157     c-0.2603951,0.4518661-0.3905945,1.0446548-0.3905945,1.7787437c0,0.7340927,0.1301994,1.3268776,0.3905945,1.7787437     c0.2603989,0.4518661,0.6663132,0.6774178,1.2185097,0.6774178c0.5521927,0,0.9550438-0.2240181,1.2093163-0.672821     c0.2542686-0.4484215,0.3814049-1.0427399,0.3814049-1.7833405c0-0.7402191-0.1271362-1.3345375-0.3814049-1.7833405     c-0.2542725-0.4484177-0.6571236-0.672821-1.2093163-0.672821C50.8455276,46.4092979,50.4396133,46.635231,50.1792145,47.0867157     z" fill="#dc8744"/><path d="M57.4864273,45.8961639c0.2695885,0.2917976,0.4051476,0.6448669,0.4051476,1.0588226     c0,0.4143372-0.1370888,0.7685547-0.4097404,1.0634155c-0.2726517,0.2952461-0.6119347,0.4422913-1.0163193,0.4422913     c-0.4043808,0-0.7421303-0.1458969-1.0117188-0.4373131c-0.2695885-0.2917976-0.4043808-0.6448669-0.4043808-1.0588226     c0-0.4143372,0.1363258-0.7685547,0.4089775-1.0634155c0.2734146-0.2948647,0.6119308-0.4422951,1.0163155-0.4422951     C56.8798561,45.458847,57.2168388,45.6047478,57.4864273,45.8961639z M61.3165703,45.6185341l-4.818119,6.5784798h-1.213913     l4.818119-6.5784798H61.3165703z M56.8561134,47.4489746c0.1003304-0.1282845,0.1508789-0.2868195,0.1508789-0.4752274     c0-0.1880226-0.0536118-0.3465576-0.1600685-0.4752235c-0.1072235-0.1282845-0.2374229-0.1930008-0.3905983-0.1930008     c-0.1539383,0-0.2810745,0.0647163-0.3814049,0.1930008c-0.1003304,0.1286659-0.1508789,0.2872009-0.1508789,0.4752235     c0,0.1884079,0.0536118,0.3469429,0.1600685,0.4752274c0.1072235,0.1286659,0.2366562,0.1930008,0.3905983,0.1930008     C56.6286469,47.6419754,56.7557831,47.5776405,56.8561134,47.4489746z M61.2231331,49.7079239     c0.2695885,0.2917976,0.4043808,0.6444817,0.4043808,1.0584373c0,0.4143372-0.1363258,0.76894-0.4097443,1.0638008     c-0.2726517,0.2948608-0.6111679,0.4422913-1.0163155,0.4422913c-0.4043808,0-0.7413673-0.1458969-1.0117188-0.4376984     c-0.2695885-0.2917976-0.4043846-0.6448631-0.4043846-1.0588188s0.1363258-0.7685585,0.4097443-1.0634193     c0.2726517-0.2948608,0.6111679-0.4422913,1.0163155-0.4422913     C60.6157913,49.2702255,60.9527779,49.4161224,61.2231331,49.7079239z M60.6111984,51.2794991     c0.1003304-0.1286697,0.1501122-0.2872047,0.1501122-0.4752274c0-0.1884041-0.052845-0.3465576-0.1593018-0.4752235     c-0.1072235-0.1286697-0.2374229-0.1930008-0.3905983-0.1930008c-0.1539421,0-0.2810745,0.0643311-0.3814049,0.1930008     c-0.1003304,0.1286659-0.1508789,0.2868195-0.1508789,0.4752235c0,0.1880226,0.0536118,0.3465576,0.1600685,0.4752274     c0.1064568,0.1286659,0.2366562,0.192997,0.3905983,0.192997C60.3837318,51.472496,60.5108681,51.408165,60.6111984,51.2794991z" fill="#dc8744"/></g><g><path d="M32.6765366,61.7488327H31.071682v-4.4543114h1.4264412     c0.2484131,0,0.462677,0.0363007,0.6427956,0.1083832c0.1796913,0.0723419,0.3137169,0.1700935,0.4012146,0.2932549     c0.1677399,0.2292099,0.2513962,0.4884987,0.2513962,0.7773438c0,0.348484-0.0909119,0.6075134-0.2727394,0.7773476     c-0.0661545,0.0596352-0.1118279,0.096714-0.1361542,0.1114922c-0.0243301,0.0150414-0.0682945,0.0394135-0.1310349,0.0733795     c0.2270699,0.0596352,0.4080429,0.1838341,0.5429192,0.3728561c0.134449,0.1890221,0.2018852,0.4236755,0.2018852,0.703968     c0,0.3101082-0.0874977,0.5841751-0.2624969,0.8222008C33.5297546,61.6108894,33.1763458,61.7488327,32.6765366,61.7488327z      M31.6905746,59.1424675h0.7866364c0.4477348,0,0.6713905-0.1846123,0.6713905-0.5543594     c0-0.2123566-0.0542068-0.3653336-0.1626205-0.4586792c-0.1084099-0.0933418-0.2761536-0.140274-0.5036507-0.140274h-0.7917557     V59.1424675z M31.6905746,61.0541992h0.9701691c0.2274971,0,0.4012146-0.04356,0.5220032-0.1306801     c0.1203651-0.0868645,0.1809731-0.2515106,0.1809731-0.4936867c0-0.395153-0.260788-0.5927315-0.7815132-0.5927315h-0.8916321     V61.0541992z" fill="#ffffff"/><path d="M37.3493958,57.2945213v0.7073364h-1.956131v1.1789856h1.7568016v0.6689606h-1.7568016v1.1916885     h2.0192986v0.7073402h-2.6381912v-4.4543114H37.3493958z" fill="#ffffff"/><path d="M39.313633,57.8807716c-0.1801186,0-0.3278008,0.0445976-0.4430428,0.1337929     C38.754921,58.1040192,38.6973,58.2388496,38.6973,58.4193115c0,0.1807251,0.057621,0.3186684,0.1732903,0.4140854     c0.115242,0.0956764,0.3606682,0.1988716,0.7366982,0.3090706c0.3756027,0.1107178,0.6590157,0.26577,0.8498039,0.4651642     c0.1903648,0.1999092,0.2855453,0.4939423,0.2855453,0.8826141c0,0.3886757-0.1203651,0.7042274-0.3619461,0.9464035     c-0.2411537,0.2421761-0.5574303,0.3632622-0.9492531,0.3632622c-0.5732269,0-1.0819969-0.2401009-1.5258942-0.7200432     l0.3879814-0.5673218c0.3704834,0.3910065,0.7550507,0.5862503,1.1537018,0.5862503     c0.1993294,0,0.3576775-0.051857,0.4746284-0.1560936c0.1173782-0.1039734,0.1758499-0.2421722,0.1758499-0.4140816     c0-0.1721687-0.0550575-0.3059616-0.1651802-0.401638c-0.1101189-0.095417-0.3000565-0.1825371-0.5689545-0.2611008     c-0.2693253-0.0785675-0.4742012-0.1509056-0.6137695-0.2167664c-0.1399994-0.0658607-0.2642059-0.1516838-0.3726196-0.2579918     c-0.2168236-0.1996498-0.32481-0.5056114-0.32481-0.9176216c0-0.4120064,0.1229248-0.7296333,0.3696289-0.9526215     c0.2462769-0.2229881,0.5514565-0.3344841,0.9151077-0.3344841c0.2343254,0,0.4669456,0.0466728,0.6974297,0.1400185     c0.2309113,0.0936012,0.4302368,0.2253189,0.5979767,0.395153l-0.3303604,0.5670624     c-0.1084137-0.1187515-0.2552376-0.2165031-0.4404793-0.2929955     C39.6764336,57.9191475,39.4937515,57.8807716,39.313633,57.8807716z" fill="#ffffff"/><path d="M42.8933983,57.982933v3.7658997h-0.6188927V57.982933H41.162632v-0.6884117h2.8426399v0.6884117     H42.8933983z" fill="#ffffff"/><path d="M47.8859482,61.7869453l-0.078537,0.006485c-0.5454788,0-1.0034599-0.2198792-1.3739433-0.6596298     c-0.3709106-0.4394951-0.5561485-0.9876289-0.5561485-1.6438866c0-0.656517,0.1852379-1.2043915,0.5561485-1.644146     c0.3704834-0.4397507,0.8284645-0.6593704,1.3739433-0.6593704s1.0034599,0.2196198,1.3739433,0.6593704     c0.3709106,0.4397545,0.5561523,0.9868507,0.5561523,1.6410332c0,0.4967957-0.1101227,0.9375877-0.3303642,1.3221092     c-0.2202377,0.3845253-0.5138931,0.661705-0.8813896,0.8315392c0.1190834,0.1910934,0.2693253,0.2867737,0.4511528,0.2867737     c0.1327438,0,0.2633514-0.0425262,0.3909721-0.1273117c0.1276169-0.0850449,0.2245064-0.1955032,0.2910919-0.3313713     l0.3512764,0.5924759c-0.3043251,0.3907471-0.6521873,0.5862503-1.0435829,0.5862503     c-0.2240829,0-0.4392014-0.0764923-0.6453552-0.2294731C48.1151505,62.2650757,47.9700317,62.0547905,47.8859482,61.7869453z      M48.7280693,58.3459358c-0.2501183-0.3142586-0.557003-0.471386-0.9206581-0.471386     c-0.3636513,0-0.6705399,0.1571274-0.9206581,0.471386c-0.249691,0.3145142-0.3747482,0.6956673-0.3747482,1.1439781     c0,0.448307,0.1250572,0.829464,0.3747482,1.1437187c0.2501183,0.314518,0.5570068,0.4716454,0.9206581,0.4716454     c0.3636551,0,0.6705399-0.1571274,0.9206581-0.4716454c0.249691-0.3142548,0.3747482-0.6954117,0.3747482-1.1437187     C49.1028175,59.0416031,48.9777603,58.66045,48.7280693,58.3459358z" fill="#ffffff"/><path d="M51.3423615,60.7293091c0.1677399,0.2380295,0.395237,0.356781,0.6820602,0.356781     c0.2863998,0,0.5138969-0.1187515,0.6816368-0.356781c0.1677437-0.2380257,0.2518272-0.5608368,0.2518272-0.9687004v-2.4660873     h0.6188927v2.497982c0,0.6414795-0.1451187,1.1354218-0.43536,1.4815712     c-0.2902412,0.3464088-0.6628571,0.5193558-1.1169968,0.5193558c-0.454567,0-0.8271828-0.1729469-1.1174202-0.5193558     c-0.2902412-0.3461494-0.43536-0.8400917-0.43536-1.4815712v-2.497982h0.6188927v2.4660873     C51.0905342,60.1684723,51.1746178,60.4912834,51.3423615,60.7293091z" fill="#ffffff"/><path d="M54.976757,60.7355347l-0.3670654,1.013298H53.948967l1.6155243-4.4543114h0.6607246l1.6155243,4.4543114     h-0.6611481l-0.3670692-1.013298H54.976757z M56.5606995,60.0411606l-0.665844-1.8352394l-0.6662712,1.8352394H56.5606995z" fill="#ffffff"/><path d="M58.349514,61.7488327v-4.4543114h0.6188927v3.74049h1.6731453v0.7138214H58.349514z" fill="#ffffff"/><path d="M61.3180656,57.2945213h0.6188965v4.4543114h-0.6188965V57.2945213z" fill="#ffffff"/><path d="M64.339119,57.982933v3.7658997h-0.6188927V57.982933h-1.1118736v-0.6884117h2.8426437v0.6884117     H64.339119z" fill="#ffffff"/><path d="M67.564621,61.7488327h-0.6291351v-1.7587509l-1.3637009-2.6955605h0.6765137l1.0017548,2.0265961     l1.0017548-2.0265961h0.6765137l-1.3637009,2.6955605V61.7488327z" fill="#ffffff"/></g></g></g><g transform="matrix(0.1171872690320015 0 0 0.1171872690320015 61 66)" id="L1_13"><path d="M436.332,252.148c2.024,1.166,3.905,2.453,5.676,3.861c-1.771,1.397-3.663,2.684-5.676,3.839  l-52.606,30.374c-14.741,8.515-30.836,12.552-46.721,12.541c7.954,13.751,12.497,29.702,12.497,46.721v60.758  c0,2.332-0.176,4.598-0.495,6.832c-2.101-0.836-4.158-1.815-6.172-2.981l-52.606-30.384c-14.752-8.504-26.292-20.418-34.224-34.18  c-7.932,13.762-19.483,25.687-34.224,34.191l-52.617,30.384c-2.002,1.155-4.07,2.156-6.161,2.981  c-0.341-2.233-0.506-4.51-0.506-6.832l0.011-60.758c-0.011-17.04,4.554-32.992,12.508-46.743  c-15.885,0.011-31.991-4.015-46.732-12.541l-52.617-30.363c-2.024-1.166-3.905-2.453-5.676-3.85c1.771-1.408,3.663-2.684,5.676-3.85  l52.617-30.374c14.741-8.515,30.836-12.563,46.721-12.552c-7.954-13.74-12.508-29.702-12.497-46.732v-60.736  c-0.011-2.321,0.165-4.598,0.495-6.832c2.101,0.814,4.158,1.815,6.172,2.981l52.606,30.363c14.741,8.515,26.292,20.44,34.224,34.191  c7.932-13.762,19.483-25.676,34.224-34.18l52.606-30.374c2.002-1.166,4.07-2.167,6.161-2.992c0.341,2.233,0.506,4.51,0.506,6.832  v60.747c0,17.04-4.554,32.992-12.508,46.743c15.885-0.011,31.98,4.015,46.732,12.541L436.332,252.148z" fill="#f95428"/><g><path d="M349.007,417.073c-1.496,10.187-6.26,19.285-13.201,26.226c-8.46,8.46-20.154,13.696-33.058,13.696   c-25.819,0-46.743,20.924-46.754,46.754c0-12.915-5.225-24.598-13.685-33.069c-8.438-8.438-20.121-13.674-32.992-13.685   c-23.52-0.033-43.003-17.315-46.314-39.911c2.09-0.825,4.158-1.826,6.161-2.981l52.617-30.384   c14.741-8.504,26.292-20.429,34.224-34.191c7.932,13.762,19.472,25.676,34.224,34.18l52.606,30.385   C344.848,415.258,346.905,416.237,349.007,417.073z" fill="#f7b239"/><path d="M128.284,290.211c14.741,8.526,30.847,12.552,46.732,12.541   c-7.954,13.751-12.519,29.702-12.508,46.743l-0.011,60.758c0,2.321,0.165,4.598,0.506,6.832c-9.56,3.795-19.824,4.213-29.317,1.683   c-11.54-3.102-21.925-10.616-28.371-21.782c-12.915-22.365-41.506-30.032-63.871-17.117c11.188-6.458,18.68-16.831,21.782-28.382   c3.091-11.54,1.782-24.257-4.631-35.423c-11.738-20.396-6.502-45.907,11.397-60.065c1.771,1.397,3.652,2.684,5.676,3.85   L128.284,290.211z" fill="#f7b239"/><path d="M175.005,209.222c-15.885-0.011-31.98,4.037-46.721,12.552l-52.617,30.374   c-2.013,1.166-3.905,2.442-5.676,3.85c-8.075-6.381-13.553-15.071-16.105-24.543c-3.102-11.551-1.782-24.301,4.675-35.467   c12.893-22.365,5.247-50.956-17.117-63.86c11.188,6.458,23.916,7.756,35.478,4.664c11.529-3.091,21.903-10.583,28.36-21.727   c11.782-20.363,36.501-28.591,57.722-20.143c-0.33,2.233-0.506,4.51-0.495,6.832v60.736   C162.497,179.52,167.052,195.482,175.005,209.222z" fill="#f7b239"/><path d="M348.996,94.912c-2.09,0.825-4.158,1.826-6.161,2.992l-52.606,30.374   c-14.741,8.504-26.292,20.418-34.224,34.18c-7.932-13.751-19.483-25.676-34.224-34.191l-52.606-30.363   c-2.013-1.166-4.07-2.167-6.172-2.981c1.485-10.187,6.249-19.285,13.179-26.237c8.46-8.449,20.165-13.685,33.069-13.696   c25.83,0.011,46.754-20.924,46.754-46.743c0,12.926,5.236,24.598,13.685,33.058c8.438,8.449,20.121,13.674,33.003,13.696   C326.213,55.022,345.695,72.316,348.996,94.912z" fill="#f7b239"/><path d="M470.556,132.117c-11.188,6.458-18.68,16.831-21.782,28.393   c-3.091,11.529-1.782,24.268,4.642,35.412c11.738,20.396,6.502,45.918-11.408,60.087c-1.771-1.408-3.652-2.695-5.676-3.861   l-52.606-30.374c-14.752-8.526-30.847-12.552-46.732-12.541c7.954-13.751,12.508-29.702,12.508-46.743v-60.747   c0-2.321-0.165-4.598-0.506-6.832c9.56-3.795,19.835-4.224,29.317-1.683c11.551,3.091,21.936,10.605,28.382,21.782   C419.61,137.375,448.202,145.021,470.556,132.117z" fill="#f7b239"/><path d="M458.114,280.53c3.102,11.551,1.782,24.301-4.664,35.478c-12.915,22.354-5.247,50.945,17.106,63.86   c-11.188-6.458-23.916-7.756-35.467-4.664c-11.529,3.08-21.903,10.583-28.36,21.727c-11.782,20.363-36.512,28.58-57.722,20.143   c0.319-2.233,0.495-4.499,0.495-6.832v-60.758c0-17.018-4.543-32.97-12.497-46.721c15.885,0.011,31.98-4.026,46.721-12.541   l52.606-30.374c2.013-1.155,3.905-2.442,5.676-3.839C450.072,262.367,455.572,271.047,458.114,280.53z" fill="#f7b239"/><path d="M256.005,213.721c23.355,0,42.288,18.933,42.288,42.277c0,23.355-18.933,42.277-42.288,42.277   c-23.344,0-42.277-18.922-42.277-42.277C213.728,232.654,232.661,213.721,256.005,213.721z" fill="#f7b239"/></g><path d="M256.005,176.802c43.74,0,79.207,35.456,79.207,79.196s-35.467,79.196-79.207,79.196  s-79.196-35.456-79.196-79.196S212.265,176.802,256.005,176.802z M298.292,255.998c0-23.344-18.933-42.276-42.288-42.276  c-23.344,0-42.277,18.933-42.277,42.276c0,23.355,18.933,42.277,42.277,42.277C279.36,298.274,298.292,279.353,298.292,255.998z" fill="#31af0e"/><g><path d="M474.685,372.728L474.685,372.728c-0.004-0.002-0.007-0.003-0.01-0.005   c-18.378-10.625-24.694-34.213-14.075-52.593c7.342-12.738,9.29-27.562,5.486-41.744c-2.274-8.451-6.409-16.059-12.1-22.403   c15.425-17.369,18.513-43.434,6.577-64.175c-5.122-8.89-6.481-19.245-3.825-29.155c2.671-9.945,9.045-18.251,17.947-23.391   c3.946-2.278,5.298-7.324,3.02-11.27c-2.278-3.947-7.326-5.298-11.27-3.02c-0.012,0.007-0.023,0.013-0.035,0.02   c-18.38,10.587-41.95,4.266-52.556-14.104c-7.351-12.732-19.214-21.834-33.4-25.624c-8.442-2.262-17.103-2.49-25.473-0.73   c-7.32-22.05-28.344-37.76-52.269-37.787c-10.276-0.017-19.93-4.021-27.178-11.268c-7.269-7.287-11.274-16.957-11.275-27.227   c0-4.557-3.695-8.25-8.251-8.25c-4.557,0-8.25,3.694-8.251,8.251l0,0l0,0l0,0c0,10.28-4.003,19.947-11.274,27.217   c-7.272,7.272-16.938,11.276-27.227,11.276h-0.003c-14.693,0.007-28.506,5.726-38.899,16.113   c-6.18,6.194-10.702,13.582-13.353,21.692c-22.757-4.684-46.868,5.669-58.855,26.377c-5.15,8.889-13.442,15.245-23.349,17.897   c-9.947,2.661-20.323,1.297-29.222-3.842c-0.001,0-0.002-0.001-0.003-0.002c-3.945-2.276-8.991-0.924-11.269,3.022   c-2.277,3.946-0.926,8.991,3.02,11.269c0.01,0.006,0.02,0.011,0.03,0.018c8.891,5.139,15.249,13.431,17.908,23.355   c2.661,9.933,1.297,20.31-3.84,29.213c-7.353,12.723-9.305,27.545-5.496,41.743c2.275,8.456,6.41,16.069,12.099,22.418   c-15.422,17.366-18.51,43.425-6.581,64.156c5.117,8.896,6.474,19.262,3.826,29.17c-2.679,9.943-9.052,18.246-17.946,23.381   c-3.946,2.278-5.298,7.324-3.02,11.27c2.278,3.947,7.326,5.299,11.27,3.02l0.012-0.007c8.903-5.135,19.275-6.499,29.204-3.838   c9.935,2.661,18.238,9.032,23.379,17.938c7.341,12.716,19.198,21.818,33.397,25.632c4.735,1.264,9.535,1.894,14.314,1.894   c3.747,0,7.478-0.402,11.154-1.173c7.326,22.043,28.352,37.752,52.282,37.789c10.255,0.009,19.902,4.012,27.16,11.268   c7.27,7.279,11.276,16.95,11.276,27.233c0,4.557,3.694,8.25,8.251,8.25s8.251-3.693,8.251-8.251   c0.001-21.236,17.254-38.516,38.509-38.504c14.681,0,28.489-5.719,38.883-16.106c6.183-6.183,10.708-13.567,13.367-21.697   c22.76,4.684,46.876-5.669,58.861-26.372c5.15-8.889,13.442-15.245,23.347-17.897c9.941-2.657,20.316-1.292,29.214,3.847   c3.946,2.279,8.991,0.927,11.272-3.018C479.981,380.053,478.63,375.007,474.685,372.728z M362.223,307.798   c8.929-2.295,17.566-5.775,25.629-10.43l52.609-30.374c0.268-0.155,0.529-0.319,0.794-0.479c4.206,4.533,7.247,10.025,8.895,16.149   c2.661,9.923,1.296,20.301-3.843,29.215c-7.495,12.972-9.068,27.76-5.588,41.236L362.223,307.798z M294.348,376.566   c-12.972-7.486-23.759-18.259-31.192-31.156c-0.477-0.827-1.096-1.539-1.801-2.141c28.184-1.71,52.8-16.821,67.549-39.038   c0.167,0.923,0.476,1.826,0.96,2.663c7.452,12.885,11.389,27.613,11.386,42.593l0.003,54.163L294.348,376.566z M61.854,229.316   c-2.663-9.931-1.298-20.302,3.85-29.21c7.251-12.566,9.231-27.178,5.618-41.206l78.462,45.294   c-8.928,2.295-17.564,5.774-25.627,10.429l-52.618,30.379c-0.267,0.154-0.527,0.318-0.791,0.476   C66.544,240.943,63.503,235.448,61.854,229.316z M217.657,135.416c12.972,7.486,23.76,18.263,31.197,31.166   c0.479,0.831,1.1,1.543,1.807,2.146c-28.187,1.71-52.805,16.823-67.554,39.042c-0.166-0.927-0.476-1.834-0.963-2.674   c-7.455-12.892-11.394-27.623-11.391-42.602l0.001-54.156L217.657,135.416z M337.081,294.515c-0.023,0-0.048,0-0.074,0   c-0.959,0-1.89,0.183-2.767,0.495c5.884-11.753,9.217-24.997,9.217-39.011c0-14.012-3.331-27.254-9.214-39.006   c0.871,0.309,1.794,0.488,2.748,0.488c0.032,0.001,0.046,0,0.069,0c14.878,0,29.586,3.953,42.537,11.432l46.905,27.085   l-46.9,27.078C366.638,290.562,351.938,294.515,337.081,294.515z M341.25,108.339l-0.001,54.153   c0.002,14.977-3.941,29.71-11.399,42.608c-0.481,0.832-0.789,1.729-0.957,2.646c-14.752-22.21-39.368-37.314-67.549-39.019   c0.707-0.603,1.329-1.317,1.807-2.147c7.43-12.892,18.219-23.668,31.199-31.162L341.25,108.339z M185.058,255.999   c0-39.121,31.828-70.949,70.949-70.949s70.949,31.828,70.949,70.949s-31.828,70.949-70.949,70.949S185.058,295.12,185.058,255.999z    M132.407,228.915c12.962-7.484,27.663-11.438,42.523-11.438c0.023,0,0.047,0,0.072,0c0.964,0,1.897-0.184,2.777-0.498   c-5.888,11.756-9.222,25.003-9.222,39.021c0,14.005,3.328,27.243,9.207,38.991c-0.872-0.309-1.796-0.49-2.75-0.49   c-0.021,0.001-0.047,0-0.072,0c-14.877,0-29.584-3.953-42.536-11.433L85.5,255.998L132.407,228.915z M170.75,403.658l0.004-54.168   c-0.002-14.977,3.941-29.71,11.399-42.608c0.481-0.832,0.789-1.729,0.957-2.646c14.749,22.215,39.365,37.326,67.548,39.036   c-0.705,0.602-1.323,1.314-1.801,2.141c-7.43,12.893-18.219,23.668-31.2,31.163L170.75,403.658z M446.263,200.041   c8.476,14.729,6.153,33.278-5.021,45.435c-0.261-0.156-0.518-0.318-0.781-0.47l-52.613-30.381   c-8.06-4.654-16.699-8.135-25.635-10.428l78.461-45.3C437.063,172.906,439.035,187.496,446.263,200.041z M376.179,101.202   c9.928,2.653,18.23,9.023,23.375,17.935c7.488,12.971,19.505,21.723,32.909,25.447l-78.462,45.3   c2.476-8.876,3.749-18.095,3.748-27.392l0.001-60.734c0-0.312-0.011-0.625-0.017-0.937   C363.781,99.448,370.058,99.562,376.179,101.202z M302.682,63.245c16.987,0.02,31.878,11.3,36.818,27.07   c-0.264,0.146-0.53,0.287-0.792,0.439l-52.609,30.374c-8.063,4.654-15.395,10.394-21.846,16.98V47.52   C274.569,57.636,288.189,63.222,302.682,63.245z M209.249,63.245c0.001,0,0.003,0,0.004,0c14.509,0,28.155-5.588,38.497-15.734   v90.592c-6.453-6.588-13.785-12.329-21.846-16.98l-52.589-30.36c-0.275-0.16-0.554-0.308-0.832-0.462   c1.825-5.914,5.058-11.295,9.536-15.781C189.291,67.254,198.963,63.25,209.249,63.245z M112.419,119.194   c8.508-14.698,25.715-21.957,41.85-18.352c-0.004,0.301-0.015,0.605-0.015,0.905l-0.001,60.744   c-0.002,9.297,1.271,18.516,3.745,27.39l-78.424-45.272C93.501,140.738,105.154,131.736,112.419,119.194z M65.74,311.942   c-8.473-14.724-6.151-33.266,5.018-45.419c0.261,0.156,0.518,0.319,0.782,0.47l52.615,30.365   c8.06,4.656,16.699,8.135,25.634,10.429l-78.461,45.3C74.927,339.079,72.956,324.491,65.74,311.942z M135.831,410.798   c-9.935-2.669-18.236-9.042-23.376-17.944c-7.255-12.567-18.922-21.59-32.883-25.475l78.43-45.281   c-2.476,8.876-3.749,18.094-3.748,27.391l-0.004,60.749c0,0.312,0.011,0.624,0.017,0.936   C148.225,412.546,141.947,412.433,135.831,410.798z M209.33,448.747c-16.985-0.026-31.882-11.306-36.828-27.066   c0.263-0.146,0.528-0.286,0.789-0.437l52.618-30.379c8.061-4.654,15.394-10.394,21.846-16.979l-0.006,90.591   C237.42,454.348,223.801,448.759,209.33,448.747z M302.755,448.743c-0.003,0-0.008,0-0.012,0   c-14.977,0.001-28.564,6.031-38.492,15.779l0.005-90.638c6.451,6.585,13.782,12.323,21.84,16.974l52.624,30.388   c0.263,0.151,0.534,0.294,0.8,0.441c-1.829,5.921-5.066,11.3-9.547,15.782C322.699,444.739,313.034,448.743,302.755,448.743z    M399.591,392.799c-8.514,14.706-25.742,21.962-41.852,18.355c0.005-0.304,0.018-0.607,0.018-0.911l-0.004-60.753   c0.002-9.295-1.27-18.51-3.741-27.38l78.417,45.274C418.503,371.259,406.854,380.26,399.591,392.799z" fill="#333333"/><path d="M256.007,205.468c-27.862,0-50.53,22.667-50.53,50.53c0,27.862,22.667,50.53,50.53,50.53   s50.53-22.667,50.53-50.53C306.538,228.137,283.87,205.468,256.007,205.468z M256.007,290.028   c-18.763,0-34.029-15.265-34.029-34.029s15.265-34.029,34.029-34.029s34.029,15.265,34.029,34.029   C290.036,274.762,274.771,290.028,256.007,290.028z" fill="#333333"/><circle cx="384" cy="375" r="8" fill="#333333"/><circle cx="312" cy="356" r="8" fill="#333333"/><circle cx="297" cy="421" r="8" fill="#333333"/><circle cx="214" cy="426" r="8" fill="#333333"/><circle cx="199" cy="356" r="8" fill="#333333"/><circle cx="134" cy="375" r="8" fill="#333333"/><circle cx="88" cy="307" r="8" fill="#333333"/><circle cx="140" cy="257" r="8" fill="#333333"/><circle cx="91" cy="210" r="8" fill="#333333"/><circle cx="127" cy="136" r="8" fill="#333333"/><circle cx="199" cy="155" r="8" fill="#333333"/><circle cx="214" cy="90" r="8" fill="#333333"/><circle cx="297" cy="85" r="8" fill="#333333"/><circle cx="312" cy="155" r="8" fill="#333333"/><circle cx="377" cy="136" r="8" fill="#333333"/><circle cx="423" cy="204" r="8" fill="#333333"/><circle cx="371" cy="254" r="8" fill="#333333"/><circle cx="420" cy="301" r="8" fill="#333333"/></g></g><g transform="matrix(0.1171875 0 0 0.1171875 133 12)" id="L1_14"><circle cx="256" cy="256" r="256" fill="#f0f0f0"/><path d="M256,0C154.506,0,66.81,59.065,25.402,144.696h461.195C445.19,59.065,357.493,0,256,0z" fill="#ff9811"/><path d="M256,512c101.493,0,189.19-59.065,230.598-144.696H25.402C66.81,452.935,154.506,512,256,512z" fill="#6da544"/><circle cx="256" cy="256" r="89" fill="#0052b4"/><circle cx="256" cy="256" r="55" fill="#f0f0f0"/><path d="M256,187.326 273.169,226.264 315.473,221.663 290.337,256 315.473,290.337 273.169,285.736   256,324.674 238.831,285.736 196.527,290.336 221.663,256 196.527,221.663 238.831,226.264z" fill="#0052b4"/></g><g transform="matrix(0.1021711377123767 0.07265503599004525 -0.07265503599004525 0.1021711377123767 267.4438715584681 215.24453644792774)" id="L1_15"><path d="M264,445.93V352V232c0-4.418-3.582-8-8-8c-4.418,0-8,3.582-8,8v120v93.93h-25.391   c-2.293,0-4.509-0.322-6.609-0.915v24.915c0,4.422,3.578,8,8,8h24V504c0,4.418,3.582,8,8,8c4.418,0,8-3.582,8-8v-26.07h24   c4.422,0,8-3.578,8-8v-24.915c-2.101,0.593-4.317,0.915-6.609,0.915H264z" fill="#5c546a"/><path d="M439.89,500.617l-20.148-120.914c-2.727-16.359-9.43-32.023-19.391-45.297L320,227.269V349.93   l-6.13,67.747L427,508.179c1.453,1.156,3.227,1.75,5,1.75c1.391,0,2.789-0.359,4.047-1.102   C438.906,507.148,440.437,503.883,439.89,500.617z" fill="#5c546a"/><path d="M192.153,352l-0.122-1.344l-0.017-123.407l-80.366,107.157   c-9.961,13.273-16.664,28.937-19.391,45.297L72.109,500.617c-0.547,3.266,0.984,6.531,3.844,8.211   c1.258,0.742,2.656,1.102,4.047,1.102c1.773,0,3.547-0.594,5-1.75l113.127-90.501L192.153,352L192.153,352z" fill="#5c546a"/><path d="M320,227.269V125.93c0-44.911-26.015-89.408-42.771-113.401   c8.448,12.104,19.231,29.443,27.868,49.399H256V103c17.081,0,30.928,13.847,30.928,30.928c0,17.081-13.847,30.928-30.928,30.928   V224c4.418,0,8,3.582,8,8v120h55.812l-6.523,72.102l0.581-6.425L320,349.93V227.269z" fill="#ff4f19"/><path d="M192.153,352H248V232c0-4.418,3.582-8,8-8v-59.143c-17.081,0-30.928-13.847-30.928-30.928   C225.072,116.847,238.919,103,256,103V61.928h-49.097c8.636-19.956,19.419-37.295,27.868-49.399   C218.015,36.521,192,81.019,192,125.93l0.014,101.32l0.017,123.407L192.153,352z" fill="#e5001e"/><path d="M319.813,352H264v93.93h25.391c2.293,0,4.509-0.322,6.609-0.915   c9.344-2.638,16.364-10.752,17.289-20.913L319.813,352z" fill="#b6b8be"/><path d="M248,445.93V352h-55.847l0,0l0,0l5.973,65.678l0.584,6.423c0.925,10.161,7.945,18.275,17.289,20.913   c2.101,0.593,4.316,0.915,6.609,0.915H248z" fill="#888693"/><circle cx="256" cy="133" r="30" fill="#5c546a"/><path d="M256,61.928V0c-7.711,0-14.992,3.758-19.484,10.055c-0.539,0.755-1.089,1.534-1.649,2.337   c-0.031,0.045-0.064,0.093-0.095,0.137c-8.448,12.104-19.231,29.443-27.868,49.399H256z" fill="#5c546a"/><path d="M305.097,61.928c-8.636-19.956-19.42-37.295-27.868-49.399c-0.031-0.045-0.064-0.093-0.095-0.137   c-0.561-0.802-1.111-1.582-1.649-2.337C270.992,3.758,263.711,0,256,0v61.928H305.097z" fill="#888693"/></g><path d="M213.333,10.441 279.249,144.017 426.667,165.436 320,269.41 345.173,416.226 213.333,346.91   81.485,416.226 106.667,269.41 0,165.436 147.409,144.017z" transform="matrix(0.11223258078098297 0 0 0.11223258078098297 45.04756307601929 247.05703290076667)" fill="#fac917" id="L1_18"/><g transform="matrix(0.2480025440454483 0 0 0.2480025440454483 27.999999152335022 126)" id="L1_19"><path d="M213.937,85.577l-18.398-19.016l3.706-26.192c0.567-4.006-2.145-7.74-6.131-8.438l-26.058-4.568L154.652,3.986   c-1.896-3.573-6.287-4.999-9.919-3.222L120.969,12.38L97.199,0.764c-3.635-1.777-8.022-0.35-9.919,3.224L74.881,27.363   L48.82,31.931c-3.985,0.698-6.698,4.432-6.131,8.438l3.705,26.192L27.996,85.577c-2.813,2.908-2.813,7.522,0.001,10.43   l18.397,19.014l-3.705,26.206c-0.566,4.005,2.146,7.739,6.131,8.437l20.857,3.656v81.113c0,2.599,1.346,5.013,3.557,6.379   c1.204,0.745,2.572,1.121,3.943,1.121c1.146,0,2.295-0.262,3.354-0.792l40.439-20.212l40.433,20.212   c2.324,1.162,5.086,1.038,7.297-0.329c2.211-1.367,3.557-3.781,3.557-6.38v-81.111l20.858-3.658   c3.985-0.699,6.697-4.432,6.131-8.438l-3.706-26.206l18.397-19.013C216.749,93.1,216.749,88.485,213.937,85.577z M124.323,205.835   c-2.11-1.055-4.595-1.056-6.707,0l-32.939,16.464v-49.605l2.604,4.909c1.896,3.575,6.288,5,9.92,3.222l23.769-11.624l23.762,11.624   c1.06,0.518,2.184,0.764,3.291,0.764c2.69,0,5.286-1.454,6.63-3.985l2.604-4.905v49.6L124.323,205.835z M182.209,107.225   c-1.609,1.663-2.36,3.975-2.036,6.266l3.203,22.651l-22.521,3.949c-2.278,0.399-4.245,1.828-5.33,3.871l-10.721,20.2   l-20.539-10.047c-1.04-0.508-2.168-0.763-3.296-0.763c-1.128,0-2.256,0.254-3.295,0.763L97.13,164.162l-10.717-20.199   c-1.084-2.044-3.051-3.473-5.33-3.872l-22.526-3.949l3.202-22.652c0.324-2.29-0.427-4.603-2.036-6.265L43.822,90.791l15.902-16.436   c1.608-1.663,2.359-3.975,2.035-6.265l-3.202-22.637l22.526-3.949c2.279-0.399,4.246-1.829,5.331-3.873l10.717-20.205l20.545,10.04   c2.078,1.016,4.509,1.016,6.587,0l20.539-10.04l10.723,20.206c1.084,2.043,3.051,3.472,5.33,3.872l22.521,3.948l-3.203,22.637   c-0.324,2.291,0.427,4.603,2.035,6.266l15.902,16.436L182.209,107.225z"/><path d="M120.969,39.507c-28.283,0-51.293,23.006-51.293,51.285c0,28.285,23.01,51.296,51.293,51.296   c28.279,0,51.286-23.011,51.286-51.296C172.255,62.513,149.248,39.507,120.969,39.507z M120.969,127.088   c-20.012,0-36.293-16.282-36.293-36.296c0-20.008,16.281-36.285,36.293-36.285c20.008,0,36.286,16.277,36.286,36.285   C157.255,110.806,140.977,127.088,120.969,127.088z"/><path d="M136.258,71.765l-22.155,22.15l-8.431-8.421c-2.93-2.928-7.679-2.925-10.607,0.006c-2.927,2.931-2.924,7.679,0.007,10.606   l13.733,13.718c1.464,1.463,3.382,2.194,5.3,2.194c1.919,0,3.839-0.732,5.303-2.196l27.455-27.449   c2.93-2.928,2.93-7.677,0.001-10.607C143.936,68.837,139.187,68.836,136.258,71.765z"/></g><g transform="matrix(1.3212344646453857 0 0 1.3212344646453857 229.68419933319092 126.68419933319092)" id="L1_21"><path d="M29,0c0,0-6.667,8-22,8v19.085c0,9.966,4.328,19.577,12.164,25.735C21.937,55,25.208,56.875,29,58  c3.792-1.125,7.062-3,9.836-5.18C46.672,46.662,51,37.051,51,27.085V8C35.667,8,29,0,29,0z" fill="#556080"/><path d="M29,51.661c-2.123-0.833-4.178-2.025-6.128-3.558C16.69,43.245,13,35.388,13,27.085V13.628  c7.391-0.943,12.639-3.514,16-5.798c3.361,2.284,8.609,4.855,16,5.798v13.457c0,8.303-3.69,16.16-9.871,21.018  C33.178,49.636,31.123,50.828,29,51.661z" fill="#4fba6f"/><path d="M41.659,20.248c-0.416-0.364-1.047-0.321-1.411,0.094L26.951,35.537l-7.244-7.244  c-0.391-0.391-1.023-0.391-1.414,0s-0.391,1.023,0,1.414l8,8C26.481,37.895,26.735,38,27,38c0.011,0,0.022,0,0.033,0  c0.277-0.009,0.537-0.133,0.719-0.341l14-16C42.116,21.243,42.074,20.611,41.659,20.248z" fill="#ffffff"/></g></defs><g fi:class="KUsePattern"><pattern id="pattern_L1_2" width="350" height="350" patternUnits="userSpaceOnUse"><use xlink:href="#L1_2" x="-350" y="-350"/><use xlink:href="#L1_2" x="0" y="-350"/><use xlink:href="#L1_2" x="350" y="-350"/><use xlink:href="#L1_2" x="-350" y="0"/><use xlink:href="#L1_2" x="0" y="0"/><use xlink:href="#L1_2" x="350" y="0"/><use xlink:href="#L1_2" x="-350" y="350"/><use xlink:href="#L1_2" x="0" y="350"/><use xlink:href="#L1_2" x="350" y="350"/></pattern><rect x="0" y="0" width="100%" height="100%" fill="url(#pattern_L1_2)"/></g><g fi:class="KUsePattern"><pattern id="pattern_L1_3" width="350" height="350" patternUnits="userSpaceOnUse"><use xlink:href="#L1_3" x="-350" y="-350"/><use xlink:href="#L1_3" x="0" y="-350"/><use xlink:href="#L1_3" x="350" y="-350"/><use xlink:href="#L1_3" x="-350" y="0"/><use xlink:href="#L1_3" x="0" y="0"/><use xlink:href="#L1_3" x="350" y="0"/><use xlink:href="#L1_3" x="-350" y="350"/><use xlink:href="#L1_3" x="0" y="350"/><use xlink:href="#L1_3" x="350" y="350"/></pattern><rect x="0" y="0" width="100%" height="100%" fill="url(#pattern_L1_3)"/></g><g fi:class="KUsePattern"><pattern id="pattern_L1_4" width="350" height="350" patternUnits="userSpaceOnUse"><use xlink:href="#L1_4" x="-350" y="-350"/><use xlink:href="#L1_4" x="0" y="-350"/><use xlink:href="#L1_4" x="350" y="-350"/><use xlink:href="#L1_4" x="-350" y="0"/><use xlink:href="#L1_4" x="0" y="0"/><use xlink:href="#L1_4" x="350" y="0"/><use xlink:href="#L1_4" x="-350" y="350"/><use xlink:href="#L1_4" x="0" y="350"/><use xlink:href="#L1_4" x="350" y="350"/></pattern><rect x="0" y="0" width="100%" height="100%" fill="url(#pattern_L1_4)"/></g><g fi:class="KUsePattern"><pattern id="pattern_L1_5" width="350" height="350" patternUnits="userSpaceOnUse"><use xlink:href="#L1_5" x="-350" y="-350"/><use xlink:href="#L1_5" x="0" y="-350"/><use xlink:href="#L1_5" x="350" y="-350"/><use xlink:href="#L1_5" x="-350" y="0"/><use xlink:href="#L1_5" x="0" y="0"/><use xlink:href="#L1_5" x="350" y="0"/><use xlink:href="#L1_5" x="-350" y="350"/><use xlink:href="#L1_5" x="0" y="350"/><use xlink:href="#L1_5" x="350" y="350"/></pattern><rect x="0" y="0" width="100%" height="100%" fill="url(#pattern_L1_5)"/></g><g fi:class="KUsePattern"><pattern id="pattern_L1_6" width="350" height="350" patternUnits="userSpaceOnUse"><use xlink:href="#L1_6" x="-350" y="-350"/><use xlink:href="#L1_6" x="0" y="-350"/><use xlink:href="#L1_6" x="350" y="-350"/><use xlink:href="#L1_6" x="-350" y="0"/><use xlink:href="#L1_6" x="0" y="0"/><use xlink:href="#L1_6" x="350" y="0"/><use xlink:href="#L1_6" x="-350" y="350"/><use xlink:href="#L1_6" x="0" y="350"/><use xlink:href="#L1_6" x="350" y="350"/></pattern><rect x="0" y="0" width="100%" height="100%" fill="url(#pattern_L1_6)"/></g><g fi:class="KUsePattern"><pattern id="pattern_L1_7" width="350" height="350" patternUnits="userSpaceOnUse"><use xlink:href="#L1_7" x="-350" y="-350"/><use xlink:href="#L1_7" x="0" y="-350"/><use xlink:href="#L1_7" x="350" y="-350"/><use xlink:href="#L1_7" x="-350" y="0"/><use xlink:href="#L1_7" x="0" y="0"/><use xlink:href="#L1_7" x="350" y="0"/><use xlink:href="#L1_7" x="-350" y="350"/><use xlink:href="#L1_7" x="0" y="350"/><use xlink:href="#L1_7" x="350" y="350"/></pattern><rect x="0" y="0" width="100%" height="100%" fill="url(#pattern_L1_7)"/></g><g fi:class="KUsePattern"><pattern id="pattern_L1_8" width="350" height="350" patternUnits="userSpaceOnUse"><use xlink:href="#L1_8" x="-350" y="-350"/><use xlink:href="#L1_8" x="0" y="-350"/><use xlink:href="#L1_8" x="350" y="-350"/><use xlink:href="#L1_8" x="-350" y="0"/><use xlink:href="#L1_8" x="0" y="0"/><use xlink:href="#L1_8" x="350" y="0"/><use xlink:href="#L1_8" x="-350" y="350"/><use xlink:href="#L1_8" x="0" y="350"/><use xlink:href="#L1_8" x="350" y="350"/></pattern><rect x="0" y="0" width="100%" height="100%" fill="url(#pattern_L1_8)"/></g><g fi:class="KUsePattern"><pattern id="pattern_L1_9" width="350" height="350" patternUnits="userSpaceOnUse"><use xlink:href="#L1_9" x="-350" y="-350"/><use xlink:href="#L1_9" x="0" y="-350"/><use xlink:href="#L1_9" x="350" y="-350"/><use xlink:href="#L1_9" x="-350" y="0"/><use xlink:href="#L1_9" x="0" y="0"/><use xlink:href="#L1_9" x="350" y="0"/><use xlink:href="#L1_9" x="-350" y="350"/><use xlink:href="#L1_9" x="0" y="350"/><use xlink:href="#L1_9" x="350" y="350"/></pattern><rect x="0" y="0" width="100%" height="100%" fill="url(#pattern_L1_9)"/></g><g fi:class="KUsePattern"><pattern id="pattern_L1_10" width="350" height="350" patternUnits="userSpaceOnUse"><use xlink:href="#L1_10" x="-350" y="-350"/><use xlink:href="#L1_10" x="0" y="-350"/><use xlink:href="#L1_10" x="350" y="-350"/><use xlink:href="#L1_10" x="-350" y="0"/><use xlink:href="#L1_10" x="0" y="0"/><use xlink:href="#L1_10" x="350" y="0"/><use xlink:href="#L1_10" x="-350" y="350"/><use xlink:href="#L1_10" x="0" y="350"/><use xlink:href="#L1_10" x="350" y="350"/></pattern><rect x="0" y="0" width="100%" height="100%" fill="url(#pattern_L1_10)"/></g><g fi:class="KUsePattern"><pattern id="pattern_L1_11" width="350" height="350" patternUnits="userSpaceOnUse"><use xlink:href="#L1_11" x="-350" y="-350"/><use xlink:href="#L1_11" x="0" y="-350"/><use xlink:href="#L1_11" x="350" y="-350"/><use xlink:href="#L1_11" x="-350" y="0"/><use xlink:href="#L1_11" x="0" y="0"/><use xlink:href="#L1_11" x="350" y="0"/><use xlink:href="#L1_11" x="-350" y="350"/><use xlink:href="#L1_11" x="0" y="350"/><use xlink:href="#L1_11" x="350" y="350"/></pattern><rect x="0" y="0" width="100%" height="100%" fill="url(#pattern_L1_11)"/></g><g fi:class="KUsePattern"><pattern id="pattern_L1_12" width="350" height="350" patternUnits="userSpaceOnUse"><use xlink:href="#L1_12" x="-350" y="-350"/><use xlink:href="#L1_12" x="0" y="-350"/><use xlink:href="#L1_12" x="350" y="-350"/><use xlink:href="#L1_12" x="-350" y="0"/><use xlink:href="#L1_12" x="0" y="0"/><use xlink:href="#L1_12" x="350" y="0"/><use xlink:href="#L1_12" x="-350" y="350"/><use xlink:href="#L1_12" x="0" y="350"/><use xlink:href="#L1_12" x="350" y="350"/></pattern><rect x="0" y="0" width="100%" height="100%" fill="url(#pattern_L1_12)"/></g><g fi:class="KUsePattern"><pattern id="pattern_L1_13" width="350" height="350" patternUnits="userSpaceOnUse"><use xlink:href="#L1_13" x="-350" y="-350"/><use xlink:href="#L1_13" x="0" y="-350"/><use xlink:href="#L1_13" x="350" y="-350"/><use xlink:href="#L1_13" x="-350" y="0"/><use xlink:href="#L1_13" x="0" y="0"/><use xlink:href="#L1_13" x="350" y="0"/><use xlink:href="#L1_13" x="-350" y="350"/><use xlink:href="#L1_13" x="0" y="350"/><use xlink:href="#L1_13" x="350" y="350"/></pattern><rect x="0" y="0" width="100%" height="100%" fill="url(#pattern_L1_13)"/></g><g fi:class="KUsePattern"><pattern id="pattern_L1_14" width="350" height="350" patternUnits="userSpaceOnUse"><use xlink:href="#L1_14" x="-350" y="-350"/><use xlink:href="#L1_14" x="0" y="-350"/><use xlink:href="#L1_14" x="350" y="-350"/><use xlink:href="#L1_14" x="-350" y="0"/><use xlink:href="#L1_14" x="0" y="0"/><use xlink:href="#L1_14" x="350" y="0"/><use xlink:href="#L1_14" x="-350" y="350"/><use xlink:href="#L1_14" x="0" y="350"/><use xlink:href="#L1_14" x="350" y="350"/></pattern><rect x="0" y="0" width="100%" height="100%" fill="url(#pattern_L1_14)"/></g><g fi:class="KUsePattern"><pattern id="pattern_L1_15" width="350" height="350" patternUnits="userSpaceOnUse"><use xlink:href="#L1_15" x="-350" y="-350"/><use xlink:href="#L1_15" x="0" y="-350"/><use xlink:href="#L1_15" x="350" y="-350"/><use xlink:href="#L1_15" x="-350" y="0"/><use xlink:href="#L1_15" x="0" y="0"/><use xlink:href="#L1_15" x="350" y="0"/><use xlink:href="#L1_15" x="-350" y="350"/><use xlink:href="#L1_15" x="0" y="350"/><use xlink:href="#L1_15" x="350" y="350"/></pattern><rect x="0" y="0" width="100%" height="100%" fill="url(#pattern_L1_15)"/></g><g fi:class="KUsePattern"><pattern id="pattern_L1_18" width="350" height="350" patternUnits="userSpaceOnUse"><use xlink:href="#L1_18" x="-350" y="-350"/><use xlink:href="#L1_18" x="0" y="-350"/><use xlink:href="#L1_18" x="350" y="-350"/><use xlink:href="#L1_18" x="-350" y="0"/><use xlink:href="#L1_18" x="0" y="0"/><use xlink:href="#L1_18" x="350" y="0"/><use xlink:href="#L1_18" x="-350" y="350"/><use xlink:href="#L1_18" x="0" y="350"/><use xlink:href="#L1_18" x="350" y="350"/></pattern><rect x="0" y="0" width="100%" height="100%" fill="url(#pattern_L1_18)"/></g><g fi:class="KUsePattern"><pattern id="pattern_L1_19" width="350" height="350" patternUnits="userSpaceOnUse"><use xlink:href="#L1_19" x="-350" y="-350"/><use xlink:href="#L1_19" x="0" y="-350"/><use xlink:href="#L1_19" x="350" y="-350"/><use xlink:href="#L1_19" x="-350" y="0"/><use xlink:href="#L1_19" x="0" y="0"/><use xlink:href="#L1_19" x="350" y="0"/><use xlink:href="#L1_19" x="-350" y="350"/><use xlink:href="#L1_19" x="0" y="350"/><use xlink:href="#L1_19" x="350" y="350"/></pattern><rect x="0" y="0" width="100%" height="100%" fill="url(#pattern_L1_19)"/></g><g fi:class="KUsePattern"><pattern id="pattern_L1_21" width="350" height="350" patternUnits="userSpaceOnUse"><use xlink:href="#L1_21" x="-350" y="-350"/><use xlink:href="#L1_21" x="0" y="-350"/><use xlink:href="#L1_21" x="350" y="-350"/><use xlink:href="#L1_21" x="-350" y="0"/><use xlink:href="#L1_21" x="0" y="0"/><use xlink:href="#L1_21" x="350" y="0"/><use xlink:href="#L1_21" x="-350" y="350"/><use xlink:href="#L1_21" x="0" y="350"/><use xlink:href="#L1_21" x="350" y="350"/></pattern><rect x="0" y="0" width="100%" height="100%" fill="url(#pattern_L1_21)"/></g></svg>