<?xml version="1.0" encoding="iso-8859-1"?>
<!-- Generator: Adobe Illustrator 19.0.0, SVG Export Plug-In . SVG Version: 6.00 Build 0)  -->
<svg version="1.1" id="Capa_1" xmlns="http://www.w3.org/2000/svg" xmlns:xlink="http://www.w3.org/1999/xlink" x="0px" y="0px"
	 viewBox="0 0 512 512" style="enable-background:new 0 0 512 512;" xml:space="preserve">
<path style="fill:#B8BFCC;" d="M268.829,0h-25.659c-67.609,0-122.609,55-122.609,122.609v108.228h270.876V122.609
	C391.438,55,336.438,0,268.829,0z M361.416,200.815H150.585v-78.207c0-51.057,41.54-92.587,92.587-92.587h25.659
	c51.047,0,92.587,41.53,92.587,92.587v78.207H361.416z"/>
<path style="fill:#98A1AF;" d="M391.438,122.609v108.228H256v-30.022h105.416v-78.207c0-51.057-41.54-92.587-92.587-92.587H256V0
	h12.829C336.438,0,391.438,55,391.438,122.609z"/>
<path style="fill:#87D92B;" d="M440.583,235.32v242.325c0,18.944-15.411,34.355-34.365,34.355H105.781
	c-18.954,0-34.365-15.411-34.365-34.355V235.32c0-18.944,15.411-34.355,34.365-34.355h300.437
	C425.172,200.965,440.583,216.376,440.583,235.32z"/>
<path style="fill:#00C37A;" d="M440.583,235.32v242.325c0,18.944-15.411,34.355-34.365,34.355H256V200.965h150.219
	C425.172,200.965,440.583,216.376,440.583,235.32z"/>
<path style="fill:#656566;" d="M271.011,356.478V512h-30.022V364.023l-38.318-28.531c-6.655-4.954-8.036-14.36-3.082-21.005
	c0.02-0.03,0.05-0.06,0.07-0.09c4.974-6.565,14.32-7.916,20.935-2.982l44.362,33.024c0.09,0.07,0.17,0.15,0.26,0.21
	c0.22,0.17,0.43,0.35,0.641,0.53c0.18,0.16,0.35,0.31,0.52,0.48c0.17,0.16,0.34,0.33,0.51,0.51c0.18,0.19,0.35,0.38,0.52,0.58
	c0.14,0.16,0.28,0.33,0.41,0.5c0.17,0.22,0.33,0.43,0.49,0.65c0.12,0.18,0.24,0.36,0.35,0.55c0.14,0.22,0.28,0.44,0.41,0.671
	c0.12,0.2,0.22,0.42,0.33,0.63s0.21,0.42,0.31,0.64c0.11,0.24,0.2,0.48,0.3,0.731c0.07,0.2,0.15,0.4,0.22,0.6
	c0.08,0.26,0.16,0.53,0.23,0.791c0.06,0.21,0.11,0.41,0.16,0.62c0.06,0.26,0.11,0.52,0.15,0.781c0.04,0.23,0.08,0.46,0.11,0.701
	c0.03,0.24,0.05,0.47,0.07,0.71c0.02,0.27,0.03,0.55,0.04,0.821C270.991,356.257,271.011,356.367,271.011,356.478z"/>
<path style="fill:#53565C;" d="M271.011,356.478V512h-15.021V356.898l-56.331-42.501c4.974-6.565,14.32-7.916,20.935-2.982
	l44.362,33.024c0.09,0.07,0.17,0.15,0.26,0.21c0.22,0.17,0.43,0.35,0.641,0.53c0.18,0.16,0.35,0.31,0.52,0.48
	c0.17,0.16,0.34,0.33,0.51,0.51c0.18,0.19,0.35,0.38,0.52,0.58c0.14,0.16,0.28,0.33,0.41,0.5c0.17,0.22,0.33,0.43,0.49,0.65
	c0.12,0.18,0.24,0.36,0.35,0.55c0.14,0.22,0.28,0.44,0.41,0.671c0.12,0.2,0.22,0.42,0.33,0.63s0.21,0.42,0.31,0.64
	c0.11,0.24,0.2,0.48,0.3,0.731c0.07,0.2,0.15,0.4,0.22,0.6c0.08,0.26,0.16,0.53,0.23,0.791c0.06,0.21,0.11,0.41,0.16,0.62
	c0.06,0.26,0.11,0.52,0.15,0.781c0.04,0.23,0.08,0.46,0.11,0.701c0.03,0.24,0.05,0.47,0.07,0.71c0.02,0.27,0.03,0.55,0.04,0.821
	C270.991,356.257,271.011,356.367,271.011,356.478z"/>
<path style="fill:#D92C48;" d="M231.533,304.19c0,10.297-3.422,19.814-9.187,27.47c-8.356,11.108-21.646,18.303-36.586,18.303
	c-25.248,0-45.783-20.535-45.783-45.773c0-10.047,3.252-19.354,8.766-26.919c8.336-11.428,21.826-18.864,37.017-18.864
	C210.997,258.407,231.533,278.942,231.533,304.19z"/>
<path style="fill:#656566;" d="M184.909,444.581V512h-30.022v-67.419c0-8.286,6.725-15.011,15.011-15.011
	C178.194,429.57,184.909,436.295,184.909,444.581z"/>
<path style="fill:#0088FF;" d="M215.681,412.788c0,25.248-20.535,45.783-45.783,45.783c-25.238,0-45.773-20.535-45.773-45.783
	c0-25.238,20.535-45.773,45.773-45.773C195.146,367.015,215.681,387.55,215.681,412.788z"/>
<path style="fill:#53565C;" d="M358.074,339.966V512h-30.022V339.966c0-8.286,6.715-15.011,15.011-15.011
	C351.349,324.955,358.074,331.68,358.074,339.966z"/>
<path style="fill:#FFBC33;" d="M388.836,304.19c0,25.238-20.535,45.773-45.773,45.773c-25.248,0-45.783-20.535-45.783-45.773
	c0-25.248,20.535-45.783,45.783-45.783C368.301,258.407,388.836,278.942,388.836,304.19z"/>
<g>
</g>
<g>
</g>
<g>
</g>
<g>
</g>
<g>
</g>
<g>
</g>
<g>
</g>
<g>
</g>
<g>
</g>
<g>
</g>
<g>
</g>
<g>
</g>
<g>
</g>
<g>
</g>
<g>
</g>
</svg>
