<?xml version="1.0" encoding="iso-8859-1"?>
<!-- Generator: Adobe Illustrator 19.0.0, SVG Export Plug-In . SVG Version: 6.00 Build 0)  -->
<svg version="1.1" id="Layer_1" xmlns="http://www.w3.org/2000/svg" xmlns:xlink="http://www.w3.org/1999/xlink" x="0px" y="0px"
	 viewBox="0 0 512 512" style="enable-background:new 0 0 512 512;" xml:space="preserve">
<path style="fill:#013A3A;" d="M478.242,0h-33.758v337.582h33.758c18.567,0,33.758-15.191,33.758-33.758V33.758
	C512,15.191,496.809,0,478.242,0z"/>
<path style="fill:#027372;" d="M478.242,303.824V33.758C478.242,15.191,463.051,0,444.484,0H33.758C15.191,0,0,15.191,0,33.758
	v270.066c0,18.567,15.191,33.758,33.758,33.758h410.725C463.051,337.582,478.242,322.391,478.242,303.824z"/>
<polygon style="fill:#FFE777;" points="410.725,33.758 376.967,168.791 410.725,303.824 444.484,303.824 444.484,33.758 "/>
<rect x="67.516" y="33.758" style="fill:#FFFFFF;" width="343.209" height="270.066"/>
<circle style="fill:#013A3A;" cx="33.758" cy="168.791" r="8.44"/>
<polygon style="fill:#FEA680;" points="236.308,423.385 258.813,512 329.143,512 329.143,423.385 "/>
<rect x="188.484" y="423.385" style="fill:#FFC1A6;" width="70.375" height="88.615"/>
<path style="fill:#FFDBCC;" d="M329.143,261.626v47.824h39.385l-16.879-75.392C338.808,236.666,329.143,248.017,329.143,261.626z"/>
<path style="fill:#FFC1A6;" d="M385.407,261.626c0-15.537-12.595-28.132-28.132-28.132c-1.926,0-3.808,0.195-5.626,0.564v75.392
	l33.758-33.758V261.626z"/>
<path style="fill:#FFDBCC;" d="M244.747,205.363c-15.537,0-28.132,12.595-28.132,28.132l-18.755,70.33h93.773l-18.754-70.33
	C272.879,217.958,260.284,205.363,244.747,205.363z"/>
<g>
	<path style="fill:#FEA680;" d="M301.011,219.429c-15.537,0-28.132,12.595-28.132,28.132v56.264h56.264V247.56
		C329.143,232.024,316.548,219.429,301.011,219.429z"/>
	<path style="fill:#FEA680;" d="M188.484,106.901c-15.537,0-28.132,12.595-28.132,28.132v168.791h56.264V135.033
		C216.615,119.496,204.02,106.901,188.484,106.901z"/>
	<path style="fill:#FEA680;" d="M351.648,275.692l-92.79,196.923c69.895-0.024,126.548-56.691,126.548-126.593v-70.33H351.648z"/>
</g>
<path style="fill:#FFDBCC;" d="M132.22,303.824v42.198l50.637,22.505l-22.505-92.835C144.815,275.692,132.22,288.288,132.22,303.824
	z"/>
<path style="fill:#FFC1A6;" d="M160.352,275.692v70.33H132.22c0,69.916,56.678,126.593,126.593,126.593
	c51.296-0.034,92.835-56.698,92.835-126.593v-70.33H160.352z"/>
<g>
</g>
<g>
</g>
<g>
</g>
<g>
</g>
<g>
</g>
<g>
</g>
<g>
</g>
<g>
</g>
<g>
</g>
<g>
</g>
<g>
</g>
<g>
</g>
<g>
</g>
<g>
</g>
<g>
</g>
</svg>
