<?xml version="1.0" encoding="iso-8859-1"?>
<!-- Generator: Adobe Illustrator 19.0.0, SVG Export Plug-In . SVG Version: 6.00 Build 0)  -->
<svg version="1.1" id="Capa_1" xmlns="http://www.w3.org/2000/svg" xmlns:xlink="http://www.w3.org/1999/xlink" x="0px" y="0px"
	 viewBox="0 0 512.004 512.004" style="enable-background:new 0 0 512.004 512.004;" xml:space="preserve">
<g>
	<polygon style="fill:#63D3FD;" points="145.069,469.337 230.402,469.337 230.402,298.67 145.069,298.67 	"/>
	<polygon style="fill:#00DA6C;" points="332.802,469.337 418.135,469.337 418.135,230.403 332.802,230.403 	"/>
	<g>
		<path style="fill:#FFE100;" d="M273.069,264.537c-2.927-6.042-10.948-15.343-17.05-18.671L219.599,226
			c-4.779-2.603-6.246-7.612-6.246-13.056v-14.925c0,0,12.988-12.783,17.067-30.549c3.379-2.185,8.533-5.965,8.533-10.274v-16.324
			c0-3.593-6.05-6.81-8.533-9.054v-23.603c0,0,3.106-39.945-42.667-39.945c-43.972,0-42.667,39.945-42.667,39.945v23.603
			c-2.492,2.244-8.533,5.461-8.533,9.054v16.324c0,4.309,5.146,8.09,8.533,10.274c4.079,17.766,17.067,30.549,17.067,30.549v14.925
			c0,5.444-1.476,10.453-6.255,13.056l-36.42,19.866c-6.101,3.328-14.148,12.629-17.075,18.671H273.069z"/>
		<path style="fill:#FFE100;" d="M452.269,196.27c-3.618-9.045-14.148-17.647-22.98-21.751l-20.753-14.063
			c-2.406-1.297-5.982-4.113-7.142-6.852c-1.024-2.423,0.606-8.516,3.345-8.516l39.296-0.017c6.63-0.051,8.457-9.574,4.753-15.087
			c-9.719-14.473-26.052-43.076-26.615-72.55c0,0,1.655-48.495-46.703-48.896l0,0c-48.358,0.401-46.703,48.896-46.703,48.896
			c-0.563,29.474-16.896,58.078-26.615,72.55c-3.703,5.513-1.877,15.036,4.753,15.087l39.305-0.051c2.739,0,4.386,6.11,3.362,8.533
			c-1.161,2.739-4.753,5.547-7.159,6.835l-20.762,14.131c-8.832,4.105-19.362,12.706-22.98,21.751H452.269z"/>
	</g>
	<polygon style="fill:#00AD55;" points="392.535,469.337 418.135,469.337 418.135,230.403 392.535,230.403 	"/>
	<path style="fill:#FFA800;" d="M429.291,174.521l-20.753-14.071c-2.406-1.289-5.99-4.113-7.142-6.844
		c-1.033-2.432,0.606-8.525,3.345-8.525l39.287-0.009c6.639-0.051,8.457-9.583,4.762-15.087
		c-9.719-14.481-26.052-43.085-26.624-72.55c0,0,1.655-48.503-46.694-48.896l0,0c-4.787,0.034-8.951,0.657-12.8,1.545
		c35.115,8.081,33.894,47.351,33.894,47.351c0.572,29.466,16.905,58.069,26.624,72.55c3.695,5.504,1.877,15.036-4.762,15.087
		l-39.287,0.009c-2.739,0-4.378,6.093-3.345,8.525c1.152,2.731,4.736,5.555,7.142,6.844l20.753,14.071
		c8.832,4.105,19.362,12.706,22.98,21.751h25.6C448.653,187.227,438.123,178.626,429.291,174.521"/>
	<g>
		<path style="fill:#FFE100;" d="M51.202,512.003c-4.71,0-8.533-3.823-8.533-8.533V8.537c0-4.71,3.823-8.533,8.533-8.533
			s8.533,3.823,8.533,8.533V503.47C59.735,508.18,55.913,512.003,51.202,512.003"/>
		<path style="fill:#FFE100;" d="M503.469,477.87h-486.4c-4.71,0-8.533-3.823-8.533-8.533c0-4.71,3.823-8.533,8.533-8.533h486.4
			c4.71,0,8.533,3.823,8.533,8.533C512.002,474.047,508.179,477.87,503.469,477.87"/>
		<path style="fill:#FFE100;" d="M477.86,512.003c-1.775,0-3.575-0.555-5.111-1.707c-3.772-2.825-4.531-8.175-1.707-11.947
			l21.76-29.013l-21.76-29.013c-2.825-3.772-2.065-9.122,1.707-11.947c3.78-2.833,9.131-2.057,11.947,1.707l25.6,34.133
			c2.278,3.029,2.278,7.211,0,10.24l-25.6,34.133C483.014,510.826,480.454,512.003,477.86,512.003"/>
		<path style="fill:#FFE100;" d="M85.335,51.203c-2.185,0-4.369-0.836-6.033-2.5l-28.1-28.1l-28.1,28.1
			c-3.337,3.337-8.73,3.337-12.066,0c-3.337-3.337-3.337-8.73,0-12.066L45.169,2.503c3.337-3.337,8.73-3.337,12.066,0l34.133,34.133
			c3.337,3.337,3.337,8.73,0,12.066C89.705,50.367,87.52,51.203,85.335,51.203"/>
	</g>
	<g>
		<path d="M119.977,256.003h135.535c-1.297-1.143-2.526-2.074-3.584-2.645l-36.42-19.866c-4.873-2.662-10.692-8.388-10.692-20.548
			v-14.925c0-2.287,0.913-4.48,2.551-6.084c0.085-0.094,11.29-11.375,14.729-26.368c0.495-2.167,1.818-4.053,3.686-5.257
			c3.123-2.022,4.25-3.277,4.634-3.789v-13.901c-0.751-0.657-1.911-1.51-2.62-2.031c-1.195-0.879-2.287-1.707-3.098-2.441
			c-1.792-1.613-2.816-3.917-2.816-6.332v-23.603c0.026-0.742,0.759-13.491-7.458-22.255c-5.692-6.076-14.66-9.156-26.675-9.156
			c-11.298,0-19.934,3.004-25.66,8.917c-8.661,8.951-8.482,22.084-8.482,22.212l0.009,23.885c0,2.415-1.024,4.719-2.807,6.332
			c-0.811,0.734-1.911,1.562-3.115,2.449c-0.708,0.521-1.86,1.365-2.611,2.022v13.901c0.375,0.512,1.51,1.766,4.634,3.789
			c1.869,1.203,3.183,3.089,3.686,5.257c3.422,14.916,14.618,26.257,14.729,26.368c1.63,1.604,2.551,3.797,2.551,6.084v14.925
			c0,12.16-5.82,17.886-10.701,20.548l-36.412,19.866C122.512,253.93,121.274,254.86,119.977,256.003 M273.065,273.07H102.399
			c-2.935,0-5.666-1.51-7.228-4.002c-1.562-2.492-1.732-5.606-0.444-8.252c3.541-7.322,12.698-18.099,20.668-22.443l36.412-19.866
			c0.452-0.239,1.809-0.981,1.809-5.564v-11.605c-4.105-4.727-12.075-15.155-15.983-28.621c-3.968-2.927-9.617-8.209-9.617-15.522
			v-16.324c0-6.383,4.796-10.462,8.533-13.261v-19.396c-0.026-0.546-0.495-20.122,13.278-34.355
			c9.071-9.37,21.828-14.123,37.922-14.123c17.033,0,30.259,4.958,39.305,14.746c13.269,14.336,11.93,33.579,11.87,34.389
			l0.017,18.739c3.738,2.79,8.542,6.878,8.542,13.261v16.324c0,7.313-5.658,12.595-9.617,15.522
			c-3.917,13.466-11.878,23.893-15.983,28.621v11.605c0,4.582,1.357,5.325,1.801,5.564l36.42,19.866
			c7.953,4.335,17.092,15.113,20.642,22.443c1.288,2.645,1.118,5.76-0.444,8.252C278.74,271.559,276.009,273.07,273.065,273.07"/>
		<path d="M42.669,512.003c-4.71,0-8.533-3.823-8.533-8.533V8.537c0-4.71,3.823-8.533,8.533-8.533s8.533,3.823,8.533,8.533V503.47
			C51.202,508.18,47.379,512.003,42.669,512.003"/>
		<path d="M503.469,477.87H8.535c-4.71,0-8.533-3.823-8.533-8.533c0-4.71,3.823-8.533,8.533-8.533h494.933
			c4.71,0,8.533,3.823,8.533,8.533C512.002,474.047,508.179,477.87,503.469,477.87"/>
		<path d="M469.335,512.003c-2.185,0-4.369-0.836-6.033-2.5c-3.337-3.337-3.337-8.73,0-12.066l28.1-28.1l-28.1-28.1
			c-3.337-3.337-3.337-8.73,0-12.066c3.337-3.337,8.73-3.337,12.066,0l34.133,34.133c3.337,3.337,3.337,8.73,0,12.066
			l-34.133,34.133C473.705,511.167,471.52,512.003,469.335,512.003"/>
		<path d="M76.802,51.203c-2.185,0-4.369-0.836-6.033-2.5l-28.1-28.1l-28.1,28.1c-3.337,3.337-8.73,3.337-12.066,0
			c-3.337-3.337-3.337-8.73,0-12.066L36.636,2.503c3.337-3.337,8.73-3.337,12.066,0l34.133,34.133c3.337,3.337,3.337,8.73,0,12.066
			C81.171,50.367,78.987,51.203,76.802,51.203"/>
		<path d="M153.602,460.803h68.267v-153.6h-68.267V460.803z M230.402,477.87h-85.333c-4.71,0-8.533-3.823-8.533-8.533V298.67
			c0-4.71,3.823-8.533,8.533-8.533h85.333c4.71,0,8.533,3.823,8.533,8.533v170.667C238.935,474.047,235.113,477.87,230.402,477.87
			L230.402,477.87z"/>
		<path d="M341.335,460.803h68.267V238.937h-68.267V460.803z M418.135,477.87h-85.333c-4.71,0-8.533-3.823-8.533-8.533V230.403
			c0-4.71,3.823-8.533,8.533-8.533h85.333c4.71,0,8.533,3.823,8.533,8.533v238.933C426.669,474.047,422.846,477.87,418.135,477.87
			L418.135,477.87z"/>
		<path d="M316.435,187.737h118.067c-2.722-2.142-5.751-4.053-8.806-5.478c-0.418-0.196-0.819-0.418-1.195-0.674l-20.454-13.867
			c-1.86-1.067-8.055-4.975-10.513-10.786c-2.074-4.881-0.623-11.273,1.886-15.061c2.244-3.379,5.641-5.325,9.327-5.325
			l37.393-0.009c0-0.623-0.128-1.348-0.435-1.801c-10.223-15.215-27.46-45.483-28.066-77.141c0.009-0.606,0.35-18.825-10.863-30.43
			c-6.374-6.605-15.582-10.001-27.375-10.095c-11.657,0.094-20.872,3.49-27.247,10.095c-11.213,11.605-10.863,29.824-10.854,30.012
			c-0.614,32.085-17.843,62.345-28.066,77.568c-0.307,0.452-0.435,1.169-0.444,1.792l37.402-0.051c3.695,0,7.091,1.937,9.335,5.316
			c2.509,3.789,3.968,10.18,1.903,15.07c-2.449,5.803-8.499,9.626-10.539,10.786l-20.446,13.918
			c-0.384,0.265-0.785,0.486-1.203,0.683C322.178,183.675,319.149,185.595,316.435,187.737 M452.269,204.803h-153.6
			c-2.833,0-5.478-1.408-7.066-3.746c-1.587-2.347-1.911-5.325-0.862-7.962c4.531-11.315,16.521-21.12,26.65-26.001l19.874-13.525
			l-30.353,0.034c-5.555-0.043-10.394-3.046-13.039-8.047c-3.277-6.212-2.799-14.387,1.195-20.335
			c9.173-13.662,24.636-40.653,25.165-67.959c-0.026-0.563-0.666-24.934,15.522-41.822c9.685-10.103,23.023-15.3,39.646-15.437
			c16.759,0.137,30.097,5.333,39.782,15.437c16.188,16.887,15.548,41.259,15.514,42.283c0.529,26.837,16,53.837,25.173,67.499
			c3.994,5.956,4.471,14.123,1.186,20.335c-2.637,5.001-7.484,8.004-12.962,8.047l-30.438,0.009l19.883,13.483
			c10.121,4.873,22.118,14.686,26.658,26.001c1.05,2.637,0.725,5.615-0.862,7.962C457.747,203.395,455.102,204.803,452.269,204.803"
			/>
	</g>
</g>
<g>
</g>
<g>
</g>
<g>
</g>
<g>
</g>
<g>
</g>
<g>
</g>
<g>
</g>
<g>
</g>
<g>
</g>
<g>
</g>
<g>
</g>
<g>
</g>
<g>
</g>
<g>
</g>
<g>
</g>
</svg>
